<?xml version="1.0" encoding="utf-8"?>
<!-- Generator: Adobe Illustrator 22.0.0, SVG Export Plug-In . SVG Version: 6.00 Build 0)  -->
<svg version="1.1" id="Capa_1" xmlns="http://www.w3.org/2000/svg" xmlns:xlink="http://www.w3.org/1999/xlink" x="0px" y="0px"
	 viewBox="0 0 480.6 480.6" style="enable-background:new 0 0 480.6 480.6;" xml:space="preserve">
<style type="text/css">
	.st0{fill:none;stroke:#000000;stroke-width:13;stroke-linecap:round;stroke-linejoin:round;stroke-miterlimit:10;}
	.st1{fill:none;stroke:#000000;stroke-width:13;stroke-miterlimit:10;}
</style>
<path d="M366.6,269h-51.7c-10.1-16.8-28.7-27.4-49-27.5l-62.7-0.1l-4.6-10.2c5.5-3.4,9.8-8.4,11.9-14.6c2.5-7.1,2-14.6-1.2-21.4
	L195,165.9c-6.7-13.9-23.5-19.7-37.3-13l-2,1c-16-14.7-37.1-23.3-59.6-23.3h-7.8c-1.9,0-3.6,1-4.7,2.5c-1,1.6-1.2,3.6-0.4,5.3
	l71.2,156.7c8.1,17.8,25.9,29.3,45.5,29.3c0.3,0,0.6-0.1,0.8-0.2c0.3,0,0.5,0.2,0.8,0.2h30.6v25.6c0,10.3,8.4,18.7,18.7,18.7H285
	c10.3,0,18.7-8.4,18.7-18.7v-25.6h62.9c14.5,0,26.3-12.4,26.3-27.7S381.1,269,366.6,269z M265.9,252.6c13.9,0.1,26.8,6.3,35.4,16.4
	h-85.5l-7.5-16.5L265.9,252.6z M185,170.7l14.2,29.4c2,4.1,2.2,8.6,0.7,12.9c-1.1,3.3-3.3,6.1-6,8.1l-17.7-39
	c-3.3-7.2-7.5-13.8-12.5-19.8C171.9,159.3,181.2,162.7,185,170.7L185,170.7z M166.2,186.7l37.4,82.2h-48.8L96.9,141.6
	C126.7,141.9,153.8,159.6,166.2,186.7L166.2,186.7z M292.6,349.9c0,4.2-3.4,7.7-7.7,7.7H251c-4.2,0-7.7-3.4-7.7-7.7v-25.6h49.3
	L292.6,349.9z M366.6,313.3h-68.4h-60.3h-36.2c-0.3,0-0.6,0.1-0.8,0.2c-0.3,0-0.5-0.2-0.8-0.2c-15.2,0-29.1-8.9-35.4-22.8l-4.7-10.4
	h206.8c8.4,0,15.2,7.5,15.2,16.6C381.8,305.8,375,313.3,366.6,313.3z"/>
<g id="NjpOEo_1_">
	<g>
		<path d="M246,9c10.5,4.5,21.1,8.7,31.4,13.6c4.1,2,7.9,2.4,12.3,1.9c7-0.8,14.1-1.6,21.1-1.5c13.3,0.1,24.8,5.4,32.7,15.8
			c10,13.4,22.2,21.8,38.8,25.8c15.1,3.6,25.1,14.9,29.1,30c3.9,14.7,10.3,26.6,23.3,35.7c16.3,11.4,19.7,28.8,17.3,47.7
			c-0.6,4.8-0.9,9.7-1.1,14.5c0,1.8,0.6,3.7,1.4,5.4c3.8,8,8.4,15.6,11.6,23.8c4.3,11.1,3.1,22.3-1.9,33c-2.9,6.3-5.9,12.5-9.2,18.6
			c-2.1,3.8-2.5,7.6-2,11.9c0.8,7,1.6,14.1,1.6,21.1c0,13.5-5.9,24.4-15.8,33.3c-5.2,4.6-10.6,9-15.6,13.7c-1.8,1.7-3.3,4.1-4.1,6.5
			c-2.2,6.2-3.8,12.7-6,18.9c-5,14.3-14.8,24.5-29.4,28.3c-15.4,4-27.6,10.9-37.1,24.3c-9.4,13.3-23.7,18.3-40,16.9
			c-7-0.6-14.1-1.1-21.2-1.4c-1.8-0.1-3.8,0.4-5.4,1.2c-6.6,3.3-12.9,7.1-19.6,10.1c-12,5.5-24.3,5.5-36.4,0.2
			c-6.5-2.8-12.8-6-19-9.4c-4.2-2.4-8.4-2.8-13.1-2.2c-6.8,0.9-13.8,1.5-20.7,1.5c-13.3,0-24.1-5.8-32.9-15.6
			c-2.9-3.2-6-6.2-8.4-9.7c-4.9-7.4-11.8-10.8-20.1-13c-7-1.9-14.1-4.5-20.4-8c-9.6-5.4-16.3-14-18.8-24.7
			c-3.7-15.3-10.6-27.4-24-36.8c-13.5-9.4-18.6-23.9-17.1-40.4c0.6-7,1.1-14.1,1.4-21.2c0.1-1.9-0.6-4-1.5-5.8
			c-3.9-8.1-8-16.1-11.8-24.2c-1-2.2-1.4-4.7-2.1-7.1c0-4.1,0-8.3,0-12.4c3.7-8.9,7-18,11.3-26.6c3.3-6.7,5.7-13,3.9-20.6
			c-0.8-3.1-0.7-6.4-1-9.7c-1.8-17.3,3.7-32.1,17.7-42.4c12.5-9.2,19.9-20.6,23.3-35.8c2.8-12.7,11.4-21.8,23.1-27.6
			c5-2.5,10.4-4.2,15.8-5.6c9.5-2.4,17.4-6.5,22.7-15.2c2-3.2,4.7-6,7.3-8.8c7.8-8.4,17.5-13.8,29-14.1c9.8-0.3,19.7,0.9,29.5,1.2
			c2.1,0.1,4.4-0.3,6.2-1.3c10.3-5.2,20.1-11.6,31.6-14.1C237.7,9,241.9,9,246,9z M306.6,430.7c9.7,1.4,19-3.2,26.3-12.9
			c3.9-5.2,8-10.2,12.4-15c1.7-1.9,4-3.6,6.3-4.4c7.7-2.8,15.6-5.4,23.5-7.8c10-3,16.5-9.4,19.6-19.3c2.2-6.9,3.9-13.9,6.4-20.7
			c1.1-3,3.1-6,5.4-8.3c5.8-5.5,12-10.5,18-15.7c7.7-6.6,11.2-15,10.2-25.1c-0.7-7.3-1.6-14.7-2-22c-0.1-2.8,0.4-5.9,1.6-8.4
			c3.4-7.5,7.2-14.8,11-22.2c4.7-9.3,4.5-18.4-0.4-27.5c-3.4-6.2-6.9-12.4-10-18.7c-1.2-2.4-1.9-5.3-1.8-8c0-5.3,0.2-10.7,1.2-15.9
			c3.1-17.2-1.7-30.8-16.8-40.3c-0.2-0.2-0.5-0.4-0.7-0.5c-9.7-6.1-15.9-14.5-18.1-25.9c-0.8-4-2.6-7.8-3.7-11.8
			c-3-10.2-9.5-16.7-19.6-19.8c-6.9-2.1-13.9-4-20.7-6.4c-2.8-1-5.6-2.8-7.6-4.9c-5.6-6-10.9-12.4-16.3-18.7
			c-6.6-7.5-14.8-10.9-24.8-10c-7.5,0.7-15,1.6-22.5,2c-2.5,0.1-5.3-0.3-7.6-1.4c-7.2-3.3-14.4-6.8-21.4-10.6
			c-10.1-5.4-19.9-5.3-29.9,0.4c-5.8,3.3-11.6,6.5-17.6,9.3c-2.7,1.3-5.9,2-8.8,1.9c-7.9-0.2-15.9-0.9-23.8-1.7
			c-11.1-1.1-20.6,2.3-26.5,11.6c-9.9,15.5-23.7,24.4-41.4,27.8c-0.6,0.1-1.1,0.4-1.7,0.6c-10.4,2.9-16.9,9.6-20,19.9
			c-1.9,6.5-3.6,13.1-6.1,19.4c-1.3,3.4-3.4,6.8-6,9.3c-5.7,5.5-12,10.5-18,15.7c-7.4,6.5-10.7,14.6-9.7,24.4c0.7,7.3,1.6,14.7,2,22
			c0.1,2.9-0.5,6.2-1.7,8.8c-3.3,7.4-7.1,14.6-10.8,21.8c-4.8,9.4-4.6,18.7,0.4,27.9c3.4,6.2,6.9,12.4,9.9,18.7
			c1.2,2.5,1.9,5.6,1.8,8.4c-0.3,8.4-1.2,16.8-1.8,25.1c-0.7,9.4,2.3,17.4,9.5,23.6c5.9,5.1,12.2,9.8,18,15c2.1,1.9,3.9,4.4,4.9,7
			c2.8,7.4,5.3,15,7.6,22.6c3.1,10.3,9.6,17,19.9,20c6.8,2,13.6,3.9,20.3,6.3c2.9,1.1,5.8,2.9,7.9,5.1c5.7,6,10.8,12.4,16.3,18.7
			c6.5,7.4,14.6,10.7,24.4,9.8c7.3-0.7,14.7-1.6,22-1.9c3.1-0.1,6.4,0.6,9.3,1.8c7.1,3.2,14.1,6.8,21,10.4
			c9.8,5.1,19.4,4.9,29.1-0.6c5.8-3.3,11.6-6.5,17.6-9.3c2.8-1.3,6.2-2.1,9.3-2C289.2,429.1,296.6,429.9,306.6,430.7z"/>
	</g>
</g>
</svg>
