<?xml version="1.0" encoding="utf-8"?>
<!-- Generator: Adobe Illustrator 22.0.0, SVG Export Plug-In . SVG Version: 6.00 Build 0)  -->
<svg version="1.1" id="Layer_1" xmlns="http://www.w3.org/2000/svg" xmlns:xlink="http://www.w3.org/1999/xlink" x="0px" y="0px"
	 viewBox="0 0 496 612" style="enable-background:new 0 0 496 612;" xml:space="preserve">
<g>
	<path d="M199,563c-9.6-2.7-16.9-8.8-23.8-15.7c-26.2-26.4-52.5-52.6-78.8-78.9c-8.2-8.2-14-17.7-15.5-29.5
		c-2-15.4,2.2-28.9,13-39.8c29.5-29.8,59.3-59.5,89.3-88.9c7.1-6.9,16-10.3,26.2-7.5c10.7,3,17.7,12.9,18.4,26.4
		c0.4,8.8,0.3,17.7,0.2,26.5c0,3,0.9,3.9,3.9,4.4c44.3,6.9,86.6,0.6,126.9-19.1c28.8-14,53-33.7,73-58.7c2-2.5,3.8-5,6-7.3
		c4.8-5.1,11.5-6.4,17.3-3.7c5.8,2.8,9.7,8.9,8.4,15.6c-2.9,15.2-5.4,30.6-10,45.3c-12.8,41.2-35.2,76.7-66.6,106.4
		c-30.5,28.9-66,49.5-106.8,60.2c-15.2,4-31,5.7-46.6,8.5c-1.6,0.3-3.3,0.4-5.5,0.7c0,7.3,0.4,14.4-0.1,21.5
		c-0.5,6.4-1.5,12.9-3.4,19c-2.5,7.8-9.2,11.8-16.5,14.7C205,563,202,563,199,563z M198.1,527.7c0-11.2,0-21,0-30.8
		c0-13.2,5.3-18,18.2-19c16.2-1.4,32.8-2.2,48.4-6.1c72-18.3,123.2-61.9,153.3-130c0.5-1,0.7-2.2,1.4-4.2c-1.9,1.5-3,2.3-4,3.1
		c-60.7,46.6-128.6,61.6-203.4,46.2c-9.2-1.9-13.7-7.4-13.9-16.8c-0.1-5.3,0-10.7,0-16c0-5.2,0-10.4,0-16.6c-2,1.8-3.1,2.8-4.1,3.9
		c-25.4,25.4-50.9,50.9-76.3,76.4c-9.9,9.9-9.9,19.6-0.1,29.5c16,16,32,32,48.1,48.1C176.1,505.7,186.6,516.1,198.1,527.7z"/>
	<path d="M281,51c9.9,3,17.3,9.5,24.4,16.6c26,26.1,52,52.1,78.1,78.1c11.5,11.5,17.3,25.1,15.5,41.5c-1.1,10.5-5.3,19.7-12.6,27.1
		c-29.9,30-59.8,60-90,89.6c-7.5,7.3-17.1,10.7-27.6,6.8c-11.4-4.2-15.9-13.8-16.7-25.1c-0.6-9-0.4-18-0.4-27c0-2.7-0.4-4.2-3.6-4.7
		c-52.7-8.1-101.7,2-146.9,30.1c-20.7,12.9-38.5,29-53.6,48.2c-1.5,2-3,4-4.6,5.9c-4.8,5.6-11.5,7.4-17.5,4.9
		c-6.6-2.9-10.5-9.2-9.2-16.6c2-11.8,3.8-23.7,7.1-35.2c17.2-60.5,52-108.6,104.4-143.5c35.8-23.9,75.5-37.5,118.6-40.8
		c4.4-0.3,5.7-1.7,5.4-6c-0.3-6.6-0.1-13.3,0.1-20c0.4-14.2,5.9-25.1,20.2-30C275,51,278,51,281,51z M61.3,275.7
		c0.8-0.6,1.6-1.2,2.3-1.8c58.8-45.5,124.8-61.4,197.9-47.9c17.5,3.2,20.1,6.5,20.1,24.2c0,8.4,0,16.8,0,26.3
		c1.5-1.3,2.1-1.7,2.6-2.3c26.4-26.4,52.8-52.7,79.2-79.2c8.4-8.4,8.1-18.7-0.6-27.4c-26-26.1-52.1-52.1-78.1-78.1
		c-0.7-0.7-1.7-1.2-2.6-1.9c-0.2,0.8-0.4,1.1-0.4,1.4c0,9.2-0.1,18.3-0.1,27.5c0,14.2-4.9,19.3-19.1,19.6
		c-28.5,0.6-55.9,6.2-82.1,17.3c-39.5,16.7-71.6,42.7-96.3,77.8C74.6,244.9,66.5,259.5,61.3,275.7z"/>
</g>
</svg>
