<?xml version="1.0" encoding="utf-8"?>
<!-- Generator: Adobe Illustrator 22.0.0, SVG Export Plug-In . SVG Version: 6.00 Build 0)  -->
<svg version="1.1" id="first_x5F_class_x5F_chairs" xmlns="http://www.w3.org/2000/svg" xmlns:xlink="http://www.w3.org/1999/xlink"
	 x="0px" y="0px" viewBox="0 0 512 512" style="enable-background:new 0 0 512 512;" xml:space="preserve">
<path d="M433.5,62.7c-6.2,0.1-12.4,2.5-16.9,7c-4.5,4.5-7,10.5-7,16.9c0,13.2,10.7,23.9,23.9,23.9h0c6.4,0,12.3-2.5,16.9-7
	c4.5-4.5,7-10.5,7-16.9C457.4,73.5,446.7,62.7,433.5,62.7z M440.7,93.8c-1.9,1.9-4.5,3-7.2,3c0,0,0,0,0,0c-5.6,0-10.2-4.6-10.2-10.3
	c0-2.7,1.1-5.3,3-7.2c1.9-1.9,4.5-3,7.2-3h0c5.6,0,10.2,4.6,10.2,10.3C443.7,89.3,442.7,91.9,440.7,93.8z"/>
<path d="M78.5,103.7L78.5,103.7c6.4,0,12.4-2.5,16.9-7c4.5-4.5,7-10.5,7-16.9c0-13.2-10.7-23.9-23.9-23.9c0,0,0,0,0,0
	c-6.4,0-12.3,2.5-16.9,7c-4.5,4.5-7,10.5-7,16.9C54.6,92.9,65.3,103.6,78.5,103.7z M71.3,72.5c1.9-1.9,4.5-3,7.2-3h0
	c5.6,0,10.2,4.6,10.2,10.3c0,2.7-1.1,5.3-3,7.2c-1.9,1.9-4.5,3-7.2,3c0,0,0,0,0,0c-5.6,0-10.2-4.6-10.2-10.3
	C68.3,77,69.3,74.4,71.3,72.5z"/>
<path d="M439.6,276.9c-4.2,0.6-7.2,4.5-6.6,8.7c0.6,4.2,4.5,7.2,8.7,6.6c4.2-0.6,7.2-4.5,6.6-8.7
	C447.7,279.2,443.8,276.3,439.6,276.9z"/>
<path d="M216.4,73.7c4.2-0.6,7.2-4.5,6.6-8.7s-4.5-7.2-8.7-6.6c-4.2,0.6-7.2,4.5-6.6,8.7C208.3,71.4,212.2,74.3,216.4,73.7z"/>
<path d="M148.1,135.2c4.2-0.6,7.2-4.5,6.6-8.7c-0.6-4.2-4.5-7.2-8.7-6.6c-4.2,0.6-7.2,4.5-6.6,8.7
	C140,132.8,143.9,135.8,148.1,135.2z"/>
<path d="M262.8,90.1c1.3,1.3,3.1,2,4.8,2c1.7,0,3.5-0.7,4.8-2l7.7-7.7l7.7,7.7c1.3,1.3,3.1,2,4.8,2c1.7,0,3.5-0.7,4.8-2
	c2.7-2.7,2.7-7,0-9.7l-7.7-7.7l7.7-7.7c2.7-2.7,2.7-7,0-9.7c-2.7-2.7-7-2.7-9.7,0l-7.7,7.7l-7.7-7.7c-2.7-2.7-7-2.7-9.7,0
	c-2.7,2.7-2.7,7,0,9.7l7.7,7.7l-7.7,7.7C260.1,83.1,260.1,87.4,262.8,90.1z"/>
<path d="M382.3,240.2c18.8,0,34.1-15.3,34.1-34.1v-20.5c0-18.8-15.3-34.1-34.1-34.1s-34.1,15.3-34.1,34.1v20.5
	C348.2,224.9,363.5,240.2,382.3,240.2z M361.8,185.6c0-11.3,9.2-20.5,20.5-20.5c11.3,0,20.5,9.2,20.5,20.5v20.5
	c0,11.3-9.2,20.5-20.5,20.5c-11.3,0-20.5-9.2-20.5-20.5V185.6z"/>
<path d="M259.4,240.2c18.8,0,34.1-15.3,34.1-34.1v-20.5c0-18.8-15.3-34.1-34.1-34.1s-34.1,15.3-34.1,34.1v20.5
	C225.3,224.9,240.6,240.2,259.4,240.2z M238.9,185.6c0-11.3,9.2-20.5,20.5-20.5c11.3,0,20.5,9.2,20.5,20.5v20.5
	c0,11.3-9.2,20.5-20.5,20.5c-11.3,0-20.5-9.2-20.5-20.5V185.6z"/>
<path d="M404.5,335.8h-63.8c-12.5-20.8-35.4-33.7-60.3-33.9l-77.3-0.1l-5.7-12.5c6.8-4.1,12-10.3,14.7-17.9c3-8.7,2.5-18-1.5-26.3
	L193,208.7c-8.3-17.1-28.9-24.3-46-16l-2.5,1.2c-19.7-18.1-45.8-28.7-73.5-28.7h-9.6c-2.3,0-4.5,1.2-5.7,3.1
	c-1.3,1.9-1.4,4.4-0.5,6.5L143,367.9c10,21.9,32,36.1,56.1,36.1c0.4,0,0.7-0.2,1-0.2c0.4,0.1,0.7,0.2,1,0.2h37.8v31.5
	c0,12.7,10.4,23.1,23.1,23.1h41.8c12.7,0,23.1-10.4,23.1-23.1V404h77.5c17.9,0,32.4-15.3,32.4-34.1S422.4,335.8,404.5,335.8z
	 M280.3,315.5c17.1,0.1,33.1,7.7,43.6,20.2H218.5l-9.2-20.3L280.3,315.5z M180.7,214.6l17.5,36.3c2.4,5,2.7,10.6,0.9,15.9
	c-1.4,4.1-4,7.5-7.4,10l-21.8-48c-4.1-8.9-9.3-17.1-15.4-24.4C164.5,200.5,175.9,204.8,180.7,214.6L180.7,214.6z M157.4,234.4
	l46.1,101.4h-60.1L72,178.8C108.8,179.2,142.2,200.9,157.4,234.4L157.4,234.4z M313.3,435.6c0,5.2-4.2,9.4-9.4,9.4H262
	c-5.2,0-9.4-4.2-9.4-9.4V404h60.7L313.3,435.6z M404.5,390.4h-84.4h-74.4h-44.6c-0.4,0-0.7,0.2-1,0.2c-0.4-0.1-0.7-0.2-1-0.2
	c-18.8,0-35.9-11-43.6-28.1l-5.8-12.9h254.9c10.4,0,18.8,9.2,18.8,20.5S414.8,390.4,404.5,390.4z"/>
</svg>
