<?xml version="1.0" encoding="utf-8"?>
<!-- Generator: Adobe Illustrator 22.0.0, SVG Export Plug-In . SVG Version: 6.00 Build 0)  -->
<svg version="1.1" id="Layer_1" xmlns="http://www.w3.org/2000/svg" xmlns:xlink="http://www.w3.org/1999/xlink" x="0px" y="0px"
	 viewBox="0 0 512 512" style="enable-background:new 0 0 512 512;" xml:space="preserve">
<g>
	<path d="M23.1,63.8h47.8v226.8h107.6v41.1H23.1V63.8z"/>
	<path d="M435.4,222.4c-1.6-34.6-3.3-76.2-3.1-112.7h-1.1c-8.6,32.8-19.6,69-30.9,102.9L362,328.5h-36.8l-34.7-114.3
		c-10.2-34.4-19.6-70.8-26.5-104.5h-0.9c-1.1,35.1-2.7,77.9-4.7,114.3l-5.8,107.6h-44.5l17.4-267.8h62.8l34.1,107.6
		c9.4,31.6,17.8,63.4,24.1,93.3h1.1c7-29.3,16-62,26.1-93.5L410,63.8h62l15,267.8h-46.6L435.4,222.4z"/>
</g>
<ellipse cx="168.5" cy="428.5" rx="138.2" ry="39.5"/>
<ellipse cx="361" cy="386.5" rx="69.1" ry="27.2"/>
<ellipse cx="472.1" cy="366.8" rx="32.1" ry="7.4"/>
</svg>
