<?xml version="1.0" encoding="utf-8"?>
<!-- Generator: Adobe Illustrator 22.0.0, SVG Export Plug-In . SVG Version: 6.00 Build 0)  -->
<svg version="1.1" id="Layer_1" xmlns="http://www.w3.org/2000/svg" xmlns:xlink="http://www.w3.org/1999/xlink" x="0px" y="0px"
	 viewBox="0 0 512 512" style="enable-background:new 0 0 512 512;" xml:space="preserve">
<g id="nZGsQO_15_">
	<g>
		<path d="M348.1,127.4c2.7,0,4.7,0,6.7,0c37.3,0,74.6,0,111.9,0c18.7,0,32.6,13.9,32.6,32.7c0,89.5,0,179,0,268.6
			c0,19.2-13.7,32.9-32.9,32.9c-142.6,0-285.2,0-427.7,0C19.8,461.5,6,447.7,6,428.9c0-89.7,0.1-179.4-0.1-269.1
			c0-18.1,16.2-32.8,32.9-32.6c37.5,0.5,74.9,0.2,112.4,0.2c1.8,0,3.6,0,6,0c0-2.1,0-3.9,0-5.7c0-16.4-0.1-32.8,0-49.2
			c0.1-14.7,10-24.6,24.7-24.7c47.2,0,94.5-0.1,141.7,0c14.4,0,24.4,10,24.5,24.4c0.1,16.4,0,32.8,0,49.2
			C348.1,123.2,348.1,125,348.1,127.4z M189,143.4c0,13.6-0.1,26.7,0.1,39.8c0,1.4,1.7,3.4,3.1,4.2c7.6,4,15.3,7.8,23.1,11.6
			c3.8,1.9,5.6,4.6,5.6,9c-0.1,31,0,62-0.1,93c0,6.5-2.9,9.3-9.4,9.3c-20.2,0-40.5,0-60.7,0c-6.6,0-9.4-2.8-9.4-9.3
			c0-31,0-62-0.1-93c0-4.4,1.8-7.2,5.6-9c5.5-2.7,10.8-6.1,16.5-8c8.3-2.8,10.7-7.7,10-16.3c-0.9-10.3-0.2-20.7-0.2-31.1
			c-16.2,0-31.9,0-47.4,0c0,100.9,0,201.4,0,301.8c84.9,0,169.4,0,254,0c0-100.8,0-201.3,0-302C316.1,143.4,252.8,143.4,189,143.4z
			 M61.5,143.2c-7,0-13.4,0-19.8,0c-13.9,0-19.8,6-19.8,20c0,87.3,0,174.7,0,262c0,1.7-0.1,3.3,0.1,5c0.6,7.7,5.4,14.2,12.9,14.9
			c8.8,0.9,17.7,0.2,26.7,0.2C61.5,344.6,61.5,244.3,61.5,143.2z M443.8,445.7c6.6,0,12.9,0,19.2,0c14.7,0,20.5-5.7,20.5-20.4
			c0-87.3,0-174.7,0-262c0-1.7,0.1-3.3-0.1-5c-0.7-7.7-6.1-14.2-13.7-14.8c-8.5-0.7-17.1-0.2-25.8-0.2
			C443.8,244.2,443.8,344.6,443.8,445.7z M109.1,445.4c0-100.9,0-201.4,0-301.8c-10.7,0-21,0-31.3,0c0,100.8,0,201.2,0,301.8
			C88.3,445.4,98.5,445.4,109.1,445.4z M427.4,445.5c0-100.9,0-201.4,0-301.8c-10.7,0-21,0-31.3,0c0,100.8,0,201.2,0,301.8
			C406.6,445.5,416.8,445.5,427.4,445.5z M204.7,294.2c0.1-1,0.2-1.8,0.2-2.6c0-25.5,0.1-51-0.1-76.5c0-1.6-1.6-3.9-3.1-4.7
			c-6.8-3.6-13.8-9.3-20.9-9.5c-6.6-0.1-13.3,5.9-20,9c-2.8,1.3-3.7,2.9-3.7,6c0.1,24.7,0.1,49.3,0.1,74c0,1.4,0.2,2.8,0.3,4.2
			C173.4,294.2,188.9,294.2,204.7,294.2z M189,127.2c0-13.3,0-26.1,0-38.8c0-5.7,2.9-8.7,8.5-8.7c36.8-0.1,73.6-0.1,110.4,0
			c5.5,0,8.3,3.1,8.4,8.8c0.1,11.3,0,22.5,0,33.8c0,1.6,0.1,3.2,0.2,4.7c5.5,0,10.5,0,15.7,0c0-18.4,0.1-36.5-0.1-54.5
			c-0.1-6-3.4-8.8-10.2-8.8c-46.2,0-92.5,0-138.7,0c-7.3,0-10.1,2.9-10.2,10.4c0,14.9,0,29.8,0,44.8c0,2.8,0,5.5,0,8.4
			C178.6,127.2,183.5,127.2,189,127.2z M300.2,95.8c-32,0-63.5,0-94.9,0c0,10.7,0,21,0,31.3c31.8,0,63.3,0,94.9,0
			C300.2,116.6,300.2,106.4,300.2,95.8z"/>
	</g>
</g>
</svg>
