<?xml version="1.0" encoding="utf-8"?>
<!-- Generator: Adobe Illustrator 22.0.0, SVG Export Plug-In . SVG Version: 6.00 Build 0)  -->
<svg version="1.1" id="Layer_1" xmlns="http://www.w3.org/2000/svg" xmlns:xlink="http://www.w3.org/1999/xlink" x="0px" y="0px"
	 viewBox="0 0 512 512" style="enable-background:new 0 0 512 512;" xml:space="preserve">
<path d="M506.2,136.8c-2.6,3.8-6.3,4.8-10.9,4.7c-19.2-0.2-38.4-0.1-57.7-0.1c-7,0-8.3,1.4-9,8.3c-4,36.7-8.1,73.5-12.2,110.2
	c-3.7,33.5-7.4,67.1-11.1,100.6c-2,18-3.9,35.9-6,53.9c-1.3,10.7-9,17.6-19.9,18.2c-1.6,0.1-3.1,0.2-4.7,0.3
	c6.2,30.7,0.6,48.7-18.8,61.3c-17,11-38.9,10.5-55.1-1.3c-18.5-13.4-23.9-32.2-16.9-59.9c-1.4-0.1-2.8-0.3-4.2-0.3
	c-9.9,0-19.7,0-29.6,0c-6.8,0-10.3-2.7-10.2-7.6c0.1-4.7,3.7-7.2,10.1-7.3c13.4,0,26.8,0.1,40.2-0.1c2.6-0.1,5.7-1.1,7.7-2.8
	c17.8-14.5,43.9-14.9,61.8-0.3c3,2.4,5.9,3.6,9.6,3.3c2.4-0.2,4.8,0,7.3,0c6.3,0,7.7-1.2,8.3-7.4c0.6-6.1,1.3-12.2,2-18.6
	c-120.6,0-241,0-361.8,0c0,8.4,0,16.9,0,26c9.2,0,18.3-0.2,27.4,0.1c5.2,0.2,9.3-1.1,13.6-4.4c17.9-13.6,42.4-12.7,60.2,1.4
	c2,1.6,5.1,2.8,7.7,2.8c25.2,0.2,50.4,0.1,75.6,0.1c1.8,0,3.6-0.1,5.3,0.4c3.7,1.1,5.6,3.9,5.2,7.7c-0.4,3.5-2.5,5.9-6.2,6.4
	c-1.7,0.2-3.5,0.2-5.3,0.2c-20.8,0-41.7,0-62.5,0c-1.8,0-3.5,0-5.7,0c8.4,26.7,2.8,48.6-21.6,63c-17.7,10.5-36.1,8.7-52.8-3.3
	c-18.1-13-22.9-31-16.3-59.7c-2.3,0-4.5,0-6.6,0c-5.5,0-11,0.1-16.5,0c-10.8-0.2-16.6-6.2-16.7-17c0-7.8-0.1-15.5,0-23.3
	c0.1-9,5.9-15.2,15-15.8c4.5-0.3,9,0,13.2,0c-0.4-5.7-0.9-10.7-0.9-15.8c0-4.8,3-7.9,7.3-7.9c4.3,0,7.1,3,7.4,7.9
	c0.1,2.3-0.1,4.5,0.2,6.8c0.6,4.8,3.7,8.6,8.3,8.7c14.7,0.3,29.3,0.1,43.7,0.1c0-51.2,0-102.2,0-153.1c0-12.8,9.4-22.1,22.5-22.2
	c13.2-0.2,26.5,0,40.1,0c0-3.5,0-6.8,0-10.9c-1.5,0-3.2,0-4.9,0c-25.5,0-51,0-76.6,0c-12,0-17.5-5.5-17.6-17.4c0-16.6,0-33.3,0-49.9
	c0-11.7,5.5-17.2,17.2-17.2c43.9,0,87.9,0,131.8,0c11.4,0,17,5.6,17,16.9c0,8.4,0,16.8,0.1,25.2c0,0.3,0.1,0.6,0.3,1.3
	c4.8,0,9.7,0,15,0c0.1-1.3,0.3-2.7,0.3-4.1c0-19.1,0-38.1,0-57.2c0-9-3.7-12.7-12.6-12.7c-57.3,0-114.7,0-172,0
	c-9.2,0-12.8,3.7-12.8,13c0,77.7,0,155.4,0,233.1c0,1.8,0.1,3.6-0.1,5.3c-0.5,4.2-3,6.4-7.1,6.5c-4.1,0.1-6.6-2.3-7.4-6.3
	c-0.3-1.4-0.1-2.9-0.1-4.4c0-78.2,0-156.3,0-234.5c0-17.5,10.1-27.5,27.7-27.5c11.1,0,22.2,0,33.8,0c0-6.6-0.1-12.8,0-18.9
	c0.2-14.9,9.1-23.7,24-23.7c18.9,0,37.8,0,56.7,0c14.1,0,23.3,9.2,23.4,23.3c0.1,6.3,0,12.5,0,19.3c12.5,0,24.6-0.1,36.7,0
	c11.8,0.2,21.5,8,24,19.5c0.6,2.6,0.6,5.4,0.6,8.2c0,20.2,0,40.4,0,61.2c1.7,0.1,3.2,0.2,4.8,0.2c8.4,0,16.8-0.1,25.2,0.1
	c11.9,0.3,21.1,9.6,21.3,21.4c0.2,9.8,0,19.6,0,30.1c2.1,0,3.8,0,5.5,0c11.5,0,22.9-0.1,34.4,0c14,0.1,23.1,9.2,23.1,23.1
	c0.1,48.1,0,96.3,0,144.4c0,2.4-0.3,4.8-0.5,7.7c3.3,0,6.7,0,10.7,0c1-9.1,2.1-18.3,3.1-27.5c4.4-39.9,8.9-79.9,13.3-119.8
	c3-27.3,6.1-54.5,9-81.8c1.3-12.5,9-20.2,21.5-20.3c20.5-0.2,41-0.2,61.5,0.1c3,0.1,6,2.7,9.1,4.2
	C506.2,132.9,506.2,134.8,506.2,136.8z M202.9,216c0,53.6,0,106.8,0,160.1c25.8,0,51.4,0,76.9,0c0-53.6,0-106.8,0-160.1
	C254.2,216,228.8,216,202.9,216z M82.8,174.9c28.3,0,56.1,0,83.5,0c1.1-4.6,1.4-9.1,3.1-12.9c3.8-8.1,10.6-12.4,19.6-12.6
	c9.8-0.1,19.6,0,29.5,0c0-10,0-19.3,0-28.8c-45.3,0-90.4,0-135.7,0C82.8,138.7,82.8,156.6,82.8,174.9z M335.9,376.6
	c5.8,0,11.4,0,17,0c8.8,0,10.7-1.9,10.7-10.8c0-46.3,0-92.7,0-139c0-1.5,0.1-2.9-0.1-4.4c-0.6-3.6-2.5-6.2-6.3-6.3
	c-7-0.2-14.1-0.1-21.4-0.1C335.9,269.6,335.9,322.8,335.9,376.6z M146.6,376.6c0-53.9,0-107.2,0-160.7c-5.9,0-11.4,0-16.9,0
	c-9.1,0-10.9,1.9-10.9,11.2c0,46.2,0,92.3,0,138.5c0,1.1,0,2.3,0,3.4c0.3,4.9,2.7,7.5,7.6,7.7C132.9,376.7,139.5,376.6,146.6,376.6z
	 M295.3,376.3c8.6,0,16.9,0,25.4,0c0-53.5,0-106.7,0-160.1c-8.6,0-16.9,0-25.4,0C295.3,269.7,295.3,322.8,295.3,376.3z M187.4,376.3
	c0-53.5,0-106.7,0-160.1c-8.5,0-16.8,0-25.1,0c0,53.6,0,106.8,0,160.1C170.8,376.3,179,376.3,187.4,376.3z M187.9,60
	c0-7.1,0.2-13.9-0.1-20.6c-0.2-4.4-3-6.9-7.2-6.9c-19.9-0.1-39.7-0.1-59.6,0c-3.7,0-7,1.9-7.2,5.8c-0.4,7.2-0.1,14.4-0.1,21.8
	C138.5,60,162.8,60,187.9,60z M329.2,418.7c-18.8,0.1-34.2,15.5-34.2,34.3c0,18.7,15.6,34.3,34.3,34.3c18.9,0.1,34.6-15.8,34.4-34.7
	C363.5,433.9,348.1,418.7,329.2,418.7z M129.4,453.2c0.1-19-15-34.4-33.8-34.5c-19.2-0.1-34.7,15.2-34.7,34.2
	c0,18.8,15.3,34.2,34.1,34.4C113.7,487.5,129.3,472.1,129.4,453.2z M300.6,200.7c0-10.2,0.1-19.8-0.1-29.5c-0.1-3.8-2.4-6.8-6.2-6.9
	c-9.9-0.3-19.9-0.1-30-0.1c0,12.4,0,24.4,0,36.5C276.5,200.7,288.2,200.7,300.6,200.7z M248.9,200.6c0-12.3,0-24.3,0-36.2
	c-5.2,0-10,0-15.2,0c0,3.5,0.1,6.7,0,9.9c-0.3,9.7-6.2,15.6-15.9,15.7c-10.3,0.1-20.7,0-31,0c-1.5,0-3.1,0.2-4.6,0.3
	c0,3.7,0,6.8,0,10.3C204.5,200.6,226.5,200.6,248.9,200.6z M218.5,164.2c-10.3,0-20.1-0.3-29.9,0.1c-5.4,0.2-7.6,4.9-5.7,11
	c5.8,0,11.8,0,17.7,0c5.9,0,11.8,0,17.9,0C218.5,171.3,218.5,168.1,218.5,164.2z"/>
<path d="M329.5,429.4c13.1,0,23.7,10.8,23.5,23.8c-0.1,12.8-10.8,23.4-23.6,23.4c-12.9,0.1-23.8-10.8-23.8-23.7
	C305.7,439.9,316.4,429.4,329.5,429.4z M329.4,444.1c-4.8,0-9,4.2-8.9,9c0.1,4.7,4,8.5,8.8,8.5c4.8,0,8.7-3.7,8.9-8.4
	C338.3,448.5,334.2,444.2,329.4,444.1z"/>
<path d="M95.1,429.4c13.2,0,23.6,10.5,23.6,23.7c0,13.1-10.8,23.8-23.8,23.6c-12.9-0.2-23.3-10.7-23.4-23.6
	C71.4,440,82,429.4,95.1,429.4z M104,453.1c0.1-4.8-4.1-9-8.9-9c-4.7,0-8.6,3.9-8.6,8.7c-0.1,4.9,3.5,8.7,8.3,8.9
	C99.7,461.9,103.9,458,104,453.1z"/>
</svg>
