<?xml version="1.0" encoding="utf-8"?>
<!-- Generator: Adobe Illustrator 22.0.0, SVG Export Plug-In . SVG Version: 6.00 Build 0)  -->
<svg version="1.1" id="Layer_1" xmlns="http://www.w3.org/2000/svg" xmlns:xlink="http://www.w3.org/1999/xlink" x="0px" y="0px"
	 viewBox="0 0 584 612" style="enable-background:new 0 0 584 612;" xml:space="preserve">
<path d="M34.5,329.5c1.3-9.7,2.4-19.4,4-29c7.3-42.3,24.4-80.2,50.7-114c4.1-5.3,9.8-6.3,14.4-2.9c4.7,3.5,5.3,9.4,1.4,15
	c-4.5,6.4-9.1,12.6-14.1,19.5c14.6,8.4,28.7,16.6,43.2,25c14.4-21.9,32.4-39.9,54.4-54.3c-8.3-14.5-16.4-28.5-24.9-43.1
	c-3,2-5.8,4-8.7,5.8c-6,3.8-11.7,3.1-15-1.8c-3.4-5-1.9-10.8,4.1-14.9c47.5-32.7,100.2-48.3,157.6-45.4c77.7,4,141.2,36.9,189.6,98
	c28.9,36.4,46,78,52.1,123.9c6.2,46.7-0.4,91.8-19.1,135c-3.8,8.7-8,17.2-12.6,25.4c-11.3,20.1-35.8,28.3-56.4,19.3
	c-20.8-9.1-32-32.4-24.8-54.2c3.3-10,9.1-19.2,13.3-28.9c35.9-84.5-7.3-185.6-93.2-218.1c-1.4-0.5-2.8-0.9-4.7-1.6
	c-1.6,9.5-3.2,18.6-4.6,27.7c-4.2,25.6-8.2,51.2-12.5,76.7c-0.5,2.8,0,4.5,2.1,6.5c19.8,18,25.9,45.8,15.4,69.6
	c-10.9,24.6-35.3,38.9-62.4,36.4c-25.2-2.3-46.8-21.2-53-46.6c-8-32.5,12.6-65.9,45.3-73.2c3.7-0.8,5.8-2.4,7.3-6.2
	c11.5-31.1,23.4-62.2,35.1-93.2c0.6-1.5,1.1-3.1,1.7-4.8c-32.9-5.7-64.4-2.6-94.6,10.4c-41.2,17.8-71.3,47.3-88.5,88.9
	c-19.2,46.6-17.5,93.1,4.7,138.5c4.4,8.9,9.7,17.4,10.2,27.8c1.1,21.2-11.7,39.9-31.7,45.9c-19.7,5.9-41.1-2.6-51.4-20.9
	C49.4,437.9,38,401.5,35.4,362.3c-0.1-1.6-0.6-3.2-0.9-4.8C34.5,348.2,34.5,338.8,34.5,329.5z M54.7,354.8
	c1,24.8,5.5,48.4,14.3,70.9c4.8,12.2,10.6,24,16.6,35.6c5.1,9.8,13.8,14.3,24.8,13c10.2-1.2,17-7.1,20.3-16.7
	c2.6-7.6,1-14.7-2.9-21.5c-10.3-18.2-17.3-37.7-20.9-58.3c-1.3-7.6-2.1-15.3-3.2-23C87.4,354.8,71.3,354.8,54.7,354.8z M476.3,354.8
	c-1.1,8-1.9,15.6-3.2,23.1c-3.6,20.6-10.6,40-20.9,58.3c-3.8,6.8-5.5,13.9-2.8,21.5c3.4,9.7,10.2,15.6,20.3,16.7
	c11.3,1.3,19.6-3.6,25.1-13.4c13.6-24.1,22.9-49.7,27.5-76.9c1.6-9.6,2.3-19.3,3.4-29.2C508.8,354.8,492.7,354.8,476.3,354.8z
	 M205.2,177.8c12.7-4.5,24.5-9.4,36.8-12.7c12.3-3.3,25-4.8,37.7-7.2c0-15.8,0-32.2,0-48.6c-35,1.6-67.7,10.2-98.7,26.5
	C189.3,150.2,197.4,164.1,205.2,177.8z M489,218.3c-19.2-29.7-43.2-53.6-72.6-72.6c-8.4,14.5-16.5,28.5-24.9,43.1
	c22,14.3,40,32.4,54.4,54.3C460.5,234.7,474.5,226.6,489,218.3z M456.8,259.9c4.5,12.7,9.4,24.5,12.7,36.7c3.3,12.2,5,24.9,7.4,37.7
	c15.7,0,31.9,0,48.3,0c-1.8-34.8-10.2-67.6-26.4-98.7C484.7,243.8,470.6,251.9,456.8,259.9z M124.2,260.4
	c-14.5-8.4-28.5-16.5-42.8-24.7c-16.1,31.2-24.8,63.8-26.5,98.6c16.5,0,32.7,0,49.3,0C105.7,308.3,112.5,283.8,124.2,260.4z
	 M399.2,135.7c-31.2-16.2-63.9-24.9-98.8-26.4c0,16.6,0,33,0,49.4c2.7,0.3,5.2,0.7,7.7,0.9c2.6,0.3,5.3,0.4,7.9,0.9
	c10.9,1.9,10.9,1.9,15.3-8.4c2.6-6.1,7-8.6,12.5-7.2c5.2,1.3,8,6.2,7.1,12.6c-0.5,3.4-1.1,6.8-1.7,10.4c8.6,3.6,16.9,7,25.5,10.6
	C382.7,164.2,390.7,150.3,399.2,135.7z M272,308.6c-13.3,4.5-23.4,21.2-22.8,37.3c0.6,18.5,12.9,33.6,31.2,38.5
	c16.3,4.3,35.3-3.2,44.3-17.6c8.8-14,8.6-33.6-0.8-44.2c-0.6,3.7-1.2,7.1-1.8,10.5c-1.6,8.1-2.2,16.6-5.1,24.3
	c-5.3,14.1-22.6,20.6-37.1,15c-15.5-5.9-23.1-21.3-17.9-36.6C264.9,326.7,268.5,317.9,272,308.6z M314.2,256.7
	c-0.4-0.1-0.7-0.1-1.1-0.2c-10.9,28.8-21.8,57.6-32.5,86.4c-0.7,1.9,0.2,5,1.3,6.9c2.4,3.8,6.2,5.2,10.8,4.2c4.9-1.1,6.5-4.6,7.2-9
	c2.6-16.2,5.3-32.4,7.9-48.6C309.9,283.1,312,269.9,314.2,256.7z"/>
<path d="M289.8,494.7c-18.6,0-37.2,0-55.8,0c-10.7,0-13.8-3.2-13.8-14.1c0-8.6-0.1-17.3,0-25.9c0.1-7.9,3.6-11.8,11.5-11.9
	c38.9-0.1,77.8-0.1,116.6,0c7.9,0,11.5,3.9,11.6,11.8c0.1,9.1,0,18.3,0,27.4c0,9.1-3.5,12.6-12.7,12.6
	C328.1,494.8,309,494.7,289.8,494.7z M339.8,463.2c-33.4,0-66.4,0-99.3,0c0,4,0,7.6,0,11.1c33.3,0,66.2,0,99.3,0
	C339.8,470.5,339.8,467.1,339.8,463.2z"/>
<path d="M304.5,504.7c6.1,0,12.3-0.1,18.4,0c7.4,0.1,11.9,3.9,12,9.8c0.1,5.9-4.4,10-11.7,10.1c-12.6,0.1-25.2,0.1-37.8,0
	c-4.4,0-8.2-1.5-10.2-5.8c-1.7-3.6-1.6-7.6,1.3-10.1c2.4-2.1,6-3.6,9.1-3.9C291.9,504.3,298.2,504.7,304.5,504.7z"/>
<path d="M216.4,226.9c-5.6,0-10.1-4.5-10-10.1c0-5.2,4.6-9.8,9.8-9.8c5.4,0,10,4.7,10,10.2C226.2,222.6,221.9,226.9,216.4,226.9z"/>
<path d="M363.9,226.9c-5.4,0.1-9.8-4.1-10-9.5c-0.2-5.5,4.3-10.3,9.7-10.4c5.2-0.1,9.9,4.3,10.1,9.6
	C373.9,222.2,369.6,226.8,363.9,226.9z"/>
<path d="M152.5,344.6c0,5.4-4.3,9.8-9.7,9.9c-5.3,0.1-10-4.3-10.2-9.6c-0.2-5.4,4.7-10.3,10.1-10.2
	C148.1,334.8,152.5,339.2,152.5,344.6z"/>
<path d="M427.6,344.6c0.1-5.4,4.5-9.8,9.9-9.8c5.3,0,9.9,4.6,10,9.8c0.1,5.4-4.7,10.1-10.2,10C431.8,354.4,427.5,350,427.6,344.6z"
	/>
<path d="M126.3,170.9c0,5.2-4.6,9.8-9.8,9.9c-5.2,0.1-9.9-4.4-10-9.7c-0.1-5.4,4.7-10.3,10.1-10.2
	C121.7,161,126.3,165.7,126.3,170.9z"/>
<path d="M255.1,504.9c5.5,0,9.9,4.2,10,9.6c0.1,5.4-4.1,9.8-9.6,10c-5.7,0.2-10.4-4.3-10.3-9.9C245.2,509.3,249.7,504.9,255.1,504.9
	z"/>
</svg>
