<?xml version="1.0" encoding="utf-8"?>
<!-- Generator: Adobe Illustrator 22.0.0, SVG Export Plug-In . SVG Version: 6.00 Build 0)  -->
<svg version="1.1" id="Capa_1" xmlns="http://www.w3.org/2000/svg" xmlns:xlink="http://www.w3.org/1999/xlink" x="0px" y="0px"
	 viewBox="0 0 512 512" style="enable-background:new 0 0 512 512;" xml:space="preserve">
<g>
	<path d="M256,63.1c106.4,0,192.9,86.5,192.9,192.9c0,34.2-9,67.6-25.9,96.7c-2.1,3.6-0.9,8.2,2.7,10.3s8.2,0.9,10.3-2.7
		c18.3-31.4,27.9-67.4,27.9-104.2c0-114.6-93.3-207.9-207.9-207.9S48.1,141.4,48.1,256c0,46.9,16.2,93,45.5,129.7
		c1.5,1.9,3.7,2.8,5.9,2.8c1.6,0,3.3-0.5,4.7-1.6c3.2-2.6,3.8-7.3,1.2-10.5C77.7,341.8,63.1,300.2,63.1,256
		C63.1,149.6,149.6,63.1,256,63.1L256,63.1z"/>
	<path d="M512,256C512,114.8,397.2,0,256,0S0,114.8,0,256s114.8,256,256,256c4.1,0,7.5-3.4,7.5-7.5v-48.1c0-4.1-3.4-7.5-7.5-7.5
		c-46.6,0-91.5-16.9-126.7-47.5c-3.1-2.7-7.9-2.4-10.6,0.7c-2.7,3.1-2.4,7.9,0.7,10.6c36,31.4,81.5,49.4,129,51.1v33.1
		C119.1,492.9,15,386.4,15,256C15,123.1,123.1,15,256,15s241,108.1,241,241c0,28.8-5,56.8-14.8,83.4c-9.8,26.5-24.1,50.9-42.6,72.6
		c-2.6,3-2.4,7.5,0.5,10.3l11.5,11L382.2,448l11.4-70.1l11.7,11.2c3,2.9,7.7,2.8,10.6-0.2c2.9-3,2.8-7.7-0.2-10.6l-22-21
		c-2-1.9-4.9-2.6-7.6-1.7c-2.6,0.9-4.6,3.2-5,5.9l-15.4,95c-0.4,2.4,0.4,4.9,2.2,6.6c1.8,1.7,4.3,2.4,6.7,1.9l94.2-19.8
		c2.7-0.6,4.9-2.6,5.7-5.3c0.8-2.7,0-5.6-2-7.5l-16.8-16c17.5-21.7,31.2-45.7,40.7-71.7C506.7,316.4,512,286.5,512,256L512,256z"/>
	<path d="M281,247.8c-6.2-2.2-11.8-4.3-16.9-6.3v-79.1c17.3,1.4,27.7,10.6,28.4,11.2c3,2.8,7.8,2.6,10.6-0.4c2.8-3,2.6-7.8-0.4-10.6
		c-0.8-0.7-15.2-13.7-38.5-15.2v-19.6c0-4.1-3.4-7.5-7.5-7.5s-7.5,3.4-7.5,7.5V148c-3.6,0.5-7.3,1.3-11.1,2.5
		c-17.8,5.4-31.2,20.7-34.8,40c-3.3,17.4,2.1,34.1,14.2,43.5c7.7,6.1,17.6,11.6,31.8,17.6v96c-16.1-0.3-25-2.4-41.1-12.9
		c-3.5-2.3-8.1-1.3-10.4,2.2c-2.3,3.5-1.3,8.1,2.2,10.4c19.1,12.5,31,15.1,49.3,15.4v21.7c0,4.1,3.4,7.5,7.5,7.5s7.5-3.4,7.5-7.5
		v-22.1c13.1-1.5,25-6.9,34.7-15.8c10.4-9.5,17.4-22.4,19.7-36.4C323.3,281.9,308.5,257.5,281,247.8L281,247.8z M226.6,222.2
		c-7.6-6-10.9-17-8.7-28.9c2-10.8,9.5-24,24.4-28.4c2.3-0.7,4.6-1.2,6.8-1.6v72C239.4,230.8,232.2,226.6,226.6,222.2L226.6,222.2z
		 M303.8,307.5c-2.9,17.4-16.4,36-39.6,39.5v-89.4c3.7,1.4,7.7,2.8,11.9,4.3C300.7,270.6,306.5,291.2,303.8,307.5L303.8,307.5z"/>
</g>
</svg>
