<?xml version="1.0" encoding="utf-8"?>
<!-- Generator: Adobe Illustrator 22.0.0, SVG Export Plug-In . SVG Version: 6.00 Build 0)  -->
<svg version="1.1" id="Capa_1" xmlns="http://www.w3.org/2000/svg" xmlns:xlink="http://www.w3.org/1999/xlink" x="0px" y="0px"
	 viewBox="0 0 480.6 480.6" style="enable-background:new 0 0 480.6 480.6;" xml:space="preserve">
<style type="text/css">
	.st0{fill:none;stroke:#000000;stroke-width:13;stroke-linecap:round;stroke-linejoin:round;stroke-miterlimit:10;}
	.st1{fill:none;stroke:#000000;stroke-width:13;stroke-miterlimit:10;}
</style>
<path class="st0" d="M230,405c-95,0-172-77-172-172S135,61,230,61s172,77,172,172"/>
<path class="st0" d="M261.6,446.7c-10.3,1.5-20.8,2.3-31.6,2.3c-119.3,0-216-96.7-216-216S110.7,17,230,17s216,96.7,216,216
	c0,9-0.5,17.8-1.6,26.4"/>
<g>
	<g>
		<path d="M320.2,203.2C320.2,203.2,320.2,203.2,320.2,203.2c3.1-3.2,3.1-8.2,0-11.3L236.3,108c-3.1-3.1-8.2-3.1-11.3,0L141,191.9
			c0,0,0,0,0,0c-3.1,3.1-3.1,8.2,0,11.3l22.6,22.5c3.1,3.1,8.2,3.1,11.3,0l31.6-31.6v159.4c0,4.4,3.6,8,8,8h32c4.4,0,8-3.6,8-8
			V194.2l31.7,31.6c3.1,3.1,8.2,3.1,11.3,0L320.2,203.2z M291.9,208.8l-39.6-39.6c-1.5-1.5-3.5-2.3-5.6-2.3c-4.4,0-8,3.6-8,8v170.7
			h-16V174.9c0-2.1-0.8-4.1-2.3-5.6c-3.1-3.1-8.2-3.1-11.3,0l-39.6,39.6L158,197.5l72.6-72.6l72.6,72.6L291.9,208.8z"/>
	</g>
</g>
<circle class="st1" cx="366" cy="360" r="102"/>
<g id="LxooG1_2_">
	<g>
		<path d="M441.2,435.8c-3.8,0-7.6,0-11.6,0c-1.1-20.2-8.5-36.9-24.2-49.4c-11.7-9.3-25.1-14-40.2-13.8
			c-17.2,0.3-31.7,6.8-43.9,18.7c-10.6,10.3-14.4,19.7-18.8,44.5c-3.7,0-7.4,0-11.2,0c0-3,0-6,0-9c0.3-0.6,0.7-1.1,0.8-1.7
			c4.8-27.9,20.2-47.4,46-58.9c1-0.4,1.9-1,3.1-1.6c-1.2-1-2.1-1.8-3-2.5c-25.1-21.4-18.1-61.5,12.7-73.2c3.1-1.2,6.3-2,9.4-3
			c4,0,8,0,12,0c1.4,0.4,2.8,0.9,4.2,1.3c23.3,5.8,37.6,29.4,31.8,52.7c-2.6,10.2-8.3,18.3-17.2,24.8c2.3,1,3.9,1.7,5.5,2.5
			c20.4,9.5,34.2,24.9,41.2,46.3c1.5,4.7,2.4,9.6,3.6,14.4C441.2,430.4,441.2,433.1,441.2,435.8z M366.4,297.6
			c-17.4-0.1-31.8,14-31.8,31.2c0,17.5,14.4,32,31.7,31.9c16.9-0.1,31.6-14.5,31.6-31C397.9,312,383.8,297.7,366.4,297.6z"/>
	</g>
</g>
</svg>
