<?xml version="1.0" encoding="utf-8"?>
<!-- Generator: Adobe Illustrator 22.0.0, SVG Export Plug-In . SVG Version: 6.00 Build 0)  -->
<svg version="1.1" id="Capa_1" xmlns="http://www.w3.org/2000/svg" xmlns:xlink="http://www.w3.org/1999/xlink" x="0px" y="0px"
	 viewBox="0 0 480.6 480.6" style="enable-background:new 0 0 480.6 480.6;" xml:space="preserve">
<style type="text/css">
	.st0{fill:none;stroke:#000000;stroke-width:13;stroke-linecap:round;stroke-linejoin:round;stroke-miterlimit:10;}
	.st1{fill:none;stroke:#000000;stroke-width:13;stroke-miterlimit:10;}
	.st2{font-family:'MyriadPro-Regular';}
	.st3{font-size:204.6761px;}
</style>
<path class="st0" d="M230,405c-95,0-172-77-172-172S135,61,230,61s172,77,172,172"/>
<path class="st0" d="M261.6,446.7c-10.3,1.5-20.8,2.3-31.6,2.3c-119.3,0-216-96.7-216-216S110.7,17,230,17s216,96.7,216,216
	c0,9-0.5,17.8-1.6,26.4"/>
<g>
	<g>
		<path d="M320.2,203.2C320.2,203.2,320.2,203.2,320.2,203.2c3.1-3.2,3.1-8.2,0-11.3L236.3,108c-3.1-3.1-8.2-3.1-11.3,0L141,191.9
			c0,0,0,0,0,0c-3.1,3.1-3.1,8.2,0,11.3l22.6,22.5c3.1,3.1,8.2,3.1,11.3,0l31.6-31.6v159.4c0,4.4,3.6,8,8,8h32c4.4,0,8-3.6,8-8
			V194.2l31.7,31.6c3.1,3.1,8.2,3.1,11.3,0L320.2,203.2z M291.9,208.8l-39.6-39.6c-1.5-1.5-3.5-2.3-5.6-2.3c-4.4,0-8,3.6-8,8v170.7
			h-16V174.9c0-2.1-0.8-4.1-2.3-5.6c-3.1-3.1-8.2-3.1-11.3,0l-39.6,39.6L158,197.5l72.6-72.6l72.6,72.6L291.9,208.8z"/>
	</g>
</g>
<circle class="st1" cx="366" cy="360" r="102"/>
<text transform="matrix(1 0 0 1 327.0767 410.9192)" class="st2 st3">s</text>
</svg>
