<?xml version="1.0" encoding="utf-8"?>
<!-- Generator: Adobe Illustrator 22.0.0, SVG Export Plug-In . SVG Version: 6.00 Build 0)  -->
<svg version="1.1" id="Capa_1" xmlns="http://www.w3.org/2000/svg" xmlns:xlink="http://www.w3.org/1999/xlink" x="0px" y="0px"
	 viewBox="0 0 512 512" style="enable-background:new 0 0 512 512;" xml:space="preserve">
<g>
	<g>
		<path d="M391.3,156.1v-9.8c0-13.2-11-23.9-24.6-23.9h-6.6V45.2c0-14.7-11.5-26.9-26.2-28.5C330.7,7,321.4,0,310.4,0H201.6
			c-11,0-20.3,7-23.5,16.6c-14.7,1.6-26.2,13.8-26.2,28.5v77.3h-6.6c-13.5,0-24.6,10.7-24.6,23.9v9.8c-13.6,3.3-23.8,15.2-23.8,29.4
			v302.9c0,13,10.9,23.6,24.3,23.6h29.5c13.4,0,24.3-10.6,24.3-23.6v-8.6h161.8v8.6c0,13,10.9,23.6,24.3,23.6h29.5
			c13.4,0,24.3-10.6,24.3-23.6V185.5C415.1,171.3,404.9,159.4,391.3,156.1L391.3,156.1z M376.3,146.4v8.9h-51.5v-8.9
			c0-4.9,4.3-8.9,9.6-8.9h32.4C372,137.5,376.3,141.5,376.3,146.4z M166.9,45.2c0-6.5,4.9-12,11.4-13.4c3.3,9.4,12.5,16.1,23.3,16.1
			l37,0h0c4.1,0,7.5-3.4,7.5-7.5c0-4.1-3.4-7.5-7.5-7.5l-37,0c-5.3,0-9.7-4-9.7-9c0-4.9,4.3-8.9,9.6-8.9h108.8
			c5.2,0,9.7,4.1,9.7,8.9c0,4.9-4.4,9-9.7,9l-36.9,0c-4.1,0-7.5,3.4-7.5,7.5c0,4.1,3.4,7.5,7.5,7.5h0l36.9,0
			c10.8,0,19.9-6.8,23.3-16.1c6.5,1.4,11.4,6.8,11.4,13.4v77.3h-10.8c-13.5,0-24.6,10.7-24.6,23.9v8.9H202.2v-8.9
			c0-13.2-11-23.9-24.6-23.9h-10.8L166.9,45.2z M135.7,146.4c0-4.9,4.3-8.9,9.6-8.9h32.3c5.3,0,9.6,4,9.6,8.9v8.9h-51.5V146.4z
			 M111.9,185.5c0-8.4,7.3-15.3,16.3-15.3h66.5h122.6h66.5c9,0,16.3,6.9,16.3,15.3v15.3H271.4c-4.1,0-7.5,3.4-7.5,7.5
			s3.4,7.5,7.5,7.5h128.7v248.9H111.9V215.8h126.6c4.1,0,7.5-3.4,7.5-7.5s-3.4-7.5-7.5-7.5H111.9V185.5z M160.1,488.4
			c0,4.8-4.2,8.6-9.3,8.6h-29.5c-5.1,0-9.3-3.9-9.3-8.6v-8.6h48.1L160.1,488.4L160.1,488.4z M400.1,488.4c0,4.8-4.2,8.6-9.3,8.6
			h-29.5c-5.1,0-9.3-3.9-9.3-8.6v-8.6h48.2L400.1,488.4L400.1,488.4z"/>
		<path d="M204.6,308.7c4.9-3.1,6.4-9.5,3.4-14.5L193,269.5c-1.4-2.4-3.9-4.2-6.6-4.8c-2.7-0.6-5.5-0.2-7.9,1.3l-33.2,20.2
			c-2.4,1.5-4.2,3.9-4.8,6.6c-0.7,2.8-0.2,5.6,1.2,7.9l15.1,24.9c2,3.2,5.4,5,9,5c1.9,0,3.8-0.5,5.5-1.5l33.2-20.3
			C204.5,308.7,204.6,308.7,204.6,308.7L204.6,308.7z M167.3,313.9l-10.5-17.2l25.7-15.7l10.5,17.2L167.3,313.9z"/>
		<path d="M227,353c-2.8,0.6-5.1,2.3-6.6,4.8l-15.1,24.7c-1.5,2.4-1.9,5.3-1.3,8c0.7,2.7,2.3,5,4.7,6.5l33.2,20.5
			c1.7,1.1,3.6,1.6,5.6,1.6c0.8,0,1.7-0.1,2.5-0.3c2.7-0.7,5.1-2.4,6.5-4.7l15.1-24.7c3-5,1.4-11.4-3.6-14.5L235,354.3
			C232.6,352.8,229.8,352.3,227,353z M246.1,402.3l-25.7-15.9l10.4-17.1l25.7,15.9L246.1,402.3z"/>
		<path d="M287.9,343.7l22.3-0.6l16.3,14.3c1.4,1.2,3.1,1.9,4.9,1.9c0.7,0,1.4-0.1,2.1-0.3c2.4-0.7,4.4-2.6,5.1-5l6-19.7l19.3-9.9
			c2.4-1.2,3.9-3.6,4.1-6.3s-1.2-5.2-3.5-6.7l-18.3-11.7l-4.2-20.2c-0.5-2.5-2.3-4.5-4.6-5.5c-2.4-0.9-5-0.6-7.1,0.9l-17.5,12.7
			l-22.2-2.6c-2.6-0.3-5.2,0.8-6.8,2.9c-1.6,2.1-2,4.9-1.1,7.3l7.4,19.2l-9.2,18.4c-1.2,2.4-1,5.2,0.4,7.4
			C282.8,342.4,285.3,343.7,287.9,343.7L287.9,343.7z M305.3,312.1l-4.1-10.7l12.7,1.5c1.9,0.2,3.8-0.3,5.3-1.4l10.6-7.7l2.5,11.9
			c0.4,2,1.6,3.7,3.3,4.8l9.9,6.3l-10.5,5.4c-1.8,0.9-3.1,2.5-3.7,4.5l-3.6,11.6l-9.8-8.6c-1.4-1.2-3.1-1.9-4.9-1.9
			c-0.1,0-0.1,0-0.2,0l-12.8,0.3l5.1-10.2C306,316.3,306.1,314.1,305.3,312.1L305.3,312.1z"/>
	</g>
</g>
</svg>
