<svg width="343" height="247" viewBox="0 0 343 247" fill="none" xmlns="http://www.w3.org/2000/svg">
<path d="M40.8888 147.002C37.936 148.388 36.6332 151.876 37.9491 154.857L51.4367 183.81C52.0993 185.252 53.3082 186.374 54.7949 186.928C55.4463 187.165 56.1371 187.287 56.8317 187.287C57.7008 187.294 58.5587 187.108 59.349 186.75L161.254 139.152L152.024 235.66C151.845 237.56 152.577 239.427 153.998 240.696C158.466 244.394 164.034 246.501 169.827 246.69C171.424 246.688 173.012 246.488 174.561 246.093C182.834 243.935 189.248 236.563 193.624 223.973L233.726 105.226L313.15 68.1775C336.528 57.2692 348.576 35.1503 340.485 17.8859C335.894 8.86224 327.099 2.72385 317.047 1.52057C305.878 -0.165138 294.463 1.59191 284.318 6.55894L192.663 49.5371L94.1182 10.9928C81.7081 6.31866 71.8792 6.4388 64.9862 11.4152C59.2026 16.1607 55.9119 23.294 56.0527 30.7746C56.1127 32.6724 57.0682 34.4276 58.63 35.5126L124.987 81.1282L86.9849 99.1116L23.262 82.9247C20.6508 82.2827 17.9327 83.4597 16.6093 85.8024L0.726417 114.394C-0.0976669 115.909 -0.227193 117.707 0.371629 119.325C0.966697 120.945 2.23192 122.227 3.84442 122.847L51.0199 142.33L40.8888 147.002ZM68.3388 27.7786C68.6917 25.2444 69.9739 22.9374 71.9374 21.3042C75.3558 18.8451 81.5899 19.2055 89.9208 22.3217L177.679 56.5502L137.635 75.2526L68.3388 27.7786ZM14.3923 114.336L24.822 95.8134L86.1439 111.037C87.4655 111.372 88.8602 111.246 90.1029 110.681L289.415 17.5874C297.338 13.6791 306.263 12.2562 315.01 13.5102C321.145 14.0752 326.609 17.6156 329.637 22.9805C334.668 33.7725 324.779 49.5371 308.053 57.3293L238.999 89.7013L243.197 77.2894C244.257 74.0963 242.525 70.646 239.332 69.5873C236.135 68.5285 232.686 70.2612 231.628 73.4543L182.293 220.254C179.355 228.589 175.699 233.565 171.623 234.641C169.099 235.127 166.486 234.631 164.31 233.265L176.299 107.381C176.613 104.071 174.186 101.133 170.872 100.82C167.563 100.503 164.625 102.934 164.31 106.243L162.453 125.484L59.5874 173.439L51.1401 155.455L68.0404 147.545C70.216 146.586 71.6183 144.434 71.6183 142.06C71.6183 139.683 70.216 137.532 68.0404 136.575L14.3923 114.336Z" fill="#FFCD31"/>
</svg>
