<svg width="500" height="500" viewBox="0 0 500 500" fill="none" xmlns="http://www.w3.org/2000/svg">
<path d="M61.5 287.4L183.9 304.3L124.2 391.2C122.8 393.2 122.5 395.7 123.4 397.9C124.2 400.1 126.1 401.8 128.5 402.4L157.7 409.7C160 410.3 162.5 409.7 164.3 408.1L268.3 315.6L326.5 320.9C334 321.6 343.3 321.9 353 321.9C366.8 322 380.6 321.3 394.3 319.8L413.6 317.4C427.1 315.7 440.4 312.1 452.9 306.7L466.8 300.8C473 298.1 477.2 292.2 477.6 285.5C478 278.8 474.6 272.4 468.8 269L426.6 244.4C407.6 233.3 386 227.5 364 227.5H308.9L224.3 131.5C222.9 129.9 220.8 129 218.7 129L188.6 129.5C186.1 129.5 183.9 130.8 182.5 132.9C181.2 135 181 137.6 182 139.8L221.2 227.5H120L85.5 158.5C84.3 156 81.7 154.4 78.9 154.5H49.8C47.7 154.5 45.6 155.4 44.2 157.1C42.8 158.7 42.2 160.9 42.6 163L56.3 245L54.6 245.8C46 250.1 41.2 259.5 42.7 269.1C44.3 278.6 51.9 286 61.5 287.4ZM157.4 394.5L142.1 390.7L214.1 286L273.4 291.4L263.3 300.4L262.3 300.3L262.2 301.4L157.4 394.5ZM199.7 143.7L215.4 143.4L289.2 227.3H237.1L199.7 143.7ZM71.6 248L58.4 168.9H74.5L109 237.9C110.2 240.4 112.8 241.9 115.5 241.9H363.9C382.7 241.9 401.2 246.8 417.6 256L419.9 260.6L413.4 263.9H385.9V278.5H415C416.1 278.5 417.3 278.3 418.3 277.8L432.9 270.5C434.4 269.7 435.5 268.5 436.2 266.9L461.3 281.6C462.4 282.2 463 283.4 462.9 284.6C462.8 285.8 462.1 286.9 460.9 287.4L447 293.3C435.7 298.1 423.8 301.4 411.6 302.9L392.3 305.3C370.8 307.6 349.2 308 327.7 306.4L283.1 302.4L295.6 291.3C297.8 289.4 298.7 286.3 297.8 283.5C296.9 280.7 294.4 278.7 291.4 278.5L211 271.2C208.4 271 205.8 272.2 204.3 274.3L192.9 290.9L63.5 272.9C60.3 272.5 57.7 270 57.2 266.8C56.7 263.6 58.3 260.4 61.2 259L67.7 255.8C70.5 254.3 72.1 251.1 71.6 248Z" fill="#010101"/>
<path d="M137.4 249.2H152V263.8H137.4V249.2Z" fill="#010101"/>
<path d="M166.6 249.2H181.2V263.8H166.6V249.2Z" fill="#010101"/>
<path d="M195.9 249.2H210.5V263.8H195.9V249.2Z" fill="#010101"/>
<path d="M225.1 249.2H239.7V263.8H225.1V249.2Z" fill="#010101"/>
<path d="M254.3 249.2H268.9V263.8H254.3V249.2V249.2Z" fill="#010101"/>
<path d="M283.5 249.2H298.1V263.8H283.5V249.2Z" fill="#010101"/>
<path d="M312.7 249.2H327.3V263.8H312.7V249.2Z" fill="#010101"/>
<path d="M143.346 66.2631C140.546 54.5631 130.846 45.8631 118.946 44.2631C107.046 42.6631 95.3457 48.4631 89.5457 58.8631C82.0457 57.5631 74.4457 60.2631 69.4457 65.9631C56.4457 64.9631 44.8457 73.9631 42.4457 86.6631C40.0457 99.4631 47.5457 111.963 59.9457 115.863C61.1457 116.563 62.4457 116.963 63.8457 116.963H151.546C152.846 116.963 154.146 116.563 155.246 115.863C167.446 112.263 175.146 100.263 173.246 87.6631C171.446 75.0631 160.646 65.7631 147.946 65.7631C146.346 65.8631 144.846 66.0631 143.346 66.2631ZM158.5 92C158.5 97.2 143.7 84.6 144.5 101.5C144.2 101.6 127.3 94.4 127 94.5L125.146 91.4631L103.146 80.4631L66.1457 102.363C65.8457 102.263 78.8 103.5 78.5 103.5C156.5 77.1 111.646 64.4631 112.246 58.8631C112.846 53.2631 61.9457 80.4631 67.5457 80.4631C68.6457 80.4631 83.8457 95.6957 70.6457 80.9631C74.0457 81.9631 110.746 102.363 112.246 99.2631C113.146 97.4631 81.8457 74.0631 83.8457 73.4631C85.8457 72.8631 87.9457 73.1631 89.7457 74.2631C91.7457 75.5631 94.2457 75.7631 96.4457 74.8631C98.6457 73.9631 121.146 83.2631 121.746 80.9631C123.646 73.3631 108.146 71.8631 115.746 73.4631C123.346 75.0631 89.4456 77.5631 88.2456 85.2631C87.6456 88.2631 95.9456 122.363 118.946 106.463C121.546 108.063 122.746 101.163 125.146 99.2631C128.446 96.5631 135.646 107.663 139.446 109.463C143.246 111.263 163.5 100 158.5 92Z" fill="#FFCD31"/>
<path d="M447.346 126.263C444.546 114.563 434.846 105.863 422.946 104.263C411.046 102.663 399.346 108.463 393.546 118.863C386.046 117.563 378.446 120.263 373.446 125.963C360.446 124.963 348.846 133.963 346.446 146.663C344.046 159.463 351.546 171.963 363.946 175.863C365.146 176.563 366.446 176.963 367.846 176.963H455.546C456.846 176.963 458.146 176.563 459.246 175.863C471.446 172.263 479.146 160.263 477.246 147.663C475.446 135.063 464.646 125.763 451.946 125.763C450.346 125.863 448.846 126.063 447.346 126.263ZM462.5 152C462.5 157.2 447.7 144.6 448.5 161.5C448.2 161.6 431.3 154.4 431 154.5L429.146 151.463L407.146 140.463L370.146 162.363C369.846 162.263 382.8 163.5 382.5 163.5C460.5 137.1 415.646 124.463 416.246 118.863C416.846 113.263 365.946 140.463 371.546 140.463C372.646 140.463 387.846 155.696 374.646 140.963C378.046 141.963 414.746 162.363 416.246 159.263C417.146 157.463 385.846 134.063 387.846 133.463C389.846 132.863 391.946 133.163 393.746 134.263C395.746 135.563 398.246 135.763 400.446 134.863C402.646 133.963 425.146 143.263 425.746 140.963C427.646 133.363 412.146 131.863 419.746 133.463C427.346 135.063 393.446 137.563 392.246 145.263C391.646 148.263 399.946 182.363 422.946 166.463C425.546 168.063 426.746 161.163 429.146 159.263C432.446 156.563 439.646 167.663 443.446 169.463C447.246 171.263 467.5 160 462.5 152Z" fill="#FFCD31"/>
<path d="M312.346 405.263C309.546 393.563 299.846 384.863 287.946 383.263C276.046 381.663 264.346 387.463 258.546 397.863C251.046 396.563 243.446 399.263 238.446 404.963C225.446 403.963 213.846 412.963 211.446 425.663C209.046 438.463 216.546 450.963 228.946 454.863C230.146 455.563 231.446 455.963 232.846 455.963H320.546C321.846 455.963 323.146 455.563 324.246 454.863C336.446 451.263 344.146 439.263 342.246 426.663C340.446 414.063 329.646 404.763 316.946 404.763C315.346 404.863 313.846 405.063 312.346 405.263ZM327.5 431C327.5 436.2 312.7 423.6 313.5 440.5C313.2 440.6 296.3 433.4 296 433.5L294.146 430.463L272.146 419.463L235.146 441.363C234.846 441.263 247.8 442.5 247.5 442.5C325.5 416.1 280.646 403.463 281.246 397.863C281.846 392.263 230.946 419.463 236.546 419.463C237.646 419.463 252.846 434.696 239.646 419.963C243.046 420.963 279.746 441.363 281.246 438.263C282.146 436.463 250.846 413.063 252.846 412.463C254.846 411.863 256.946 412.163 258.746 413.263C260.746 414.563 263.246 414.763 265.446 413.863C267.646 412.963 290.146 422.263 290.746 419.963C292.646 412.363 277.146 410.863 284.746 412.463C292.346 414.063 258.446 416.563 257.246 424.263C256.646 427.263 264.946 461.363 287.946 445.463C290.546 447.063 291.746 440.163 294.146 438.263C297.446 435.563 304.646 446.663 308.446 448.463C312.246 450.263 332.5 439 327.5 431Z" fill="#FFCD31"/>
</svg>
