<svg xmlns="http://www.w3.org/2000/svg" viewBox="0 0 36.44 30.46"><defs><style>.cls-1{fill:#a0a1a4;}.cls-2{fill:#fff;}</style></defs><g id="Capa_2" data-name="Capa 2"><g id="Capa_1-2" data-name="Capa 1"><g id="_60KOOu" data-name="60KOOu"><path class="cls-1" d="M9.34,30.42H27.09V4.53H23.94V3.36A3.28,3.28,0,0,0,20.6,0C19,0,17.4,0,15.8,0a3.22,3.22,0,0,0-3.12,2.24,5.08,5.08,0,0,0-.18,1.23c0,.34,0,.68,0,1H9.34ZM7.21,4.54h-4a2.09,2.09,0,0,0-.43,0A3.29,3.29,0,0,0,0,7.9V23.06c0,1.38,0,2.76,0,4.15A3.21,3.21,0,0,0,3,30.4c1.39.08,2.78,0,4.17,0,0,0,0,0,.06,0Zm22,0V30.42l.1,0c1.29,0,2.58,0,3.87,0a3.26,3.26,0,0,0,3.23-3.3V7.8a3.26,3.26,0,0,0-3.2-3.26c-1,0-2,0-3,0Z"/><path class="cls-1" d="M9.34,30.42V4.54h3.15c0-.37,0-.71,0-1a5.08,5.08,0,0,1,.18-1.23A3.22,3.22,0,0,1,15.8,0c1.6,0,3.2,0,4.8,0a3.28,3.28,0,0,1,3.34,3.35V4.53h3.15V30.42ZM14.92,4.51h6.61c0-.45,0-.87,0-1.3a.84.84,0,0,0-.83-.78c-1.65,0-3.3,0-5,0a.83.83,0,0,0-.82.78C14.9,3.64,14.92,4.06,14.92,4.51Z"/><path class="cls-1" d="M7.21,4.54V30.4s0,0-.06,0c-1.39,0-2.78,0-4.17,0a3.21,3.21,0,0,1-3-3.19c0-1.39,0-2.77,0-4.15V7.9A3.29,3.29,0,0,1,2.78,4.57a2.09,2.09,0,0,1,.43,0h4Z"/><path class="cls-1" d="M29.24,4.53h1c1,0,2,0,3,0a3.26,3.26,0,0,1,3.2,3.26V27.13a3.26,3.26,0,0,1-3.23,3.3c-1.29.05-2.58,0-3.87,0l-.1,0Z"/><path class="cls-2" d="M14.92,4.51c0-.45,0-.87,0-1.3a.83.83,0,0,1,.82-.78c1.66,0,3.31,0,5,0a.84.84,0,0,1,.83.78c0,.43,0,.85,0,1.3Z"/></g></g></g></svg>