<svg width="500" height="500" viewBox="0 0 500 500" fill="none" xmlns="http://www.w3.org/2000/svg">
<path d="M385.8 189.9C372.3 189.9 359.3 192.8 347.3 197.6L330.9 165.8V115.3C330.9 112.4 329 109.5 326.1 108.6L287.6 94.2C283.7 92.8 279.9 94.7 278.5 98.5C277.1 102.4 279 106.2 282.8 107.6L317 120.1V161H176V147H193.3C197.2 147 200.5 143.6 200.5 139.8C200.5 136 197.1 132.6 193.3 132.6H148.5C144.6 132.6 141.3 136 141.3 139.8C141.3 143.6 144.7 147 148.5 147H161.5V166.7L147.5 197C136.9 192.7 124.9 190.3 112.8 190.3C59.4001 190.3 15.6001 233.6 15.6001 287.5C15.6001 341.4 58.9001 384.7 112.8 384.7C163.8 384.7 205.7 344.8 209.5 294.7H240.8C243.2 294.7 245.1 293.7 246.6 291.8L322.2 182.6L334.2 205.2C306.8 221.6 288.5 252.4 288.5 287C288.5 340.4 331.8 384.2 385.7 384.2C439.6 384.2 483 341 483 287.1C483 233.2 439.7 189.9 385.8 189.9ZM112.9 369.9C67.2001 369.9 30.1001 332.8 30.1001 287.1C30.1001 241.4 67.2001 204.3 112.9 204.3C123 204.3 132.6 206.2 141.3 209.6L106.2 284.2C106.2 284.2 106.2 284.2 106.2 284.7C105.7 285.7 105.7 286.1 105.7 287.1C105.7 287.1 105.7 287.1 105.7 287.6C105.7 288.6 105.7 289 106.2 290V290.5C106.2 291 106.2 291 106.7 291.5C106.7 292 107.2 292 107.7 292.5C107.7 292.5 107.7 292.5 107.7 293C108.2 293.5 109.1 294 109.6 294.4H110.1C111.1 294.9 111.5 294.9 112.5 294.9H194.8C191.4 336.6 156.2 369.9 112.9 369.9ZM124 279.9L154.3 215.9C176.9 228.9 192.8 252.5 195.2 279.9H124ZM237.1 279.9H209.2C206.8 246.7 187.5 218.3 160.1 202.4L173.1 175H309.3L237.1 279.9ZM385.3 369.9C339.6 369.9 302.5 332.8 302.5 287.1C302.5 257.7 317.9 232.2 341 217.3L379 290.5C380.4 292.9 382.9 294.4 385.3 294.4C386.3 294.4 387.7 293.9 388.7 293.4C392.1 291.5 393.5 287.1 391.6 283.8L353.6 210.6C363.7 206.7 374.3 204.3 385.4 204.3C431.1 204.3 468.2 241.4 468.2 287.1C468.2 332.8 431 369.9 385.3 369.9Z" fill="#39685F"/>
</svg>
