<svg width="500" height="500" viewBox="0 0 500 500" fill="none" xmlns="http://www.w3.org/2000/svg">
<path d="M443.1 126.7H428.7V105H356.5V126.7H327.6V84.9C327.6 72.1 317.2 61.8 304.5 61.8H192C179.2 61.8 168.9 72.2 168.9 84.9V126.7H140V105H67.8V126.7H53.4C41.4 126.7 31.7 136.5 31.7 148.4V408.2C31.7 420.2 41.5 429.9 53.4 429.9H443.1C455.1 429.9 464.8 420.1 464.8 408.2V148.4C464.9 136.4 455.1 126.7 443.1 126.7ZM371 119.5H414.3V126.7H371V119.5ZM183.3 84.9C183.3 80.1 187.2 76.2 192 76.2H304.5C309.3 76.2 313.2 80.1 313.2 84.9V126.7H183.2V84.9H183.3ZM168.9 141.1H327.7H356.6H392.7V415.5H103.9V141.1H140H168.9ZM82.1999 119.5H125.5V126.7H82.1999V119.5ZM46.0999 408.2V148.4C46.0999 144.4 49.4 141.1 53.4 141.1H67.8H89.5V415.5H53.5C49.4 415.5 46.0999 412.2 46.0999 408.2ZM450.4 408.2C450.4 412.2 447.1 415.5 443.1 415.5H407.1V141.1H428.8H443.2C447.2 141.1 450.5 144.4 450.5 148.4V408.2H450.4Z" fill="#010101"/>
</svg>
