<svg xmlns="http://www.w3.org/2000/svg" viewBox="0 0 45.16 39.48"><defs><style>.cls-1{fill:#a0a1a4;}</style></defs><g id="Capa_2" data-name="Capa 2"><g id="Capa_1-2" data-name="Capa 1"><g id="yabBD0"><path class="cls-1" d="M41.93,8.76a13.71,13.71,0,0,1,1.72,3.17,22.77,22.77,0,0,1,1.5,8.6,6.7,6.7,0,0,1-.75,3.08,3,3,0,0,1-2.83,1.7H3.73A3.12,3.12,0,0,1,.44,22.92,10.81,10.81,0,0,1,.08,18.4a22.65,22.65,0,0,1,1.7-7.06c.38-.89.92-1.73,1.39-2.59l.14,0c.1.35.22.69.29,1.05a4.25,4.25,0,0,0,1.82,2.64,15.53,15.53,0,0,0,5.23,2.27,43.35,43.35,0,0,0,9.2,1.32A53.83,53.83,0,0,0,28,15.87a30,30,0,0,0,10-2.36,13.67,13.67,0,0,0,2.43-1.58,4.3,4.3,0,0,0,1.35-2.67,2.77,2.77,0,0,1,.12-.41Z"/><path class="cls-1" d="M21.49,15.36c-.7,0-1.26,0-1.82,0a.72.72,0,0,1-.48-.24,8.94,8.94,0,0,0-3.8-2.53c-3.26-1.42-6.49-2.9-9.74-4.36A.75.75,0,0,1,5.4,6.88L12,.33c.51-.51,1-.43,1.34.23C15,4.36,16.7,8.17,18.42,12a3.92,3.92,0,0,0,.68,1C19.85,13.78,20.64,14.53,21.49,15.36Z"/><path class="cls-1" d="M30.1,26.05a6.73,6.73,0,0,1,3.61.54c3.37,1.59,6.78,3.1,10.2,4.59.84.37.83,1,.28,1.55C42,34.82,39.94,37,37.82,39.07c-.63.63-1.1.54-1.46-.28-1.63-3.61-3.28-7.22-4.87-10.85A5,5,0,0,0,30.1,26.05Z"/></g></g></g></svg>