<svg width="437" height="437" viewBox="0 0 437 437" fill="none" xmlns="http://www.w3.org/2000/svg">
<path d="M396.534 191.581V158.369C396.534 147.706 387.881 139.141 377.306 139.141H368.478L348.202 98.4998C344.968 91.9448 338.238 87.837 330.984 87.837H231.435C224.094 87.837 217.451 91.9448 214.217 98.4998L193.941 139.141H159.418C148.755 139.141 140.19 147.793 140.19 158.369V191.581C132.498 194.29 127.429 201.544 127.342 209.673C127.342 220.335 135.994 228.901 146.57 228.901H167.109C171.391 244.021 185.288 254.509 201.02 254.509C216.752 254.509 230.649 244.021 234.931 228.901H308.172C312.455 244.021 326.352 254.509 342.084 254.509C357.816 254.509 371.712 244.021 375.995 228.901H390.154C400.816 228.901 409.382 220.248 409.382 209.673C409.382 201.457 404.225 194.29 396.534 191.581ZM383.773 158.369V190.445H362.273C350.212 181.879 333.955 181.879 321.894 190.445H287.633V171.217C287.633 167.633 284.749 164.836 281.253 164.836C277.757 164.836 274.873 167.721 274.873 171.217V190.445H221.384C209.323 181.879 193.067 181.879 181.005 190.445H152.95V177.597H165.798C176.461 177.597 185.026 168.944 185.026 158.369V151.989H377.306C380.889 151.901 383.773 154.785 383.773 158.369ZM232.397 203.205H310.707C308.522 207.138 307.211 211.508 306.774 216.053H236.242C235.893 211.508 234.582 207.225 232.397 203.205ZM336.665 104.181L354.057 139.141H287.546V100.685H330.896C333.344 100.685 335.616 101.996 336.665 104.181ZM225.667 104.181C226.803 101.996 228.988 100.597 231.435 100.685H274.786V139.141H208.274L225.667 104.181ZM159.418 151.901H172.178V158.281C172.178 161.865 169.294 164.662 165.798 164.662H152.95V158.281C152.95 154.785 155.834 151.901 159.418 151.901ZM140.19 209.585C140.19 207.837 140.889 206.264 142.2 205.04C143.336 203.817 144.997 203.118 146.657 203.205H169.818C167.633 207.138 166.322 211.508 165.885 216.053H146.657C143.074 216.053 140.19 213.169 140.19 209.585ZM201.02 241.661C191.93 241.661 183.802 236.155 180.306 227.852C176.81 219.461 178.733 209.847 185.201 203.38C191.581 197 201.282 195.077 209.673 198.485C218.063 201.981 223.482 210.11 223.482 219.199C223.482 231.61 213.431 241.661 201.02 241.661ZM342.084 241.661C329.673 241.661 319.622 231.61 319.622 219.199C319.622 206.788 329.673 196.737 342.084 196.737C354.494 196.737 364.545 206.788 364.545 219.199C364.545 231.61 354.494 241.661 342.084 241.661ZM394.611 214.217C393.475 215.441 391.814 216.14 390.154 216.053H377.306C376.956 211.595 375.645 207.225 373.548 203.205H390.066C393.65 203.205 396.446 206.089 396.446 209.585C396.534 211.333 395.835 212.994 394.611 214.217Z" fill="#010101"/>
<path d="M236.329 177.597H249.09C252.673 177.597 255.47 174.713 255.47 171.217C255.47 167.721 252.586 164.836 249.09 164.836H236.242C232.659 164.836 229.862 167.721 229.862 171.217C229.862 174.713 232.746 177.597 236.329 177.597Z" fill="#FFCD31"/>
<path d="M306.861 177.597H319.709C323.292 177.597 326.089 174.713 326.089 171.217C326.089 167.721 323.205 164.836 319.709 164.836H306.861C303.278 164.836 300.481 167.721 300.481 171.217C300.481 174.713 303.278 177.597 306.861 177.597Z" fill="#FFCD31"/>
<path d="M377.743 278.107L259.054 317.699C256.956 318.398 254.858 318.748 252.673 318.66H249.09C252.149 310.27 251.275 301.006 246.73 293.402L246.118 292.44C239.214 280.904 226.803 273.824 213.343 273.824H179.782C167.983 273.824 156.446 269.804 147.182 262.375C135.645 253.198 121.399 248.129 106.628 248.129H93.7801C91.0707 240.525 83.9039 235.368 75.8631 235.281H44.0495C33.3867 235.281 24.8215 243.933 24.8215 254.509V389.105C24.8215 399.768 33.4741 408.333 44.0495 408.333H76.0379C81.4567 408.333 86.6133 405.973 90.2841 401.953H251.013C260.452 401.953 269.629 399.418 277.67 394.436L397.757 321.282C403.526 317.786 407.546 312.018 408.857 305.376C410.518 296.985 407.546 288.42 401.166 282.739C394.786 277.145 385.871 275.397 377.743 278.107ZM76.0379 395.485H44.0495C40.4661 395.485 37.6693 392.601 37.6693 389.105V254.509C37.6693 250.925 40.5535 248.129 44.0495 248.129H76.0379C79.6213 248.129 82.4181 251.013 82.4181 254.509V389.105C82.5055 392.601 79.6213 395.485 76.0379 395.485ZM396.534 302.928C395.922 306.075 394.087 308.697 391.377 310.357L271.027 383.511C264.997 387.182 258.092 389.105 251.013 389.105H95.2659V260.889H106.803C118.602 260.889 130.139 264.909 139.403 272.338C150.94 281.515 165.186 286.585 179.957 286.585H213.518C222.52 286.585 230.911 291.304 235.543 298.995L236.155 299.957C239.651 305.813 239.301 313.154 235.193 318.573H196.3C183.627 318.573 171.217 322.331 160.729 329.323L156.009 332.47C153.474 334.567 152.863 338.238 154.698 341.035C156.533 343.832 160.117 344.706 163.088 343.132L167.808 339.986C176.198 334.392 186.162 331.421 196.3 331.421H253.198C256.606 331.421 260.102 330.809 263.336 329.76L381.851 290.168C386.395 288.682 391.465 290.255 394.261 294.101C396.272 296.636 397.146 299.869 396.534 302.928Z" fill="#010101"/>
<path d="M120.961 112.134V95.4408C132.848 88.5362 140.189 75.8632 140.189 62.1414V42.9134C140.189 32.2506 131.537 23.6854 120.961 23.6854H69.6577C58.9949 23.6854 50.4297 32.338 50.4297 42.9134V62.1414C50.4297 75.8632 57.7713 88.5362 69.6577 95.4408V179.694C69.6577 182.491 70.5317 185.201 72.1923 187.386L85.0401 204.516C87.4873 207.75 91.2455 209.673 95.2659 209.673C99.2863 209.673 103.132 207.75 105.492 204.516L118.339 187.386C120 185.201 120.874 182.491 120.874 179.694V166.147C120.874 163.613 119.825 161.166 118.077 159.33L110.736 151.989L116.766 145.958C118.602 144.123 119.563 141.675 119.563 139.141C119.563 136.606 118.514 134.159 116.766 132.324L110.736 126.293L118.077 118.951C119.913 117.116 120.961 114.669 120.961 112.134ZM63.2775 43.0008C63.2775 39.4174 66.1617 36.6206 69.6577 36.6206H120.961C124.545 36.6206 127.342 39.5048 127.342 43.0008V62.2288C127.342 76.3876 115.892 87.837 101.733 87.837H88.8857C74.7269 87.837 63.2775 76.3876 63.2775 62.2288V43.0008V43.0008ZM99.4611 133.11L105.492 139.141L99.4611 145.171C97.6257 147.007 96.6643 149.454 96.6643 151.989C96.6643 154.523 97.7131 156.97 99.4611 158.806L108.114 167.458V179.782L95.2659 196.825L82.4181 179.694V100.073C84.5157 100.423 86.7007 100.597 88.7983 100.685H101.646C103.831 100.685 105.929 100.423 108.026 100.073V110.823L99.3737 119.476C97.5383 121.311 96.5769 123.758 96.5769 126.293C96.6643 128.828 97.6257 131.275 99.4611 133.11Z" fill="#010101"/>
<path d="M88.8858 62.2288H101.734C105.317 62.2288 108.114 59.3446 108.114 55.8486C108.114 52.3526 105.23 49.4684 101.734 49.4684H88.8858C85.3024 49.4684 82.5056 52.3526 82.5056 55.8486C82.5056 59.3446 85.3898 62.2288 88.8858 62.2288Z" fill="#FFCD31"/>
</svg>
