<svg width="343" height="343" viewBox="0 0 343 343" fill="none" xmlns="http://www.w3.org/2000/svg">
<g clip-path="url(#clip0)">
<path d="M171.5 0C116.334 0 71.4583 44.8758 71.4583 100.042C71.4583 155.208 116.334 200.083 171.5 200.083C226.666 200.083 271.542 155.208 271.542 100.042C271.542 44.8758 226.666 0 171.5 0ZM225.622 96.5688L206.171 116.506L210.788 144.775C211.445 148.819 209.744 152.892 206.372 155.265C204.542 156.551 202.37 157.208 200.212 157.208C198.425 157.208 196.639 156.765 195.024 155.865L171.5 142.874L147.976 155.879C144.389 157.866 139.958 157.637 136.614 155.265C133.255 152.892 131.555 148.819 132.198 144.775L136.814 116.506L117.377 96.5688C114.576 93.6962 113.604 89.4801 114.891 85.6785C116.163 81.8627 119.45 79.1044 123.437 78.4898L149.891 74.4453L161.81 49.049C165.326 41.5173 177.688 41.5173 181.204 49.049L193.123 74.4453L219.577 78.4898C223.55 79.0901 226.852 81.8627 228.124 85.6785C229.395 89.4801 228.424 93.6962 225.622 96.5688V96.5688Z" fill="#DF395D"/>
<path d="M85.1783 185.506L29.8696 284.833C28.0117 288.263 28.1546 292.55 30.2983 295.838C32.4421 299.125 36.1579 301.125 40.1596 300.697L84.1779 297.41L103.615 336.998C105.473 340.57 109.045 342.857 112.904 343H113.19C117.049 343 120.765 340.856 122.623 337.569L158.638 273.543L123.623 211.66C109.188 205.514 96.1829 196.51 85.1783 185.506V185.506Z" fill="#DF395D"/>
<path d="M312.987 284.833L257.25 186.078C239.1 204.228 215.232 216.519 188.65 220.235C183.076 221.092 177.36 221.521 171.5 221.521C165.212 221.521 159.066 221.092 153.064 220.092L170.928 251.676L219.377 337.569C221.235 340.856 224.808 343 228.667 343H228.952C232.954 342.857 236.527 340.57 238.385 336.998L257.965 297.41L302.84 300.84C306.842 301.125 310.558 299.268 312.702 295.838C314.845 292.55 314.988 288.263 312.987 284.833V284.833Z" fill="#DF395D"/>
</g>
<defs>
<clipPath id="clip0">
<rect width="343" height="343" fill="white"/>
</clipPath>
</defs>
</svg>
