<svg width="500" height="500" viewBox="0 0 500 500" fill="none" xmlns="http://www.w3.org/2000/svg">
<path d="M321.8 315.9C311.7 315.9 303.4 308.8 303.4 300C303.4 291.2 311.6 284.1 321.8 284.1C331.9 284.1 340.2 291.2 340.2 300C340.2 304.6 343.9 308.4 348.6 308.4C353.2 308.4 357 304.7 357 300C357 284.7 345.6 271.8 330.3 268.3V264C330.3 259.4 326.6 255.6 321.9 255.6C317.3 255.6 313.5 259.3 313.5 264V268.3C298.2 271.8 286.8 284.7 286.8 300C286.8 318 302.5 332.6 321.9 332.6C332 332.6 340.3 339.7 340.3 348.5C340.3 357.3 332.1 364.4 321.9 364.4C311.8 364.4 303.5 357.3 303.5 348.5C303.5 343.9 299.8 340.1 295.1 340.1C290.5 340.1 286.7 343.8 286.7 348.5C286.7 363.8 298.1 376.7 313.4 380.2V383.8C313.4 388.4 317.1 392.2 321.8 392.2C326.4 392.2 330.2 388.5 330.2 383.8V380.2C345.5 376.7 356.9 363.8 356.9 348.5C357 330.6 341.2 315.9 321.8 315.9Z" fill="#FFCD31"/>
<path d="M413.4 266.2C402.5 249.2 387.1 235.6 368.9 226.8C364.7 224.8 359.7 226.6 357.7 230.7C355.7 234.9 357.5 239.9 361.6 241.9C393.3 257.1 413.8 289.7 413.8 324.8C413.8 339.8 410.1 354.7 403.1 367.9C400.9 372 402.5 377 406.6 379.2C407.9 379.9 409.2 380.2 410.5 380.2C413.5 380.2 416.4 378.6 417.9 375.8C426.2 360.2 430.6 342.6 430.6 324.8C430.5 304 424.6 283.7 413.4 266.2Z" fill="#FFCD31"/>
<path d="M335 216.2H334.4C329.8 216.2 326 219.9 326 224.6C326 229.2 329.7 233 334.4 233H334.9C339.5 233 343.2 229.3 343.3 224.7C343.3 220 339.6 216.2 335 216.2Z" fill="#FFCD31"/>
<path d="M282.1 407.8C250.4 392.6 229.9 360 229.9 324.9C229.9 309.9 233.6 295 240.6 281.8C242.8 277.7 241.2 272.7 237.1 270.5C233 268.3 228 269.9 225.8 274C217.5 289.6 213.1 307.2 213.1 325C213.1 345.9 219 366.1 230.3 383.6C241.2 400.6 256.6 414.2 274.8 423C276 423.6 277.2 423.8 278.4 423.8C281.5 423.8 284.5 422.1 285.9 419.1C288 414.8 286.3 409.8 282.1 407.8Z" fill="#FFCD31"/>
<path d="M309.3 416.8H308.8C304.2 416.8 300.4 420.5 300.4 425.1C300.4 429.7 304.1 433.5 308.7 433.5H309.3C313.9 433.5 317.7 429.8 317.7 425.1C317.7 420.5 314 416.8 309.3 416.8Z" fill="#FFCD31"/>
<path d="M359.8 187.9C358.8 185.5 357.5 183.2 356.1 181.1H377.9C399.1 181.1 416.4 163.9 416.4 142.6C416.4 121.3 399.2 104.1 377.9 104.1H311C315.3 97.9 317.8 90.4 317.8 82.4C317.8 61.2 300.6 43.9 279.3 43.9H74.5C53.3 44 36 61.2 36 82.4C36 103.6 53.2 120.9 74.5 120.9H141.4C137.1 127.1 134.6 134.6 134.6 142.6C134.6 150.7 137.1 158.1 141.4 164.3H119.6C98.4 164.3 81.1 181.5 81.1 202.8C81.1 215 86.8 225.8 95.7 232.9C86.8 239.9 81.1 250.8 81.1 263C81.1 275.2 86.8 286 95.7 293.1C86.8 300.1 81.1 311 81.1 323.2C81.1 335.4 86.8 346.2 95.7 353.3C86.8 360.3 81.1 371.2 81.1 383.4C81.1 404.6 98.3 421.9 119.6 421.9H218.1C244.1 449.7 281 467 321.9 467C400.3 467 464 403.3 464 324.9C464 259.6 419.8 204.5 359.8 187.9ZM377.9 120.9C389.9 120.9 399.6 130.6 399.6 142.6C399.6 154.6 389.9 164.3 377.9 164.3H324.4H173.1C161.1 164.3 151.4 154.6 151.4 142.6C151.4 130.6 161.1 120.9 173.1 120.9H377.9V120.9ZM74.5 104.2C62.5 104.2 52.8 94.5 52.8 82.5C52.8 70.5 62.5 60.8 74.5 60.8H279.3C291.3 60.8 301 70.5 301 82.5C301 94.5 291.3 104.2 279.3 104.2H74.5ZM119.6 181.1H324.4C327.8 181.1 331 181.9 333.9 183.3C329.9 183 325.9 182.8 321.9 182.8C282.7 182.8 247.1 198.8 221.3 224.6H119.6C107.6 224.6 97.9 214.9 97.9 202.9C97.9 190.9 107.6 181.1 119.6 181.1ZM119.6 241.3H207C197.5 254.3 190.2 269 185.5 284.8H119.5C107.5 284.8 97.8 275.1 97.8 263.1C97.9 251 107.6 241.3 119.6 241.3ZM119.6 301.4H181.7C180.4 309 179.8 316.8 179.8 324.8C179.8 331.6 180.3 338.3 181.2 344.9H119.6C107.6 344.9 97.9 335.2 97.9 323.2C97.9 311.2 107.6 301.4 119.6 301.4ZM119.6 405.1C107.6 405.1 97.9 395.4 97.9 383.4C97.9 371.4 107.6 361.7 119.6 361.7H184.6C188.8 377.4 195.7 392.1 204.7 405.2H119.6V405.1ZM321.9 450.2C252.8 450.2 196.5 394 196.5 324.8C196.5 255.6 252.7 199.4 321.9 199.4C391.1 199.4 447.3 255.6 447.3 324.8C447.3 394 391 450.2 321.9 450.2Z" fill="#FFCD31"/>
</svg>
