<?xml version="1.0" encoding="UTF-8" standalone="no"?><!-- Generator: Gravit.io --><svg xmlns="http://www.w3.org/2000/svg" xmlns:xlink="http://www.w3.org/1999/xlink" style="isolation:isolate" viewBox="139.516 373.574 187.514 109.115" width="187.514pt" height="109.115pt"><g><path d=" M 309.741 428.129 C 309.741 448.715 293.054 465.4 272.473 465.4 L 194.075 465.4 C 173.493 465.4 156.805 448.715 156.805 428.129 C 156.805 407.548 173.493 390.863 194.075 390.863 L 272.473 390.863 C 293.054 390.863 309.741 407.548 309.741 428.129 Z " fill="rgb(113,114,117)"/><path d=" M 309.741 428.129 C 309.741 448.715 293.054 465.4 272.473 465.4 L 194.075 465.4 C 173.493 465.4 156.805 448.715 156.805 428.129 C 156.805 407.548 173.493 390.863 194.075 390.863 L 272.473 390.863 C 293.054 390.863 309.741 407.548 309.741 428.129 Z " fill="none" vector-effect="non-scaling-stroke" stroke-width="11.526" stroke="rgb(113,114,117)" stroke-linejoin="miter" stroke-linecap="square" stroke-miterlimit="3"/><path d=" M 231.778 427.435 L 231.878 430.454 C 231.878 436.717 230.251 442.66 227.008 448.272 C 223.762 453.888 219.559 458.172 214.397 461.123 C 209.235 464.078 203.186 465.553 196.239 465.553 C 188.805 465.553 182.174 463.941 176.354 460.708 C 170.524 457.482 165.919 452.878 162.528 446.91 C 159.133 440.94 157.44 434.496 157.44 427.582 C 157.44 418.106 160.571 409.86 166.835 402.85 C 174.268 394.51 183.94 390.339 195.85 390.339 C 202.079 390.339 207.907 391.495 213.329 393.796 C 217.905 395.742 222.383 399.085 226.76 403.825 L 217.163 413.319 C 211.091 406.891 204.008 403.678 195.921 403.678 C 188.87 403.678 182.969 406.016 178.21 410.689 C 173.45 415.362 171.071 421.041 171.071 427.727 C 171.071 434.64 173.538 440.5 178.477 445.303 C 183.417 450.107 189.51 452.506 196.753 452.506 C 201.466 452.506 205.436 451.518 208.669 449.538 C 211.903 447.557 214.507 444.457 216.491 440.24 C 216.491 440.24 218.637 436.395 218.342 432.36" fill="rgb(255,255,255)"/><path d=" M 196.239 467.284 C 188.546 467.284 181.577 465.582 175.514 462.222 C 169.432 458.852 164.555 453.987 161.022 447.763 C 157.497 441.556 155.71 434.766 155.71 427.583 C 155.71 417.712 159.018 409.003 165.55 401.7 C 173.286 393.016 183.481 388.611 195.85 388.611 C 202.286 388.611 208.393 389.82 214.003 392.207 C 218.786 394.24 223.507 397.755 228.034 402.651 C 228.667 403.337 228.645 404.398 227.979 405.055 L 218.382 414.548 C 218.051 414.874 217.602 415.064 217.135 415.046 C 216.671 415.037 216.229 414.845 215.907 414.506 C 210.12 408.384 203.585 405.407 195.921 405.407 C 189.282 405.407 183.885 407.54 179.421 411.923 C 174.964 416.298 172.8 421.468 172.8 427.727 C 172.8 434.216 175.053 439.557 179.684 444.064 C 184.331 448.581 189.913 450.78 196.753 450.78 C 201.12 450.78 204.827 449.863 207.764 448.065 C 210.692 446.275 213.102 443.394 214.926 439.506 C 214.946 439.468 214.962 439.431 214.985 439.397 C 215.001 439.366 216.872 435.934 216.62 432.486 C 216.55 431.533 217.264 430.707 218.216 430.636 C 219.163 430.564 219.999 431.283 220.069 432.233 C 220.382 436.497 218.333 440.469 218.034 441.022 C 215.917 445.512 213.069 448.871 209.575 451.013 C 206.079 453.151 201.768 454.236 196.753 454.236 C 189.077 454.236 182.524 451.647 177.274 446.544 C 172.01 441.424 169.343 435.095 169.343 427.727 C 169.343 420.594 171.917 414.446 176.999 409.456 C 182.069 404.473 188.436 401.949 195.921 401.949 C 203.919 401.949 211.061 404.951 217.18 410.874 L 224.341 403.788 C 220.509 399.886 216.581 397.061 212.649 395.388 C 207.466 393.185 201.819 392.069 195.85 392.069 C 184.51 392.069 175.182 396.084 168.126 404.001 C 162.184 410.653 159.169 418.587 159.169 427.583 C 159.169 434.16 160.803 440.376 164.03 446.055 C 167.245 451.721 171.675 456.141 177.19 459.197 C 182.731 462.27 189.141 463.825 196.239 463.825 C 202.848 463.825 208.669 462.413 213.542 459.624 C 218.407 456.84 222.436 452.729 225.51 447.408 C 228.583 442.092 230.139 436.399 230.147 430.482 L 230.048 427.493 C 230.02 426.536 230.768 425.742 231.723 425.709 C 232.682 425.687 233.473 426.427 233.509 427.38 L 233.6 430.398 C 233.606 430.419 233.606 430.436 233.606 430.454 C 233.606 436.997 231.889 443.283 228.507 449.138 C 225.118 454.995 220.663 459.532 215.257 462.623 C 209.856 465.718 203.456 467.284 196.239 467.284 Z " fill="rgb(255,255,255)"/><path d=" M 272.2 390.5 C 282.333 390.5 291.046 394.169 298.337 401.505 C 305.626 408.839 309.27 417.781 309.27 428.327 C 309.27 438.779 305.675 447.623 298.479 454.858 C 291.288 462.099 282.561 465.717 272.3 465.717 C 261.548 465.717 252.618 462.002 245.503 454.568 C 238.391 447.138 234.837 438.309 234.837 428.086 C 234.837 421.236 236.493 414.939 239.805 409.196 C 243.118 403.45 247.673 398.9 253.471 395.539 C 259.264 392.18 265.509 390.5 272.2 390.5 Z " fill="rgb(255,255,255)"/><path d=" M 272.2 392.229 C 265.85 392.229 259.837 393.849 254.339 397.036 C 248.831 400.225 244.446 404.608 241.302 410.061 C 238.159 415.51 236.563 421.577 236.563 428.086 C 236.563 437.801 239.993 446.311 246.755 453.374 C 253.495 460.417 262.089 463.988 272.3 463.988 C 282.034 463.988 290.432 460.508 297.255 453.64 C 304.081 446.774 307.544 438.258 307.544 428.328 C 307.544 418.305 304.032 409.69 297.108 402.724 C 290.188 395.762 281.809 392.229 272.2 392.229 Z  M 272.3 467.446 C 261.108 467.446 251.675 463.515 244.257 455.764 C 236.86 448.034 233.102 438.721 233.102 428.086 C 233.102 420.962 234.856 414.315 238.305 408.333 C 241.757 402.35 246.567 397.541 252.602 394.045 C 258.637 390.547 265.233 388.776 272.2 388.776 C 282.763 388.776 291.968 392.646 299.563 400.286 C 307.157 407.922 311.001 417.356 311.001 428.328 C 311.001 439.206 307.202 448.542 299.708 456.081 C 292.212 463.624 282.991 467.446 272.3 467.446 Z " fill="rgb(255,255,255)"/><path d=" M 269.489 434.707 L 196.52 434.707 L 196.52 421.838 L 269.489 421.838 L 269.489 434.707 Z " fill="rgb(171,207,55)"/><path d=" M 267.696 413.753 L 267.696 442.981 L 284.098 428.111 L 267.696 413.236" fill="rgb(171,207,55)"/></g></svg>