<svg xmlns="http://www.w3.org/2000/svg" viewBox="0 0 45.95 27.31"><defs><style>.cls-1{fill:#a0a1a4;}</style></defs><g id="Capa_2" data-name="Capa 2"><g id="Capa_1-2" data-name="Capa 1"><g id="akkSLS"><path class="cls-1" d="M0,17.59c.09-.38.16-.76.26-1.13A8.63,8.63,0,0,1,7,9.94a9.11,9.11,0,0,1,4.38.2,2.68,2.68,0,0,0,.18-.28C12,9,12.38,8.2,12.81,7.39a.52.52,0,0,0,0-.65,1.41,1.41,0,0,1-.21-.35,1,1,0,0,0-.93-.71,1.29,1.29,0,0,1-1.06-1.36A1.36,1.36,0,0,1,11.66,3a2.56,2.56,0,0,1,.62-.07h2.78a1.6,1.6,0,0,1,1.58.73,1.48,1.48,0,0,1-.22,1.75l.28,0L29,5.22a.57.57,0,0,0,.37-.16c.46-.7.89-1.41,1.39-2.2h-3.5a1.46,1.46,0,0,1-1.62-1.43A1.45,1.45,0,0,1,27.19,0h5.52a1.43,1.43,0,0,1,1.37,2.17.86.86,0,0,0,0,.55c.63,2.22,1.29,4.44,1.92,6.66a.48.48,0,0,0,.59.42,8.55,8.55,0,0,1,6.53,2.28,8.72,8.72,0,0,1,.13,12.74,8.34,8.34,0,0,1-8.67,2,8.4,8.4,0,0,1-6-6.66A8.72,8.72,0,0,1,32.78,11l.62-.36L32.07,6.07c-.13.2-.22.33-.3.47-2.75,4.37-5.51,8.74-8.24,13.13a2,2,0,0,1-2.09,1c-1.25-.13-2.51-.15-3.76-.24-.29,0-.4.09-.48.37a8.75,8.75,0,0,1-17.1-1c0-.13-.07-.25-.1-.38Zm34.23-4.15a5.9,5.9,0,1,0,8.63,3.41A5.72,5.72,0,0,0,37,12.68c.05.15.09.31.13.47.47,1.62,1,3.23,1.41,4.85a1.42,1.42,0,1,1-2.72.8c-.12-.39-.23-.78-.34-1.16C35.05,16.25,34.65,14.87,34.23,13.44Zm-24.17-.65a5.89,5.89,0,1,0-2,11.59,5.7,5.7,0,0,0,6.24-4.1l-.27,0c-1.76-.11-3.52-.2-5.28-.33a1.42,1.42,0,0,1-1.22-2.19l1.06-2.07C9.09,14.71,9.57,13.75,10.06,12.79ZM27.41,8.11,17,8.26l5.05,8.32Zm-8,9.6L14.71,9.92l-.77,1.54a8.85,8.85,0,0,1,3.54,6.12Zm-6.83-3.65L11,17.22l3.53.2A5.83,5.83,0,0,0,12.61,14.06Z"/></g></g></g></svg>