<svg width="343" height="291" viewBox="0 0 343 291" fill="none" xmlns="http://www.w3.org/2000/svg">
<path d="M261.324 51.2588C266.541 51.2588 270.77 47.03 270.77 41.8134C270.77 36.5968 266.541 32.3679 261.324 32.3679C256.108 32.3679 251.879 36.5968 251.879 41.8134C251.879 47.03 256.108 51.2588 261.324 51.2588Z" fill="#FFCD31"/>
<path d="M330.388 38.6649C315.802 38.6649 303.281 39.6913 291.188 27.5987L275.538 11.9492C268.451 4.86353 258.843 0.883057 248.822 0.883057H204.885H204.62C194.581 0.883057 184.955 4.86117 177.843 11.9484L177.612 12.1783L148.132 41.6575C141.986 47.8034 138.533 56.1398 138.533 64.832V74.7261C138.533 92.6551 152.763 111.149 170.498 113.794C172.466 114.087 174.406 114.229 176.315 114.229V116.744C145.279 134.631 81.5993 170.7 68.9904 183.214C58.3792 193.829 50.3758 210.612 50.3758 227.574C50.3758 235.145 51.366 242.846 55.7683 252.857L18.8909 252.762C8.45841 252.762 0 261.22 0 271.653C0 282.085 8.45841 290.544 18.8909 290.544H176.128C185.484 290.544 191.969 280.497 187.446 272.308C183.418 265.017 177.054 259.202 169.363 255.865C173.689 247.273 176.201 240.162 187.052 240.162H201.503V277.95C201.503 284.905 207.142 290.544 214.097 290.544H260.952C270.61 290.544 276.851 280.01 271.975 271.671C266.17 261.738 255.919 254.723 243.949 253.232L246.749 230.826C261.889 221.533 273.044 206.093 276.113 188.219C280.405 163.208 269.758 140.62 251.878 127.108V101.634H289.66C303.515 101.634 320.68 91.9137 327.808 80.0336C330.812 75.0291 343.031 56.8804 343 51.214C342.966 44.6714 337.73 38.6649 330.388 38.6649ZM176.26 101.5C160.862 101.5 151.127 88.4566 151.127 75.0464V64.8351C151.127 59.6 153.126 54.4734 157.037 50.5638L186.517 21.0853C190.474 17.1292 195.785 14.4963 201.503 13.795V76.4467C201.503 89.9183 190.655 101.5 176.26 101.5ZM18.8909 277.95C15.4197 277.95 12.5939 275.125 12.5939 271.653C12.5939 268.181 15.4197 265.356 18.8571 265.356C64.4645 265.474 53.1551 265.444 63.3719 265.471C68.0364 271.596 68.7952 272.632 75.9383 277.95H18.8909ZM317.01 73.5548C311.899 82.0715 299.591 89.0407 289.661 89.0407H257.539C249.342 89.0407 242.418 83.7606 239.808 76.4467H226.691C228.302 84.3549 232.951 91.1092 239.285 95.6572V133.377C257.426 147.09 267.713 162.71 263.701 186.089C260.513 204.653 249.283 214.494 235.005 223.258C231.979 247.463 231.063 254.782 229.888 264.174C242.59 265.755 254.031 265.779 260.952 277.951C234.617 277.951 240.373 277.951 214.097 277.951C214.097 247.758 214.097 245.324 214.097 214.981H201.503V227.569C198.167 227.569 195.513 227.569 187.052 227.569C183.166 227.569 179.541 228.6 176.103 230.052C176.721 212.938 170.529 195.71 157.867 183.047L148.963 191.951C167.635 210.633 166.492 237.961 155.85 254.632L152.074 262.096C161.871 266.344 171.26 268.997 176.127 277.951H113.308C85.4042 277.925 63.368 255.45 63.0366 228.253C62.769 213.186 69.6044 197.6 83.4404 187.294C97.3016 176.969 173.933 132.652 188.909 124.022C188.909 120.597 188.915 115.172 188.9 111.918C203.545 106.715 214.097 92.8763 214.097 76.4467V13.477H248.826C255.507 13.477 261.911 16.1304 266.634 20.8539L282.281 36.5027C291.25 45.4711 303.042 50.4725 315.629 51.0361C316.96 55.6148 320.057 59.3921 324.165 61.6299L317.01 73.5548Z" fill="#FFCD31"/>
</svg>
