<svg width="500" height="500" viewBox="0 0 500 500" fill="none" xmlns="http://www.w3.org/2000/svg">
<path d="M4.7998 199.2H495.2" stroke="#828386" stroke-width="6.2089" stroke-miterlimit="10"/>
<path d="M171.9 21H164.3H121.1C114.1 21 110 29 114.1 34.7L162.7 102.4C163.8 103.9 164.3 105.6 164.3 107.4V468C164.3 469.1 165.2 470 166.3 470L294.7 373.2C297.7 370.9 301.8 370.9 304.9 373L442.6 470C443.7 470 444.6 469.1 444.6 468V29.6C444.6 24.8 440.7 21 436 21H171.9Z" fill="#DE2651"/>
<path d="M164.3 199.2V68.4C164.3 42.3 142.9 21 116.9 21H104.3C78.1999 21 56.8999 42.4 56.8999 68.4V199.2H164.3V199.2Z" fill="#551121"/>
<path d="M300.9 121L321.3 183.9C321.8 185.4 323.2 186.4 324.8 186.4H390.9C394.5 186.4 395.9 191 393.1 193.1L339.6 232C338.3 232.9 337.8 234.6 338.3 236.1L358.7 299C359.8 302.4 355.9 305.2 353 303.1L299.5 264.2C298.2 263.3 296.5 263.3 295.2 264.2L241.7 303.1C238.8 305.2 234.9 302.4 236 299L256.4 236.1C256.9 234.6 256.4 232.9 255.1 232L201.6 193.1C198.7 191 200.2 186.4 203.8 186.4H269.9C271.5 186.4 272.9 185.4 273.4 183.9L293.8 121C295 117.7 299.8 117.7 300.9 121Z" fill="white"/>
</svg>
