<svg xmlns="http://www.w3.org/2000/svg" viewBox="0 0 31.58 36.55"><defs><style>.cls-1{fill:#a0a1a4;}</style></defs><g id="Capa_2" data-name="Capa 2"><g id="Capa_1-2" data-name="Capa 1"><g id="d3REK4"><path class="cls-1" d="M21.46,8.58l-5.67,13L10.12,8.58l.5-.22L7,0,5,.87,8.63,9.23,9.12,9a.49.49,0,0,1,.06.13q3,6.8,6,13.6a.37.37,0,0,1,0,.29q-2,4.66-4.07,9.33a.84.84,0,0,1-1.25.47L2.91,29.59a1.65,1.65,0,0,0-2.24.69,4.59,4.59,0,0,0-.19,4.43.93.93,0,0,0,.67.53l4.25,1a6.09,6.09,0,0,0,2.28.25,4.9,4.9,0,0,0,4.05-3c1.16-2.6,2.29-5.22,3.44-7.84.2-.46.4-.92.62-1.41,0,.1.07.16.1.22q2,4.56,4,9.13a5,5,0,0,0,5.66,2.81c1.64-.38,3.27-.78,4.9-1.17a.89.89,0,0,0,.63-.5,4.59,4.59,0,0,0-.17-4.47,1.66,1.66,0,0,0-2.24-.68L21.8,32.83a.85.85,0,0,1-1.27-.46l-4.05-9.26a.53.53,0,0,1,0-.46q2.63-6,5.24-12c.24-.55.49-1.1.73-1.66l.5.21L26.61.87l-2-.87L21,8.36Zm-9-2.45a3.37,3.37,0,1,0,3.37-3.39A3.35,3.35,0,0,0,12.42,6.13Z"/><path class="cls-1" d="M21.46,8.58,21,8.36,24.62,0l2,.87L23,9.23,22.45,9c-.24.56-.49,1.11-.73,1.66q-2.61,6-5.24,12a.53.53,0,0,0,0,.46l4.05,9.26a.85.85,0,0,0,1.27.46l6.87-3.24a1.66,1.66,0,0,1,2.24.68,4.59,4.59,0,0,1,.17,4.47.89.89,0,0,1-.63.5c-1.63.39-3.26.79-4.9,1.17a5,5,0,0,1-5.66-2.81q-2-4.56-4-9.13c0-.06-.06-.12-.1-.22-.22.49-.42.95-.62,1.41C14,28.28,12.89,30.9,11.73,33.5a4.9,4.9,0,0,1-4.05,3,6.09,6.09,0,0,1-2.28-.25l-4.25-1a.93.93,0,0,1-.67-.53,4.59,4.59,0,0,1,.19-4.43,1.65,1.65,0,0,1,2.24-.69L9.8,32.84a.84.84,0,0,0,1.25-.47q2-4.66,4.07-9.33a.37.37,0,0,0,0-.29q-3-6.81-6-13.6A.49.49,0,0,0,9.12,9l-.49.21L5,.87,7,0l3.66,8.36-.5.22,5.67,13Z"/><path class="cls-1" d="M12.42,6.13a3.37,3.37,0,1,1,3.37,3.38A3.37,3.37,0,0,1,12.42,6.13Z"/></g></g></g></svg>