<?xml version="1.0" encoding="UTF-8" standalone="no"?><!-- Generator: Gravit.io --><svg xmlns="http://www.w3.org/2000/svg" xmlns:xlink="http://www.w3.org/1999/xlink" style="isolation:isolate" viewBox="135.15 136.989 36.154 36.152" width="36.154pt" height="36.152pt"><path d=" M 159.253 165.911 L 136.356 165.911 L 136.356 162.899 C 136.356 161.902 137.166 161.091 138.162 161.091 L 140.573 161.091 L 146.6 161.091 L 149.01 161.091 L 155.035 161.091 L 157.445 161.091 C 158.441 161.091 159.253 161.902 159.253 162.899 L 159.253 165.911 L 159.253 165.911 L 159.253 165.911 L 159.253 165.911 L 159.253 165.911 L 159.253 165.911 L 159.253 165.911 Z  M 164.908 154.463 L 165.713 152.052 L 167.254 152.052 L 168.057 154.463 L 164.908 154.463 L 164.908 154.463 L 164.908 154.463 L 164.908 154.463 L 164.908 154.463 Z  M 145.996 157.475 L 145.996 159.886 L 141.176 159.886 L 141.176 157.475 C 141.176 157.143 141.446 156.874 141.778 156.874 L 145.395 156.874 C 145.726 156.874 145.996 157.143 145.996 157.475 L 145.996 157.475 L 145.996 157.475 L 145.996 157.475 L 145.996 157.475 L 145.996 157.475 L 145.996 157.475 Z  M 154.432 157.475 L 154.432 159.886 L 149.611 159.886 L 149.611 157.475 C 149.611 157.143 149.883 156.874 150.214 156.874 L 153.83 156.874 C 154.162 156.874 154.432 157.143 154.432 157.475 L 154.432 157.475 L 154.432 157.475 L 154.432 157.475 L 154.432 157.475 L 154.432 157.475 L 154.432 157.475 Z  M 138.766 154.464 C 138.766 154.13 139.036 153.86 139.368 153.86 L 156.24 153.86 C 156.572 153.86 156.842 154.13 156.842 154.464 L 156.842 159.886 L 155.638 159.886 L 155.638 157.475 C 155.638 156.478 154.826 155.669 153.83 155.669 L 150.214 155.669 C 149.217 155.669 148.406 156.478 148.406 157.475 L 148.406 159.886 L 147.201 159.886 L 147.201 157.475 C 147.201 156.478 146.391 155.669 145.395 155.669 L 141.778 155.669 C 140.781 155.669 139.971 156.478 139.971 157.475 L 139.971 159.886 L 138.766 159.886 L 138.766 154.464 L 138.766 154.464 L 138.766 154.464 L 138.766 154.464 L 138.766 154.464 L 138.766 154.464 L 138.766 154.464 Z  M 159.253 171.937 L 158.048 171.937 L 158.048 170.13 C 158.048 169.796 157.777 169.526 157.445 169.526 L 138.162 169.526 C 137.83 169.526 137.561 169.796 137.561 170.13 L 137.561 171.937 L 136.356 171.937 L 136.356 167.117 L 159.253 167.117 L 159.253 171.937 L 159.253 171.937 L 159.253 171.937 L 159.253 171.937 L 159.253 171.937 L 159.253 171.937 L 159.253 171.937 Z  M 165.278 162.295 L 167.689 162.295 L 167.689 163.501 L 165.278 163.501 L 165.278 162.295 L 165.278 162.295 L 165.278 162.295 L 165.278 162.295 L 165.278 162.295 Z  M 170.947 144.875 L 153.473 137.041 C 153.316 136.971 153.136 136.971 152.98 137.041 L 135.506 144.875 C 135.289 144.971 135.15 145.186 135.15 145.424 L 135.15 152.654 L 136.355 152.654 L 136.355 145.813 L 153.226 138.251 L 170.098 145.814 L 170.098 152.654 L 171.303 152.654 L 171.303 145.424 C 171.303 145.186 171.164 144.971 170.947 144.875 L 170.947 144.875 L 170.947 144.875 Z  M 157.387 145.325 L 156.198 145.524 C 156.227 145.688 156.241 145.858 156.241 146.027 C 156.241 147.688 154.889 149.04 153.227 149.04 C 151.567 149.04 150.214 147.688 150.214 146.027 C 150.214 144.366 151.567 143.014 153.227 143.014 C 153.573 143.014 153.91 143.073 154.233 143.185 L 154.633 142.05 C 154.183 141.889 153.709 141.809 153.227 141.809 C 150.902 141.809 149.01 143.701 149.01 146.027 C 149.01 148.352 150.902 150.245 153.227 150.245 C 155.553 150.245 157.446 148.352 157.446 146.027 C 157.446 145.792 157.426 145.555 157.387 145.325 L 157.387 145.325 Z  M 170.099 164.705 L 162.868 164.705 L 162.868 161.09 L 170.099 161.09 L 170.099 164.705 L 170.099 164.705 L 170.099 164.705 L 170.099 164.705 L 170.099 164.705 L 170.099 164.705 L 170.099 164.705 Z  M 169.465 154.873 L 168.26 151.258 C 168.178 151.013 167.949 150.848 167.689 150.848 L 165.278 150.848 C 165.018 150.848 164.789 151.013 164.707 151.26 L 163.502 154.874 C 163.439 155.059 163.471 155.26 163.584 155.417 C 163.697 155.574 163.88 155.668 164.073 155.668 L 165.881 155.668 L 165.881 157.475 L 164.676 157.475 L 164.676 158.68 L 168.291 158.68 L 168.291 157.475 L 167.086 157.475 L 167.086 155.668 L 168.893 155.668 C 169.087 155.668 169.269 155.574 169.383 155.417 C 169.496 155.259 169.526 155.057 169.465 154.873 L 169.465 154.873 L 169.465 154.873 L 169.465 154.873 L 169.465 154.873 Z  M 170.701 159.885 L 162.266 159.885 C 161.934 159.885 161.663 160.155 161.663 160.488 L 161.663 165.309 L 161.663 169.526 L 162.867 169.526 L 162.867 165.911 L 170.099 165.911 L 170.099 169.526 L 171.304 169.526 L 171.304 165.309 L 171.304 160.488 C 171.304 160.155 171.033 159.885 170.701 159.885 L 170.701 159.885 L 170.701 159.885 L 170.701 159.885 L 170.701 159.885 L 170.701 159.885 L 170.701 159.885 Z  M 158.048 159.946 L 158.048 154.464 C 158.048 153.467 157.236 152.655 156.24 152.655 L 139.368 152.655 C 138.371 152.655 137.561 153.467 137.561 154.464 L 137.561 159.946 C 136.188 160.227 135.15 161.444 135.15 162.899 L 135.15 166.515 L 135.15 172.54 C 135.15 172.872 135.42 173.141 135.752 173.141 L 138.162 173.141 C 138.496 173.141 138.766 172.872 138.766 172.54 L 138.766 170.732 L 156.842 170.732 L 156.842 172.54 C 156.842 172.872 157.112 173.141 157.445 173.141 L 159.856 173.141 C 160.188 173.141 160.457 172.872 160.457 172.54 L 160.457 166.515 L 160.457 162.899 C 160.457 161.444 159.42 160.227 158.048 159.946 L 158.048 159.946 L 158.048 159.946 L 158.048 159.946 L 158.048 159.946 L 158.048 159.946 L 158.048 159.946 Z  M 157.02 141.985 L 153.227 145.778 L 152.448 144.999 L 151.596 145.85 L 152.801 147.055 C 152.918 147.172 153.073 147.232 153.227 147.232 C 153.38 147.232 153.535 147.172 153.653 147.055 L 157.872 142.837 L 157.02 141.985 Z " fill-rule="evenodd" fill="rgb(255,255,255)"/></svg>