<svg width="500" height="500" viewBox="0 0 500 500" fill="none" xmlns="http://www.w3.org/2000/svg">
<path d="M204.7 303.7H219.6V318.6H204.7V303.7Z" fill="#010101"/>
<path d="M234.5 303.7H249.4V318.6H234.5V303.7Z" fill="#010101"/>
<path d="M264.4 303.7H279.3V318.6H264.4V303.7Z" fill="#010101"/>
<path d="M204.7 333.6H219.6V348.5H204.7V333.6Z" fill="#010101"/>
<path d="M234.5 333.6H249.4V348.5H234.5V333.6Z" fill="#010101"/>
<path d="M264.4 333.6H279.3V348.5H264.4V333.6Z" fill="#010101"/>
<path d="M204.7 363.5H219.6V378.4H204.7V363.5Z" fill="#010101"/>
<path d="M234.5 363.5H249.4V378.4H234.5V363.5Z" fill="#010101"/>
<path d="M264.4 363.5H279.3V378.4H264.4V363.5Z" fill="#010101"/>
<path d="M204.7 244H219.6V258.9H204.7V244Z" fill="#010101"/>
<path d="M234.5 244H249.4V258.9H234.5V244Z" fill="#010101"/>
<path d="M264.4 244H279.3V258.9H264.4V244Z" fill="#010101"/>
<path d="M204.7 273.9H219.6V288.8H204.7V273.9Z" fill="#010101"/>
<path d="M234.5 273.9H249.4V288.8H234.5V273.9Z" fill="#010101"/>
<path d="M264.4 273.9H279.3V288.8H264.4V273.9Z" fill="#010101"/>
<path d="M169.1 82L200.1 112.3L192.8 155C192.1 159.1 194.8 162.9 198.9 163.6C200.5 163.9 202.2 163.6 203.6 162.8L242 142.6L280.4 162.8C284 164.7 288.6 163.3 290.5 159.7C291.3 158.2 291.5 156.6 291.3 155L284 112.3L314.9 82C317.9 79.1 317.9 74.4 315 71.4C313.9 70.2 312.4 69.5 310.7 69.2L267.9 63L248.7 24.1C246.9 20.4 242.4 18.9 238.7 20.7C237.2 21.4 236 22.6 235.3 24.1L216.1 63L173.2 69.2C169.1 69.8 166.3 73.6 166.9 77.7C167.1 79.4 167.9 80.9 169.1 82ZM222.2 77.3C224.6 76.9 226.7 75.4 227.8 73.2L242 44.3L256.2 73.1C257.3 75.3 259.4 76.8 261.8 77.2L293.6 81.8L270.6 104.2C268.8 105.9 268 108.4 268.5 110.8L273.9 142.5L245.4 127.5C243.2 126.4 240.6 126.4 238.5 127.5L210 142.5L215.4 110.8C215.8 108.4 215 105.9 213.3 104.2L190.3 81.8L222.2 77.3Z" fill="#FFCD31"/>
<path d="M309.6 141.4C308.7 144.1 309.5 147.1 311.5 149.1L332.2 169.3L327.3 197.8C326.6 201.9 329.3 205.7 333.4 206.4C335 206.7 336.7 206.4 338.1 205.6L363.7 192.2L389.3 205.6C393 207.5 397.5 206.1 399.4 202.5C400.2 201 400.4 199.4 400.1 197.8L395.2 169.3L415.9 149.1C418.9 146.2 418.9 141.5 416 138.5C414.9 137.3 413.4 136.6 411.7 136.3L383.1 132.2L370.3 106.3C368.5 102.6 364 101.1 360.3 102.9C358.8 103.6 357.6 104.8 356.9 106.3L344.1 132.2L315.5 136.4C312.8 136.7 310.4 138.7 309.6 141.4ZM350.2 146.4C352.6 146 354.7 144.5 355.8 142.3L363.6 126.5L371.4 142.3C372.5 144.5 374.6 146 377 146.4L394.5 148.9L381.8 161.2C380 162.9 379.2 165.4 379.7 167.8L382.7 185.2L367.1 177C364.9 175.9 362.3 175.9 360.2 177L344.6 185.2L347.6 167.8C348 165.4 347.2 162.9 345.5 161.2L332.8 148.9L350.2 146.4Z" fill="#FFCD31"/>
<path d="M393 222.7C388.9 223.3 386.1 227.1 386.7 231.2C386.9 232.8 387.7 234.3 388.9 235.5L402.2 248.5L399.1 266.8C398.4 270.9 401.1 274.7 405.2 275.4C406.8 275.7 408.5 275.4 409.9 274.7L426.3 266.1L442.7 274.7C446.4 276.6 450.9 275.2 452.8 271.6C453.6 270.1 453.8 268.5 453.5 266.9L450.4 248.6L463.7 235.6C466.7 232.7 466.7 228 463.8 225C462.7 223.8 461.2 223.1 459.5 222.8L441.1 220.1L432.9 203.5C431.1 199.8 426.6 198.3 422.9 200.1C421.4 200.8 420.2 202 419.5 203.5L411.3 220.1L393 222.7ZM423.1 230.1L426.4 223.5L429.7 230.1C430.8 232.3 432.9 233.8 435.3 234.2L442.6 235.3L437.3 240.4C435.5 242.1 434.7 244.6 435.2 247L436.4 254.3L429.9 250.9C427.7 249.8 425.1 249.8 423 250.9L416.5 254.3L417.7 247C418.1 244.6 417.3 242.1 415.6 240.4L410.3 235.3L417.6 234.2C419.9 233.9 422 232.3 423.1 230.1Z" fill="#FFCD31"/>
<path d="M68.2001 149.1L88.9001 169.3L84.0001 197.7C83.3001 201.8 86.0001 205.6 90.1001 206.3C91.7001 206.6 93.4001 206.3 94.8001 205.6L120.4 192.2L146 205.6C149.6 207.5 154.2 206.1 156.1 202.5C156.9 201 157.1 199.4 156.9 197.8L152 169.3L172.7 149.1C175.7 146.2 175.7 141.5 172.8 138.5C171.7 137.3 170.2 136.6 168.5 136.3L139.9 132.1L127.1 106.2C125.3 102.5 120.8 101 117.1 102.8C115.6 103.5 114.4 104.7 113.7 106.2L100.9 132.1L72.3001 136.3C68.2001 136.9 65.4001 140.7 66.0001 144.8C66.2001 146.4 67.0001 147.9 68.2001 149.1ZM106.9 146.4C109.3 146 111.4 144.5 112.5 142.3L120.3 126.5L128.1 142.3C129.2 144.5 131.3 146 133.7 146.4L151.2 148.9L138.5 161.2C136.7 162.9 135.9 165.4 136.4 167.8L139.4 185.2L123.8 177C121.6 175.9 119 175.9 116.9 177L101.3 185.2L104.3 167.8C104.7 165.4 103.9 162.9 102.2 161.2L89.5001 148.9L106.9 146.4Z" fill="#FFCD31"/>
<path d="M20.3 235.4L33.6 248.4L30.5 266.7C29.8 270.8 32.5 274.6 36.6 275.3C38.2 275.6 39.9 275.3 41.3 274.5L57.7 265.9L74.1 274.5C77.8 276.4 82.3 275 84.2 271.4C85 269.9 85.2 268.3 84.9 266.7L81.8 248.4L95.1 235.4C98.1 232.5 98.1 227.8 95.2 224.8C94.1 223.6 92.6 222.9 90.9 222.6L72.6 220L64.4 203.4C62.6 199.7 58.1 198.2 54.4 200C52.9 200.7 51.7 201.9 51 203.4L42.8 220L24.4 222.7C20.3 223.3 17.5 227.1 18.1 231.2C18.3 232.8 19.1 234.3 20.3 235.4ZM48.8 234.2C51.2 233.8 53.3 232.3 54.4 230.1L57.7 223.5L61 230.1C62.1 232.3 64.2 233.8 66.6 234.2L73.9 235.3L68.6 240.4C66.8 242.1 66 244.6 66.5 247L67.7 254.3L61.2 250.9C59 249.8 56.4 249.8 54.3 250.9L47.8 254.3L49 247C49.4 244.6 48.6 242.1 46.9 240.4L41.6 235.3L48.8 234.2Z" fill="#FFCD31"/>
<path d="M137.5 273.9H159.9V288.8H137.5V273.9Z" fill="#010101"/>
<path d="M137.5 311.2H159.9V326.1H137.5V311.2Z" fill="#010101"/>
<path d="M137.5 348.5H159.9V363.4H137.5V348.5Z" fill="#010101"/>
<path d="M137.5 385.9H159.9V400.8H137.5V385.9Z" fill="#010101"/>
<path d="M436.1 370.9H421.2C404.7 370.9 391.4 384.3 391.3 400.8V416.2C385.9 417.1 380.8 419.2 376.4 422.3V385.9H361.5V423.2H309.2V251.5H361.5V371H376.4V244C376.4 239.9 373.1 236.5 368.9 236.5H309.2V199.2C309.2 195.1 305.9 191.7 301.7 191.7H279.3V176.8C279.3 172.7 276 169.3 271.8 169.3H212.1C208 169.3 204.6 172.6 204.6 176.8V191.7H182.2C178.1 191.7 174.7 195 174.7 199.2V236.5H115C110.9 236.5 107.5 239.8 107.5 244V288.8H122.4V251.5H174.7V423.2H122.4V303.7H107.5V422.3C103.1 419.1 98 417 92.6 416.2V400.8C92.6 384.3 79.2 371 62.7 370.9H47.9C31.4 371 18 384.3 18 400.8V460.5C18 464.6 21.3 468 25.5 468H458.6C462.7 468 466.1 464.7 466.1 460.5V400.8C466 384.3 452.6 371 436.1 370.9ZM219.6 184.3H264.4V214.2H219.6V184.3V184.3ZM32.9 400.8C32.9 392.6 39.6 385.9 47.8 385.9H62.7C70.9 385.9 77.6 392.6 77.6 400.8V416.2C60.4 419 47.8 433.8 47.7 451.2V453.1H32.9V400.8ZM62.8 453.1V451.2C62.8 439.9 72 430.7 83.3 430.7H87C98.3 430.7 107.5 439.9 107.5 451.2V453.1H62.8ZM122.5 438.1H174.8V453H122.5V438.1V438.1ZM189.7 206.7H204.6V221.6C204.6 225.7 207.9 229.1 212.1 229.1H271.8C275.9 229.1 279.3 225.8 279.3 221.6V206.7H294.2V453.1H271.8V400.8C271.8 396.7 268.5 393.3 264.3 393.3H219.5C215.4 393.3 212 396.6 212 400.8V453.1H189.6V206.7H189.7ZM227.1 453.1V408.3H257V453.1H227.1ZM309.2 438.1H361.5V453H309.2V438.1ZM376.4 453.1V451.2C376.4 439.9 385.6 430.7 396.9 430.7H400.6C411.9 430.7 421.1 439.9 421.1 451.2V453.1H376.4ZM451.1 453.1H436.2V451.2C436.2 433.8 423.5 418.9 406.3 416.2V400.8C406.3 392.6 413 385.9 421.2 385.9H436.1C444.3 385.9 451 392.6 451 400.8V453.1H451.1Z" fill="#010101"/>
<path d="M324.1 348.5H346.5V363.4H324.1V348.5Z" fill="#010101"/>
<path d="M324.1 385.9H346.5V400.8H324.1V385.9Z" fill="#010101"/>
<path d="M324.1 273.9H346.5V288.8H324.1V273.9Z" fill="#010101"/>
<path d="M324.1 311.2H346.5V326.1H324.1V311.2Z" fill="#010101"/>
</svg>
