<svg width="431" height="431" viewBox="0 0 431 431" fill="none" xmlns="http://www.w3.org/2000/svg">
<path d="M224.723 169.124H200.846C196.105 169.124 192.226 173.003 192.226 177.744V193.002H176.969C172.228 193.002 168.349 196.881 168.349 201.622V225.499C168.349 230.24 172.228 234.119 176.969 234.119H192.226V249.377C192.226 254.118 196.105 257.997 200.846 257.997H224.723C229.464 257.997 233.343 254.118 233.343 249.377V234.119H248.601C253.342 234.119 257.221 230.24 257.221 225.499V201.622C257.221 196.881 253.342 193.002 248.601 193.002H233.343V177.744C233.257 173.003 229.464 169.124 224.723 169.124ZM246.015 204.122V222.913H229.723C225.499 222.913 222.137 226.361 222.137 230.499V246.791H203.346V230.499C203.346 226.275 199.898 222.913 195.76 222.913H179.468V204.122H195.76C199.984 204.122 203.346 200.674 203.346 196.536V180.244H222.137V196.536C222.137 200.76 225.585 204.122 229.723 204.122H246.015Z" fill="#FFCD31"/>
<path d="M403.244 258.945C406.347 258.945 408.847 256.445 408.847 253.342V196.277C408.847 192.485 408.157 188.778 406.864 185.158L398.244 161.539C397.123 158.522 394.968 156.194 392.21 154.901V141.627C392.21 134.644 387.9 128.697 381.866 126.197C380.228 118.439 373.332 112.577 365.057 112.577H349.8C344.628 97.0612 330.06 85.8552 312.82 85.8552H295.063L286.874 59.3918C281.271 41.376 264.893 29.308 246.101 29.308H179.468C160.677 29.308 144.299 41.376 138.696 59.3056L130.507 85.769H112.75C95.5097 85.769 80.9419 96.975 75.7699 112.491H60.4263C51.8063 112.491 44.6517 118.87 43.4449 127.145C38.4453 130.076 35.1697 135.42 35.1697 141.54V155.677C32.7561 157.056 30.8597 159.211 29.9115 161.97L21.2053 186.451C19.9985 189.899 19.3089 193.519 19.3089 197.139L18.7917 305.062C18.7055 326.353 26.8945 346.438 41.9795 361.523C56.9783 376.608 77.0629 384.969 98.3543 384.969H175.158C190.933 384.969 206.363 380.573 219.724 372.212L243.86 357.213C250.583 352.989 258.945 352.989 265.755 357.127L295.838 375.487C305.924 381.694 317.561 384.969 329.37 384.969C373.246 384.969 408.933 349.282 408.933 305.407V277.909C408.933 274.806 406.433 272.306 403.33 272.306C400.227 272.306 397.727 274.806 397.727 277.909V305.407C397.727 343.162 367.04 373.849 329.284 373.849C319.457 373.849 309.889 371.177 301.528 366.005L271.53 347.817C261.186 341.438 248.256 341.524 237.998 347.903L213.862 362.902C202.225 370.143 188.864 373.936 175.158 373.936H98.2681C79.9075 373.936 62.7537 366.781 49.8237 353.765C36.8937 340.749 29.8253 323.509 29.9115 305.234L30.3425 197.398C30.3425 194.984 30.7735 192.657 31.5493 190.416L40.2555 165.935C40.3417 165.763 40.4279 165.504 40.8589 165.504C41.2899 165.504 41.3761 165.763 41.4623 165.935L50.2547 190.502C51.1167 192.829 51.4615 195.243 51.4615 197.743L50.9443 305.579C50.8581 318.25 55.7715 330.146 64.7363 339.111C73.7011 348.076 85.5967 352.989 98.2681 352.989H111.543C114.646 352.989 117.146 350.489 117.146 347.386C117.146 344.283 114.646 341.783 111.543 341.783H98.2681C88.6137 341.783 79.4765 337.99 72.6667 331.18C65.8569 324.284 62.0641 315.233 62.1503 305.493L62.6675 197.657C62.6675 193.864 62.0641 190.157 60.7711 186.623L51.9787 162.056C50.9443 159.125 48.8755 156.884 46.2895 155.505C46.2895 155.505 46.3757 140.334 46.6343 139.816C49.7375 144.126 54.8233 146.885 60.5125 146.885H73.8735V200.329C73.8735 203.432 76.3733 205.932 79.4765 205.932C82.5797 205.932 85.0795 203.432 85.0795 200.329V159.642H277.392L274.03 176.538C272.564 183.778 274.461 191.192 279.116 196.881C288.339 208.69 307.82 208.69 317.044 196.881C321.698 191.192 323.595 183.778 322.129 176.538L318.768 159.642H340.835V263.169C340.835 278.512 328.336 291.011 312.992 291.011H113.008C97.6647 291.011 85.1657 278.512 85.1657 263.169V226.103C85.1657 222.999 82.6659 220.5 79.5627 220.5C76.4595 220.5 73.9597 222.999 73.9597 226.103V263.169C73.9597 284.632 91.4583 302.131 112.922 302.131H312.906C334.37 302.131 351.868 284.632 351.868 263.169V146.885H365.229C371.608 146.885 377.125 143.437 380.142 138.265C380.832 139.213 381.263 140.334 381.263 141.627V155.505C379.108 156.884 377.384 158.867 376.435 161.453L367.729 185.071C366.436 188.692 365.747 192.485 365.747 196.277V305.579C365.747 325.491 349.541 341.697 329.629 341.697C325.75 341.697 322.043 340.662 318.768 338.594L288.684 320.233C267.823 307.475 241.963 307.562 221.275 320.492L197.139 335.49C190.588 339.542 183.089 341.697 175.417 341.697H137.748C134.644 341.697 132.145 344.197 132.145 347.3C132.145 350.403 134.644 352.903 137.748 352.903H175.417C185.158 352.903 194.726 350.144 203.001 345.059L227.137 330.06C244.291 319.371 265.668 319.285 282.908 329.887L312.992 348.248C317.992 351.351 323.767 352.989 329.715 352.989C355.747 352.989 376.953 331.784 376.953 305.751V196.277C376.953 193.778 377.384 191.278 378.246 188.95L386.952 165.332C387.038 165.159 387.124 164.901 387.555 164.901C387.986 164.901 388.072 165.159 388.159 165.332L396.779 188.95C397.641 191.278 398.072 193.691 398.072 196.191V253.256C397.727 256.445 400.227 258.945 403.244 258.945ZM246.101 40.4278C259.979 40.4278 272.133 49.3064 276.185 62.5812L287.218 98.0956H266.703C265.927 98.0956 265.151 97.5784 264.893 96.8026L251.704 54.1336C249.98 48.6168 246.618 43.8758 242.222 40.4278H246.101ZM179.641 73.0114H245.842L249.808 85.8552H175.676L179.641 73.0114ZM193.433 47.2376L208.173 40.4278H217.31L232.05 47.2376C237.998 49.7374 240.929 55.8576 242.394 61.8054H183.089C184.554 55.8576 187.399 49.7374 193.433 47.2376ZM149.298 62.6674C153.436 49.3926 165.504 40.514 179.382 40.514H183.347C178.865 43.962 175.503 48.7892 173.865 54.2198L160.591 96.8888C160.332 97.6646 159.642 98.1818 158.78 98.1818H138.265L149.298 62.6674ZM112.75 96.975H127.059C125.421 103.009 130.507 109.474 136.799 109.302H158.867C166.107 109.474 171.021 103.612 172.228 96.975H253.256C254.549 103.612 259.462 109.474 266.617 109.302H288.77C295.063 109.474 300.148 103.009 298.511 96.975H312.82C328.163 96.975 340.662 109.474 340.662 124.818V126.024H84.9071V124.818C84.9071 109.388 97.4061 96.975 112.75 96.975ZM60.4263 135.765C59.8229 135.765 59.2195 135.679 58.6161 135.506C60.5125 134.644 61.8055 132.662 61.8055 130.507C61.8055 127.576 59.5643 125.162 56.7197 124.99C57.7541 124.214 59.0471 123.697 60.4263 123.697H73.8735C73.8735 124.042 73.8735 135.765 73.8735 135.765H60.4263ZM84.9071 148.523V137.058H281.874C281.098 138.782 279.805 146.626 279.374 148.523H84.9071ZM308.251 189.899C303.252 196.364 292.563 196.364 287.563 189.899C284.977 186.795 284.029 182.744 284.805 178.779L292.132 141.799C292.649 139.041 295.149 137.058 297.907 137.058C300.666 137.058 303.165 139.041 303.683 141.799L311.01 178.779C311.785 182.744 310.751 186.795 308.251 189.899ZM316.354 148.523C315.923 146.54 314.63 138.782 313.854 137.058H340.576V148.523H316.354ZM351.696 135.765C351.696 135.765 351.696 124.042 351.696 123.697H365.057C366.609 123.697 368.074 124.3 369.108 125.335C366.953 126.111 365.488 128.179 365.488 130.507C365.488 132.403 366.436 134.041 367.902 135.075C366.178 136.455 353.851 135.593 351.696 135.765Z" fill="#010101"/>
<path d="M297.907 175.589C294.718 175.589 292.218 178.175 292.218 181.279C292.218 184.468 294.804 186.968 297.907 186.968C301.01 186.968 303.596 184.382 303.596 181.279C303.596 178.175 301.01 175.589 297.907 175.589Z" fill="#010101"/>
</svg>
