<?xml version="1.0" encoding="UTF-8" standalone="no"?><!-- Generator: Gravit.io --><svg xmlns="http://www.w3.org/2000/svg" xmlns:xlink="http://www.w3.org/1999/xlink" style="isolation:isolate" viewBox="107.069 1037.33 248.043 53.399" width="248.043pt" height="53.399pt"><g><path d=" M 158.02 1058.018 L 157.831 1058.943 L 152.919 1058.943 L 150.382 1073.603 L 148.436 1073.603 L 148.486 1073.294 L 150.975 1058.943 L 145.995 1058.943 L 146.184 1058.018 L 158.02 1058.018 Z " fill="rgb(255,255,255)"/><path d=" M 162.076 1057.472 C 162.251 1057.646 162.337 1057.883 162.337 1058.184 C 162.337 1058.643 162.21 1058.999 161.956 1059.251 C 161.722 1059.535 161.403 1059.679 161.009 1059.679 C 160.723 1059.679 160.493 1059.591 160.321 1059.417 C 160.163 1059.259 160.083 1059.023 160.083 1058.706 C 160.083 1058.263 160.202 1057.908 160.44 1057.638 C 160.645 1057.354 160.944 1057.21 161.341 1057.21 C 161.626 1057.21 161.87 1057.299 162.076 1057.472 Z  M 159.587 1062.833 L 161.531 1062.406 L 159.608 1073.65 C 159.182 1073.682 158.843 1073.699 158.589 1073.699 L 157.925 1073.699 C 157.72 1073.699 157.616 1073.682 157.616 1073.65 L 159.587 1062.833 Z " fill="rgb(255,255,255)"/><path d=" M 170.38 1063.806 C 170.267 1063.774 170.157 1063.744 170.046 1063.71 C 169.952 1063.68 169.853 1063.66 169.751 1063.652 C 169.646 1063.644 169.54 1063.631 169.431 1063.616 C 168.892 1063.616 168.417 1063.719 168.005 1063.925 C 167.579 1064.13 167.216 1064.439 166.915 1064.85 C 166.378 1065.592 165.958 1066.408 165.657 1067.292 C 165.499 1067.751 165.388 1068.21 165.325 1068.669 C 165.263 1069.127 165.222 1069.594 165.207 1070.068 C 165.207 1070.433 165.235 1070.741 165.29 1070.993 C 165.345 1071.246 165.429 1071.467 165.538 1071.657 C 165.745 1071.973 166.077 1072.148 166.536 1072.179 C 166.804 1072.179 167.208 1072.069 167.747 1071.847 C 168.015 1071.738 168.294 1071.61 168.587 1071.467 C 168.88 1071.325 169.192 1071.144 169.525 1070.922 L 170.71 1063.948 C 170.599 1063.885 170.489 1063.838 170.38 1063.806 Z  M 170.046 1078.348 L 168.126 1078.348 C 168.126 1078.315 168.157 1078.128 168.22 1077.789 C 168.284 1077.448 168.351 1077.085 168.421 1076.699 C 168.493 1076.311 168.564 1075.951 168.634 1075.619 C 168.707 1075.286 168.741 1075.113 168.741 1075.097 L 169.382 1071.419 C 168.876 1071.973 168.443 1072.38 168.077 1072.642 C 167.713 1072.904 167.398 1073.119 167.129 1073.294 C 166.622 1073.642 166.101 1073.817 165.564 1073.817 C 164.835 1073.817 164.275 1073.532 163.878 1072.961 C 163.499 1072.393 163.31 1071.562 163.31 1070.471 C 163.294 1069.332 163.429 1068.297 163.714 1067.363 C 163.999 1066.431 164.417 1065.577 164.97 1064.801 C 166.077 1063.252 167.421 1062.476 169.003 1062.476 C 169.318 1062.476 169.634 1062.525 169.952 1062.619 C 170.109 1062.667 170.265 1062.727 170.415 1062.798 C 170.564 1062.869 170.718 1062.967 170.878 1063.094 L 172.798 1062.453 L 170.046 1078.348 Z " fill="rgb(255,255,255)"/><path d=" M 176.806 1070.85 L 176.736 1071.207 L 176.736 1071.467 C 176.736 1071.704 176.791 1071.879 176.903 1071.99 C 177.013 1072.069 177.202 1072.123 177.472 1072.156 C 177.644 1072.156 177.835 1072.128 178.04 1072.072 C 178.245 1072.018 178.483 1071.942 178.753 1071.847 C 179.021 1071.738 179.341 1071.555 179.712 1071.302 C 180.085 1071.049 180.476 1070.812 180.888 1070.591 L 182.216 1062.999 L 184.136 1062.501 L 182.216 1073.603 L 180.271 1073.626 C 180.271 1073.594 180.298 1073.445 180.353 1073.176 C 180.409 1072.908 180.464 1072.618 180.519 1072.309 C 180.574 1072.001 180.658 1071.595 180.769 1071.087 C 179.773 1072.037 178.917 1072.724 178.206 1073.153 C 177.495 1073.579 176.863 1073.792 176.31 1073.792 C 175.818 1073.792 175.448 1073.673 175.195 1073.436 C 174.925 1073.168 174.79 1072.829 174.79 1072.416 L 174.79 1072.156 C 174.79 1072.06 174.806 1071.951 174.839 1071.824 C 174.853 1071.619 174.902 1071.333 174.982 1070.97 L 176.452 1062.857 L 178.396 1062.406 L 176.806 1070.85 Z " fill="rgb(255,255,255)"/><path d=" M 191.275 1066.369 C 191.908 1065.941 192.224 1065.339 192.224 1064.564 C 192.224 1064.17 192.122 1063.869 191.917 1063.662 C 191.696 1063.442 191.403 1063.332 191.038 1063.332 C 190.422 1063.332 189.876 1063.662 189.401 1064.328 C 188.943 1064.975 188.58 1065.948 188.311 1067.246 C 189.624 1067.103 190.612 1066.809 191.275 1066.369 Z  M 188.192 1067.814 C 188.161 1067.958 188.137 1068.108 188.12 1068.266 C 188.104 1068.423 188.083 1068.59 188.049 1068.765 C 188.034 1068.938 188.022 1069.106 188.014 1069.272 C 188.006 1069.438 188.003 1069.616 188.003 1069.807 C 188.003 1070.645 188.153 1071.27 188.452 1071.681 C 188.737 1072.109 189.19 1072.322 189.805 1072.322 C 190.264 1072.322 190.794 1072.219 191.395 1072.014 C 191.696 1071.918 192.003 1071.792 192.319 1071.635 C 192.635 1071.475 192.968 1071.295 193.317 1071.089 C 192.715 1071.99 192.018 1072.671 191.229 1073.129 C 190.438 1073.618 189.608 1073.863 188.737 1073.863 C 187.852 1073.863 187.171 1073.556 186.696 1072.938 C 186.462 1072.623 186.286 1072.243 186.176 1071.8 C 186.065 1071.356 186.003 1070.835 185.987 1070.234 C 185.987 1069.729 186.018 1069.234 186.081 1068.752 C 186.143 1068.269 186.247 1067.783 186.387 1067.292 C 186.673 1066.328 187.061 1065.499 187.551 1064.802 C 188.12 1064.011 188.721 1063.434 189.354 1063.071 C 190.034 1062.676 190.786 1062.475 191.606 1062.475 C 192.381 1062.475 192.975 1062.676 193.387 1063.071 C 193.845 1063.499 194.075 1064.052 194.075 1064.729 C 194.075 1065.76 193.671 1066.535 192.866 1067.056 C 192.075 1067.562 190.887 1067.814 189.307 1067.814 L 188.192 1067.814 Z " fill="rgb(255,255,255)"/><path d=" M 200.028 1059.821 L 199.507 1062.619 L 202.803 1062.619 L 202.661 1063.451 L 199.364 1063.451 L 197.942 1070.85 C 197.926 1070.915 197.919 1070.978 197.919 1071.041 C 197.919 1071.089 197.902 1071.152 197.87 1071.231 L 197.87 1071.61 C 197.87 1071.8 197.926 1071.951 198.036 1072.06 C 198.132 1072.124 198.29 1072.172 198.51 1072.203 C 198.684 1072.203 198.882 1072.176 199.104 1072.121 C 199.325 1072.065 199.569 1071.99 199.84 1071.896 C 200.36 1071.689 200.985 1071.366 201.713 1070.923 C 201.758 1071.033 201.796 1071.116 201.819 1071.172 C 201.842 1071.227 201.86 1071.27 201.867 1071.302 C 201.876 1071.334 201.887 1071.374 201.903 1071.42 C 201.919 1071.467 201.95 1071.532 201.997 1071.61 C 201.87 1071.705 201.702 1071.815 201.487 1071.942 C 201.274 1072.069 201.049 1072.2 200.811 1072.335 C 200.575 1072.467 200.35 1072.599 200.135 1072.724 C 199.923 1072.851 199.758 1072.955 199.649 1073.034 C 198.859 1073.541 198.132 1073.793 197.467 1073.793 C 197.04 1073.793 196.676 1073.658 196.376 1073.388 C 196.09 1073.136 195.948 1072.781 195.948 1072.322 C 195.948 1072.243 195.952 1072.166 195.96 1072.097 C 195.968 1072.026 195.981 1071.942 195.997 1071.847 C 195.997 1071.753 196.007 1071.645 196.032 1071.527 C 196.055 1071.409 196.083 1071.278 196.114 1071.136 L 197.538 1063.451 L 196.044 1063.451 L 196.21 1062.619 L 197.704 1062.619 L 198.085 1060.912 L 200.028 1059.821 Z " fill="rgb(255,255,255)"/><path d=" M 208.544 1066.369 C 209.177 1065.941 209.493 1065.339 209.493 1064.564 C 209.493 1064.17 209.391 1063.869 209.185 1063.662 C 208.964 1063.442 208.671 1063.332 208.308 1063.332 C 207.692 1063.332 207.146 1063.662 206.671 1064.328 C 206.212 1064.975 205.849 1065.948 205.579 1067.246 C 206.892 1067.103 207.88 1066.809 208.544 1066.369 Z  M 205.462 1067.814 C 205.429 1067.958 205.405 1068.108 205.391 1068.266 C 205.374 1068.423 205.351 1068.59 205.317 1068.765 C 205.304 1068.938 205.29 1069.106 205.283 1069.272 C 205.273 1069.438 205.271 1069.616 205.271 1069.807 C 205.271 1070.645 205.421 1071.27 205.722 1071.681 C 206.007 1072.109 206.458 1072.322 207.074 1072.322 C 207.531 1072.322 208.062 1072.219 208.663 1072.014 C 208.964 1071.918 209.273 1071.792 209.589 1071.635 C 209.905 1071.475 210.237 1071.295 210.585 1071.089 C 209.983 1071.99 209.288 1072.671 208.497 1073.129 C 207.707 1073.618 206.876 1073.863 206.007 1073.863 C 205.12 1073.863 204.44 1073.556 203.966 1072.938 C 203.73 1072.623 203.556 1072.243 203.444 1071.8 C 203.335 1071.356 203.271 1070.835 203.255 1070.234 C 203.255 1069.729 203.286 1069.234 203.349 1068.752 C 203.413 1068.269 203.517 1067.783 203.657 1067.292 C 203.942 1066.328 204.331 1065.499 204.819 1064.802 C 205.391 1064.011 205.99 1063.434 206.623 1063.071 C 207.304 1062.676 208.054 1062.475 208.878 1062.475 C 209.651 1062.475 210.244 1062.676 210.653 1063.071 C 211.114 1063.499 211.343 1064.052 211.343 1064.729 C 211.343 1065.76 210.94 1066.535 210.134 1067.056 C 209.343 1067.562 208.157 1067.814 206.575 1067.814 L 205.462 1067.814 Z " fill="rgb(255,255,255)"/><path d=" M 219.526 1064.09 C 219.02 1063.774 218.567 1063.585 218.164 1063.521 C 217.758 1063.457 217.288 1063.427 216.753 1063.427 C 216.278 1063.427 215.881 1063.577 215.565 1063.877 C 215.266 1064.177 215.106 1064.549 215.09 1064.992 C 215.09 1065.23 215.161 1065.467 215.303 1065.704 C 215.447 1065.941 215.699 1066.218 216.063 1066.534 L 217.274 1067.577 C 217.526 1067.799 217.741 1068.021 217.913 1068.241 C 218.089 1068.462 218.237 1068.685 218.364 1068.905 C 218.616 1069.364 218.744 1069.816 218.744 1070.258 C 218.744 1071.318 218.389 1072.202 217.676 1072.915 C 216.981 1073.611 216.079 1073.958 214.972 1073.958 C 214.751 1073.958 214.534 1073.95 214.319 1073.935 C 214.106 1073.919 213.889 1073.887 213.669 1073.84 C 213.224 1073.761 212.766 1073.635 212.292 1073.461 L 212.528 1072.227 C 212.941 1072.385 213.292 1072.515 213.585 1072.617 C 213.878 1072.721 214.192 1072.812 214.534 1072.891 C 214.874 1072.97 215.184 1073.009 215.469 1073.009 C 215.741 1073.009 215.969 1072.961 216.159 1072.866 C 216.348 1072.773 216.53 1072.629 216.704 1072.44 C 217.051 1072.06 217.226 1071.594 217.226 1071.04 C 217.226 1070.726 217.147 1070.433 216.989 1070.162 C 216.862 1069.894 216.632 1069.616 216.301 1069.332 L 215.02 1068.218 C 214.465 1067.742 214.079 1067.317 213.856 1066.937 C 213.651 1066.573 213.549 1066.162 213.549 1065.704 C 213.549 1064.786 213.913 1064.019 214.641 1063.403 C 215.35 1062.786 216.269 1062.476 217.391 1062.476 C 217.549 1062.476 217.719 1062.485 217.902 1062.501 C 218.083 1062.517 218.269 1062.54 218.46 1062.571 C 218.665 1062.604 218.874 1062.636 219.089 1062.667 C 219.301 1062.698 219.534 1062.754 219.788 1062.833 L 219.526 1064.09 Z " fill="rgb(255,255,255)"/><path d=" M 250.673 1058.018 L 250.484 1058.943 L 245.573 1058.943 L 243.035 1073.603 L 241.089 1073.603 L 241.138 1073.294 L 243.628 1058.943 L 238.648 1058.943 L 238.837 1058.018 L 250.673 1058.018 Z " fill="rgb(255,255,255)"/><path d=" M 254.727 1057.472 C 254.902 1057.646 254.99 1057.883 254.99 1058.184 C 254.99 1058.643 254.863 1058.999 254.611 1059.251 C 254.372 1059.535 254.055 1059.679 253.661 1059.679 C 253.378 1059.679 253.148 1059.591 252.973 1059.417 C 252.814 1059.259 252.738 1059.023 252.738 1058.706 C 252.738 1058.263 252.855 1057.908 253.09 1057.638 C 253.296 1057.354 253.596 1057.21 253.993 1057.21 C 254.277 1057.21 254.523 1057.299 254.727 1057.472 Z  M 252.238 1062.833 L 254.182 1062.406 L 252.262 1073.65 C 251.835 1073.682 251.493 1073.699 251.242 1073.699 L 250.577 1073.699 C 250.37 1073.699 250.268 1073.682 250.268 1073.65 L 252.238 1062.833 Z " fill="rgb(255,255,255)"/><path d=" M 263.03 1063.806 C 262.919 1063.774 262.808 1063.744 262.698 1063.71 C 262.602 1063.68 262.503 1063.66 262.401 1063.652 C 262.298 1063.644 262.191 1063.631 262.081 1063.616 C 261.544 1063.616 261.069 1063.719 260.659 1063.925 C 260.231 1064.13 259.868 1064.439 259.567 1064.85 C 259.028 1065.592 258.61 1066.408 258.309 1067.292 C 258.151 1067.751 258.04 1068.21 257.977 1068.669 C 257.915 1069.127 257.874 1069.594 257.859 1070.068 C 257.859 1070.433 257.885 1070.741 257.942 1070.993 C 257.997 1071.246 258.08 1071.467 258.19 1071.657 C 258.395 1071.973 258.729 1072.148 259.186 1072.179 C 259.456 1072.179 259.859 1072.069 260.397 1071.847 C 260.667 1071.738 260.946 1071.61 261.239 1071.467 C 261.532 1071.325 261.845 1071.144 262.176 1070.922 L 263.362 1063.948 C 263.253 1063.885 263.139 1063.838 263.03 1063.806 Z  M 262.698 1078.348 L 260.776 1078.348 C 260.776 1078.315 260.808 1078.128 260.872 1077.789 C 260.934 1077.448 261.003 1077.085 261.073 1076.699 C 261.145 1076.311 261.216 1075.951 261.286 1075.619 C 261.358 1075.286 261.393 1075.113 261.393 1075.097 L 262.032 1071.419 C 261.526 1071.973 261.093 1072.38 260.729 1072.642 C 260.364 1072.904 260.05 1073.119 259.78 1073.294 C 259.274 1073.642 258.753 1073.817 258.216 1073.817 C 257.487 1073.817 256.926 1073.532 256.53 1072.961 C 256.151 1072.393 255.962 1071.562 255.962 1070.471 C 255.946 1069.332 256.081 1068.297 256.364 1067.363 C 256.649 1066.431 257.067 1065.577 257.622 1064.801 C 258.729 1063.252 260.073 1062.476 261.655 1062.476 C 261.971 1062.476 262.286 1062.525 262.602 1062.619 C 262.76 1062.667 262.915 1062.727 263.066 1062.798 C 263.216 1062.869 263.37 1062.967 263.528 1063.094 L 265.45 1062.453 L 262.698 1078.348 Z " fill="rgb(255,255,255)"/><path d=" M 269.46 1070.85 L 269.388 1071.207 L 269.388 1071.467 C 269.388 1071.704 269.443 1071.879 269.554 1071.99 C 269.664 1072.069 269.853 1072.123 270.123 1072.156 C 270.297 1072.156 270.487 1072.128 270.692 1072.072 C 270.897 1072.018 271.134 1071.942 271.403 1071.847 C 271.673 1071.738 271.993 1071.555 272.364 1071.302 C 272.735 1071.049 273.128 1070.812 273.538 1070.591 L 274.867 1062.999 L 276.788 1062.501 L 274.867 1073.603 L 272.921 1073.626 C 272.921 1073.594 272.948 1073.445 273.005 1073.176 C 273.06 1072.908 273.114 1072.618 273.171 1072.309 C 273.226 1072.001 273.31 1071.595 273.421 1071.087 C 272.424 1072.037 271.569 1072.724 270.858 1073.153 C 270.147 1073.579 269.513 1073.792 268.96 1073.792 C 268.47 1073.792 268.099 1073.673 267.847 1073.436 C 267.577 1073.168 267.443 1072.829 267.443 1072.416 L 267.443 1072.156 C 267.443 1072.06 267.458 1071.951 267.489 1071.824 C 267.505 1071.619 267.553 1071.333 267.633 1070.97 L 269.103 1062.857 L 271.048 1062.406 L 269.46 1070.85 Z " fill="rgb(255,255,255)"/><path d=" M 283.929 1066.369 C 284.561 1065.941 284.878 1065.339 284.878 1064.564 C 284.878 1064.17 284.775 1063.869 284.568 1063.662 C 284.347 1063.442 284.054 1063.332 283.691 1063.332 C 283.074 1063.332 282.529 1063.662 282.056 1064.328 C 281.595 1064.975 281.232 1065.948 280.964 1067.246 C 282.275 1067.103 283.265 1066.809 283.929 1066.369 Z  M 280.845 1067.814 C 280.812 1067.958 280.788 1068.108 280.773 1068.266 C 280.757 1068.423 280.735 1068.59 280.702 1068.765 C 280.687 1068.938 280.675 1069.106 280.667 1069.272 C 280.658 1069.438 280.656 1069.616 280.656 1069.807 C 280.656 1070.645 280.804 1071.27 281.105 1071.681 C 281.39 1072.109 281.841 1072.322 282.458 1072.322 C 282.915 1072.322 283.447 1072.219 284.046 1072.014 C 284.347 1071.918 284.656 1071.792 284.972 1071.635 C 285.286 1071.475 285.619 1071.295 285.969 1071.089 C 285.366 1071.99 284.671 1072.671 283.88 1073.129 C 283.091 1073.618 282.259 1073.863 281.39 1073.863 C 280.505 1073.863 279.825 1073.556 279.351 1072.938 C 279.113 1072.623 278.939 1072.243 278.828 1071.8 C 278.718 1071.356 278.656 1070.835 278.638 1070.234 C 278.638 1069.729 278.669 1069.234 278.734 1068.752 C 278.797 1068.269 278.9 1067.783 279.042 1067.292 C 279.325 1066.328 279.713 1065.499 280.204 1064.802 C 280.773 1064.011 281.374 1063.434 282.007 1063.071 C 282.687 1062.676 283.439 1062.475 284.261 1062.475 C 285.035 1062.475 285.628 1062.676 286.04 1063.071 C 286.497 1063.499 286.727 1064.052 286.727 1064.729 C 286.727 1065.76 286.325 1066.535 285.517 1067.056 C 284.728 1067.562 283.54 1067.814 281.958 1067.814 L 280.845 1067.814 Z " fill="rgb(255,255,255)"/><path d=" M 292.681 1059.821 L 292.16 1062.619 L 295.456 1062.619 L 295.314 1063.451 L 292.017 1063.451 L 290.593 1070.85 C 290.577 1070.915 290.57 1070.978 290.57 1071.041 C 290.57 1071.089 290.554 1071.152 290.523 1071.231 L 290.523 1071.61 C 290.523 1071.8 290.577 1071.951 290.689 1072.06 C 290.785 1072.124 290.943 1072.172 291.163 1072.203 C 291.337 1072.203 291.535 1072.176 291.755 1072.121 C 291.978 1072.065 292.222 1071.99 292.492 1071.896 C 293.014 1071.689 293.638 1071.366 294.365 1070.923 C 294.413 1071.033 294.449 1071.116 294.473 1071.172 C 294.495 1071.227 294.511 1071.27 294.519 1071.302 C 294.529 1071.334 294.538 1071.374 294.554 1071.42 C 294.572 1071.467 294.603 1071.532 294.65 1071.61 C 294.523 1071.705 294.353 1071.815 294.14 1071.942 C 293.927 1072.069 293.701 1072.2 293.464 1072.335 C 293.226 1072.467 293.001 1072.599 292.788 1072.724 C 292.574 1072.851 292.412 1072.955 292.302 1073.034 C 291.511 1073.541 290.785 1073.793 290.118 1073.793 C 289.693 1073.793 289.328 1073.658 289.028 1073.388 C 288.743 1073.136 288.602 1072.781 288.602 1072.322 C 288.602 1072.243 288.605 1072.166 288.613 1072.097 C 288.62 1072.026 288.632 1071.942 288.648 1071.847 C 288.648 1071.753 288.66 1071.645 288.683 1071.527 C 288.708 1071.409 288.736 1071.278 288.767 1071.136 L 290.19 1063.451 L 288.697 1063.451 L 288.863 1062.619 L 290.357 1062.619 L 290.736 1060.912 L 292.681 1059.821 Z " fill="rgb(255,255,255)"/><path d=" M 301.196 1066.369 C 301.829 1065.941 302.145 1065.339 302.145 1064.564 C 302.145 1064.17 302.042 1063.869 301.837 1063.662 C 301.616 1063.442 301.321 1063.332 300.96 1063.332 C 300.342 1063.332 299.797 1063.662 299.323 1064.328 C 298.864 1064.975 298.501 1065.948 298.231 1067.246 C 299.544 1067.103 300.532 1066.809 301.196 1066.369 Z  M 298.112 1067.814 C 298.081 1067.958 298.056 1068.108 298.042 1068.266 C 298.024 1068.423 298.003 1068.59 297.971 1068.765 C 297.954 1068.938 297.943 1069.106 297.934 1069.272 C 297.926 1069.438 297.923 1069.616 297.923 1069.807 C 297.923 1070.645 298.073 1071.27 298.372 1071.681 C 298.658 1072.109 299.11 1072.322 299.726 1072.322 C 300.185 1072.322 300.714 1072.219 301.315 1072.014 C 301.616 1071.918 301.924 1071.792 302.239 1071.635 C 302.555 1071.475 302.889 1071.295 303.237 1071.089 C 302.635 1071.99 301.94 1072.671 301.149 1073.129 C 300.358 1073.618 299.528 1073.863 298.658 1073.863 C 297.773 1073.863 297.092 1073.556 296.618 1072.938 C 296.382 1072.623 296.208 1072.243 296.096 1071.8 C 295.985 1071.356 295.923 1070.835 295.907 1070.234 C 295.907 1069.729 295.938 1069.234 296.003 1068.752 C 296.065 1068.269 296.169 1067.783 296.31 1067.292 C 296.594 1066.328 296.982 1065.499 297.472 1064.802 C 298.042 1064.011 298.643 1063.434 299.275 1063.071 C 299.954 1062.676 300.708 1062.475 301.528 1062.475 C 302.303 1062.475 302.895 1062.676 303.307 1063.071 C 303.765 1063.499 303.997 1064.052 303.997 1064.729 C 303.997 1065.76 303.592 1066.535 302.784 1067.056 C 301.995 1067.562 300.809 1067.814 299.227 1067.814 L 298.112 1067.814 Z " fill="rgb(255,255,255)"/><path d=" M 312.179 1064.09 C 311.675 1063.774 311.218 1063.585 310.816 1063.521 C 310.412 1063.457 309.941 1063.427 309.404 1063.427 C 308.929 1063.427 308.534 1063.577 308.218 1063.877 C 307.917 1064.177 307.759 1064.549 307.743 1064.992 C 307.743 1065.23 307.815 1065.467 307.956 1065.704 C 308.099 1065.941 308.353 1066.218 308.714 1066.534 L 309.926 1067.577 C 310.179 1067.799 310.392 1068.021 310.566 1068.241 C 310.74 1068.462 310.89 1068.685 311.017 1068.905 C 311.27 1069.364 311.396 1069.816 311.396 1070.258 C 311.396 1071.318 311.042 1072.202 310.329 1072.915 C 309.633 1073.611 308.732 1073.958 307.624 1073.958 C 307.402 1073.958 307.187 1073.95 306.972 1073.935 C 306.759 1073.919 306.542 1073.887 306.32 1073.84 C 305.878 1073.761 305.419 1073.635 304.945 1073.461 L 305.181 1072.227 C 305.593 1072.385 305.945 1072.515 306.238 1072.617 C 306.531 1072.721 306.847 1072.812 307.187 1072.891 C 307.526 1072.97 307.837 1073.009 308.124 1073.009 C 308.392 1073.009 308.62 1072.961 308.812 1072.866 C 309.001 1072.773 309.181 1072.629 309.357 1072.44 C 309.704 1072.06 309.878 1071.594 309.878 1071.04 C 309.878 1070.726 309.8 1070.433 309.64 1070.162 C 309.515 1069.894 309.284 1069.616 308.952 1069.332 L 307.671 1068.218 C 307.118 1067.742 306.732 1067.317 306.51 1066.937 C 306.304 1066.573 306.202 1066.162 306.202 1065.704 C 306.202 1064.786 306.566 1064.019 307.292 1063.403 C 308.003 1062.786 308.921 1062.476 310.044 1062.476 C 310.202 1062.476 310.372 1062.485 310.554 1062.501 C 310.738 1062.517 310.921 1062.54 311.112 1062.571 C 311.318 1062.604 311.527 1062.636 311.74 1062.667 C 311.954 1062.698 312.187 1062.754 312.441 1062.833 L 312.179 1064.09 Z " fill="rgb(255,255,255)"/><path d=" M 316.497 1071.515 C 316.718 1071.689 316.827 1071.965 316.827 1072.345 C 316.845 1072.882 316.718 1073.286 316.45 1073.556 C 316.212 1073.824 315.841 1073.958 315.333 1073.958 C 314.845 1073.958 314.487 1073.872 314.266 1073.699 C 314.059 1073.556 313.958 1073.278 313.958 1072.867 C 313.958 1072.361 314.085 1071.958 314.339 1071.659 C 314.575 1071.404 314.946 1071.261 315.452 1071.231 C 315.911 1071.231 316.259 1071.325 316.497 1071.515 Z " fill="rgb(255,255,255)"/><path d=" M 327.906 1064.068 C 327.542 1063.878 327.221 1063.731 326.944 1063.629 C 326.669 1063.525 326.372 1063.442 326.055 1063.379 C 325.739 1063.315 325.446 1063.308 325.177 1063.355 C 324.891 1063.42 324.647 1063.49 324.442 1063.569 C 324.237 1063.648 324.048 1063.758 323.872 1063.9 C 323.698 1064.044 323.536 1064.221 323.385 1064.435 C 323.237 1064.648 323.075 1064.905 322.901 1065.205 C 322.567 1065.821 322.324 1066.49 322.167 1067.211 C 322.007 1067.93 321.921 1068.716 321.905 1069.571 C 321.905 1070.518 322.038 1071.191 322.307 1071.587 C 322.559 1071.965 323.003 1072.172 323.635 1072.203 C 323.983 1072.203 324.419 1072.109 324.94 1071.919 C 325.192 1071.824 325.491 1071.697 325.829 1071.539 C 326.169 1071.381 326.553 1071.182 326.979 1070.945 C 326.268 1071.879 325.534 1072.591 324.774 1073.081 C 324.014 1073.556 323.28 1073.793 322.567 1073.793 C 321.776 1073.808 321.135 1073.484 320.647 1072.82 C 320.173 1072.156 319.936 1071.246 319.936 1070.091 C 319.936 1067.815 320.466 1065.973 321.524 1064.565 C 322.585 1063.126 323.968 1062.406 325.677 1062.406 C 325.849 1062.406 326.02 1062.416 326.186 1062.43 C 326.352 1062.446 326.53 1062.469 326.719 1062.502 C 326.909 1062.533 327.115 1062.577 327.337 1062.631 C 327.558 1062.687 327.802 1062.755 328.071 1062.834 L 327.906 1064.068 Z " fill="rgb(255,255,255)"/><path d=" M 335.757 1063.877 C 335.441 1063.387 334.966 1063.142 334.333 1063.142 C 333.844 1063.142 333.386 1063.323 332.958 1063.688 C 332.564 1064.019 332.214 1064.533 331.915 1065.23 C 331.739 1065.625 331.595 1066.023 331.476 1066.427 C 331.357 1066.83 331.251 1067.253 331.155 1067.695 C 331.077 1068.107 331.013 1068.518 330.966 1068.93 C 330.919 1069.34 330.895 1069.752 330.895 1070.162 C 330.862 1071.175 331.013 1071.935 331.345 1072.44 C 331.663 1072.945 332.136 1073.198 332.769 1073.198 C 333.275 1073.198 333.734 1073.018 334.146 1072.653 C 334.35 1072.48 334.544 1072.263 334.726 1072.001 C 334.907 1071.739 335.07 1071.436 335.212 1071.087 C 335.386 1070.724 335.532 1070.341 335.652 1069.939 C 335.771 1069.534 335.878 1069.111 335.97 1068.669 C 336.146 1067.751 336.232 1066.865 336.232 1066.012 C 336.232 1065.063 336.073 1064.351 335.757 1063.877 Z  M 337.228 1063.402 C 337.861 1064.114 338.177 1065.094 338.177 1066.344 C 338.177 1067.167 338.083 1067.98 337.892 1068.786 C 337.718 1069.563 337.443 1070.28 337.062 1070.944 C 336.476 1072.005 335.829 1072.773 335.116 1073.246 C 334.405 1073.721 333.55 1073.958 332.554 1073.958 C 331.431 1073.958 330.546 1073.61 329.9 1072.915 C 329.265 1072.202 328.948 1071.223 328.948 1069.973 C 328.948 1069.15 329.03 1068.376 329.189 1067.648 C 329.345 1066.905 329.581 1066.233 329.9 1065.632 C 330.484 1064.509 331.148 1063.694 331.89 1063.19 C 332.634 1062.65 333.513 1062.382 334.523 1062.382 C 335.695 1062.382 336.595 1062.722 337.228 1063.402 Z " fill="rgb(255,255,255)"/><path d=" M 343.324 1065.111 C 344.368 1064.146 345.245 1063.459 345.956 1063.047 C 346.651 1062.636 347.284 1062.43 347.854 1062.43 C 348.313 1062.43 348.669 1062.557 348.921 1062.809 C 349.175 1063.047 349.302 1063.403 349.302 1063.878 L 349.302 1064.162 C 349.302 1064.257 349.286 1064.36 349.255 1064.47 C 349.237 1064.581 349.221 1064.688 349.206 1064.792 C 349.19 1064.894 349.167 1065.008 349.136 1065.134 C 350.053 1064.249 350.891 1063.578 351.649 1063.118 C 352.393 1062.661 353.05 1062.43 353.619 1062.43 C 354.077 1062.43 354.44 1062.557 354.71 1062.809 C 354.977 1063.047 355.112 1063.387 355.112 1063.83 L 355.112 1064.019 C 355.112 1064.083 355.097 1064.177 355.066 1064.302 C 355.05 1064.413 355.032 1064.526 355.018 1064.645 C 355.003 1064.763 354.977 1064.892 354.946 1065.034 C 354.772 1065.869 354.626 1066.6 354.509 1067.23 C 354.389 1067.859 354.256 1068.544 354.106 1069.284 C 353.954 1070.023 353.821 1070.708 353.702 1071.338 C 353.583 1071.966 353.479 1072.498 353.393 1072.93 C 353.305 1073.362 353.262 1073.587 353.262 1073.603 L 351.509 1073.603 L 353.12 1065.171 C 353.136 1065.107 353.147 1065.057 353.157 1065.017 C 353.165 1064.978 353.167 1064.926 353.167 1064.863 C 353.182 1064.816 353.191 1064.738 353.191 1064.627 C 353.191 1064.437 353.12 1064.297 352.979 1064.202 C 352.868 1064.124 352.685 1064.068 352.433 1064.037 C 352.211 1064.037 351.768 1064.146 351.104 1064.367 C 350.803 1064.478 350.475 1064.643 350.12 1064.863 C 349.764 1065.084 349.403 1065.297 349.04 1065.5 L 347.546 1073.556 L 345.79 1073.556 L 347.309 1065.146 L 347.309 1065.099 C 347.324 1064.989 347.337 1064.899 347.345 1064.828 C 347.352 1064.757 347.354 1064.682 347.354 1064.603 C 347.354 1064.446 347.294 1064.312 347.167 1064.202 C 347.055 1064.108 346.897 1064.052 346.692 1064.037 C 346.423 1064.037 345.956 1064.146 345.294 1064.367 C 344.992 1064.478 344.671 1064.652 344.333 1064.887 C 343.993 1065.123 343.64 1065.343 343.277 1065.548 L 341.829 1073.556 L 339.956 1073.556 L 341.852 1062.903 L 343.846 1062.43 L 343.324 1065.111 Z " fill="rgb(255,255,255)"/><path d=" M 230.165 1069.722 L 233.655 1061.134 L 235.323 1061.134 L 229.587 1073.435 C 229.345 1073.966 229.065 1074.421 228.753 1074.802 C 228.44 1075.182 228.091 1075.5 227.706 1075.758 C 226.936 1076.26 226.026 1076.51 224.976 1076.51 L 224.519 1076.51 C 224.378 1076.51 224.226 1076.494 224.063 1076.464 C 223.903 1076.449 223.734 1076.434 223.563 1076.418 C 223.392 1076.403 223.204 1076.38 223.001 1076.351 L 223.001 1075.326 C 223.042 1075.34 223.204 1075.375 223.487 1075.428 C 223.77 1075.481 224.145 1075.519 224.611 1075.541 C 225.075 1075.565 225.47 1075.531 225.794 1075.439 C 226.138 1075.332 226.411 1075.236 226.614 1075.144 C 226.815 1075.052 227.059 1074.855 227.342 1074.552 C 227.604 1074.263 227.858 1073.906 228.101 1073.481 C 228.343 1073.056 228.595 1072.554 228.86 1071.977 L 223.062 1061.134 L 225.978 1061.134 L 230.165 1069.722 Z " fill="rgb(255,255,255)"/><path d=" M 107.465 1049.265 C 108.762 1050.861 110.661 1051.787 112.406 1052.677 C 115.085 1054.043 117.968 1054.536 120.917 1054.625 C 124.046 1054.718 127.183 1054.581 130.312 1054.569 C 129.194 1052.967 128.032 1051.377 126.441 1050.275 C 123.589 1048.3 120.294 1048.638 117.06 1048.88 C 116.314 1048.938 115.566 1048.988 114.818 1049.025 C 112.237 1049.151 109.623 1049.139 107.069 1048.683 L 107.465 1049.265 Z " fill="rgb(255,255,255)"/><path d=" M 157.819 1043.783 C 154.996 1044.804 152.092 1045.08 149.114 1045.194 C 147.714 1045.249 146.311 1045.336 144.926 1045.561 C 140.217 1046.332 136.539 1048.48 135.09 1052.731 C 134.912 1053.263 134.762 1053.81 134.628 1054.363 C 136.788 1053.307 139.18 1052.668 141.501 1052.196 C 143.489 1051.791 145.497 1051.479 147.505 1051.187 C 150.626 1050.734 153.792 1050.896 156.52 1049.059 C 160.438 1046.425 162.928 1041.998 162.563 1037.33 C 162.45 1040.346 160.655 1042.761 157.819 1043.783 Z " fill="rgb(255,255,255)"/><path d=" M 131.711 1056.224 C 128.689 1058.66 127.226 1062.956 127.26 1066.782 C 127.284 1069.685 128.095 1072.513 129.812 1074.87 C 130.296 1075.538 130.898 1076.16 131.538 1076.678 C 133.855 1078.552 136.975 1079.505 139.921 1079.645 C 140.353 1079.665 141.099 1079.857 141.312 1079.628 C 141.403 1079.531 141.396 1079.355 141.224 1079.054 C 140.896 1078.485 140.444 1078.02 140.092 1077.471 C 139.433 1076.448 138.818 1075.394 138.253 1074.316 C 136.255 1070.509 134.726 1066.369 134.174 1062.089 C 133.851 1059.576 133.991 1056.912 134.599 1054.415 C 133.571 1054.915 132.599 1055.509 131.711 1056.224 Z " fill="rgb(255,255,255)"/><text transform="matrix(0.614,0,0,0.614,145.964,1087.517)" style="font-family:'Exo';font-weight:400;font-size:16px;font-style:normal;font-variant-ligatures:none;fill:#ffffff;stroke:none;">Así de fácil</text></g></svg>