<?xml version="1.0" encoding="UTF-8" standalone="no"?><!-- Generator: Gravit.io --><svg xmlns="http://www.w3.org/2000/svg" xmlns:xlink="http://www.w3.org/1999/xlink" style="isolation:isolate" viewBox="324.859 135.077 35.489 41.296" width="35.489pt" height="41.296pt"><path d=" M 329.699 164.598 L 326.472 164.598 L 326.472 162.177 C 326.472 161.733 326.834 161.371 327.279 161.371 L 329.699 161.371 L 329.699 164.598 L 329.699 164.598 L 329.699 164.598 L 329.699 164.598 L 329.699 164.598 Z  M 326.472 172.34 L 326.472 166.211 L 329.699 166.211 L 329.699 172.34 C 329.699 172.613 329.726 172.883 329.78 173.148 L 327.279 173.148 C 326.834 173.148 326.472 172.786 326.472 172.34 L 326.472 172.34 L 326.472 172.34 L 326.472 172.34 L 326.472 172.34 Z  M 342.603 141.53 C 348.556 141.53 353.426 146.134 353.863 151.957 C 352.52 151.721 351.373 150.776 350.777 149.369 C 349.383 146.077 346.174 143.95 342.603 143.95 C 339.034 143.95 335.826 146.077 334.429 149.369 C 333.836 150.774 332.687 151.721 331.345 151.957 C 331.793 146.135 336.645 141.53 342.603 141.53 L 342.603 141.53 L 342.603 141.53 L 342.603 141.53 L 342.603 141.53 Z  M 342.603 136.69 C 344.383 136.69 345.83 138.137 345.83 139.916 L 345.83 140.323 C 344.781 140.052 343.7 139.916 342.603 139.916 C 341.508 139.916 340.428 140.052 339.377 140.323 L 339.377 139.916 C 339.377 138.137 340.825 136.69 342.603 136.69 L 342.603 136.69 L 342.603 136.69 L 342.603 136.69 L 342.603 136.69 Z  M 357.929 161.371 C 358.374 161.371 358.735 161.733 358.735 162.177 L 358.735 164.598 L 355.51 164.598 L 355.51 161.371 L 357.929 161.371 L 357.929 161.371 L 357.929 161.371 L 357.929 161.371 L 357.929 161.371 Z  M 357.929 173.148 L 355.428 173.148 C 355.48 172.883 355.51 172.613 355.51 172.34 L 355.51 166.211 L 358.735 166.211 L 358.735 172.34 C 358.735 172.786 358.374 173.148 357.929 173.148 L 357.929 173.148 L 357.929 173.148 L 357.929 173.148 L 357.929 173.148 Z  M 336.957 159.758 C 337.403 159.758 337.765 159.397 337.765 158.951 C 337.765 158.506 337.403 158.145 336.957 158.145 C 336.512 158.145 336.151 158.506 336.151 158.951 C 336.151 159.397 336.512 159.758 336.957 159.758 L 336.957 159.758 L 336.957 159.758 L 336.957 159.758 Z  M 335.345 163.791 C 335.345 163.346 335.706 162.985 336.151 162.985 L 349.057 162.985 C 349.502 162.985 349.863 163.346 349.863 163.791 L 349.863 165.405 L 335.345 165.405 L 335.345 163.791 L 335.345 163.791 L 335.345 163.791 L 335.345 163.791 Z  M 349.057 171.534 L 336.152 171.534 L 336.152 167.018 L 349.057 167.018 L 349.057 171.534 L 349.057 171.534 L 349.057 171.534 L 349.057 171.534 Z  M 339.377 158.952 C 339.377 159.397 339.738 159.759 340.184 159.759 L 348.25 159.759 C 348.695 159.759 349.057 159.397 349.057 158.952 C 349.057 158.507 348.695 158.145 348.25 158.145 L 340.184 158.145 C 339.738 158.145 339.377 158.507 339.377 158.952 L 339.377 158.952 Z  M 349.057 161.371 L 336.151 161.371 C 334.816 161.371 333.731 162.456 333.731 163.791 L 333.731 166.211 C 333.731 166.657 334.093 167.018 334.538 167.018 L 334.538 172.34 C 334.538 172.786 334.898 173.148 335.345 173.148 L 349.863 173.148 C 350.309 173.148 350.67 172.786 350.67 172.34 L 350.67 167.018 C 351.115 167.018 351.477 166.657 351.477 166.211 L 351.477 163.791 C 351.477 162.456 350.391 161.371 349.057 161.371 L 349.057 161.371 L 349.057 161.371 L 349.057 161.371 Z  M 351.476 174.76 L 333.731 174.76 C 332.418 174.76 331.311 173.698 331.311 172.34 L 331.311 153.59 C 333.305 153.352 335.07 151.995 335.916 149.999 C 337.057 147.303 339.683 145.562 342.603 145.562 C 345.524 145.562 348.15 147.303 349.292 149.999 C 350.137 151.995 351.902 153.352 353.896 153.59 L 353.896 172.34 C 353.896 173.701 352.787 174.76 351.476 174.76 L 351.476 174.76 L 351.476 174.76 L 351.476 174.76 L 351.476 174.76 Z  M 324.859 162.177 L 324.859 172.34 C 324.859 173.675 325.944 174.76 327.279 174.76 L 330.507 174.76 C 331.262 175.766 332.459 176.373 333.731 176.373 L 351.476 176.373 C 352.749 176.373 353.944 175.766 354.701 174.76 L 357.929 174.76 C 359.263 174.76 360.348 173.675 360.348 172.34 L 360.348 162.177 C 360.348 160.843 359.263 159.758 357.929 159.758 L 355.51 159.758 L 355.51 152.822 C 355.51 147.35 352.136 142.76 347.443 140.856 L 347.443 139.916 C 347.443 137.247 345.272 135.077 342.603 135.077 C 339.935 135.077 337.764 137.247 337.764 139.916 L 337.764 140.856 C 332.916 142.816 329.699 147.552 329.699 152.822 L 329.699 159.758 L 327.279 159.758 C 325.944 159.758 324.859 160.843 324.859 162.177 L 324.859 162.177 L 324.859 162.177 L 324.859 162.177 L 324.859 162.177 Z  M 342.604 148.926 L 344.885 151.208 L 342.604 153.489 L 340.323 151.208 L 342.604 148.926 L 342.604 148.926 Z  M 342.034 155.201 C 342.192 155.358 342.398 155.438 342.604 155.438 C 342.811 155.438 343.017 155.358 343.174 155.201 L 346.596 151.778 C 346.913 151.463 346.913 150.953 346.596 150.638 L 343.174 147.215 C 342.859 146.901 342.349 146.901 342.034 147.215 L 338.612 150.638 C 338.296 150.952 338.296 151.463 338.612 151.778 L 342.034 155.201 L 342.034 155.201 Z " fill-rule="evenodd" fill="rgb(255,255,255)"/></svg>