<?xml version="1.0" encoding="UTF-8" standalone="no"?><!-- Generator: Gravit.io --><svg xmlns="http://www.w3.org/2000/svg" xmlns:xlink="http://www.w3.org/1999/xlink" style="isolation:isolate" viewBox="379.098 136.002 25.913 39.806" width="25.913pt" height="39.806pt"><g><path d=" M 381.949 162.221 L 383.212 162.221 L 383.212 163.485 L 381.949 163.485 L 381.949 162.221 Z " fill="rgb(255,255,255)"/><path d=" M 383.212 166.011 L 383.212 164.747 L 381.949 164.747 L 381.949 166.011 C 381.949 169.841 385.066 172.958 388.897 172.958 L 388.897 171.695 C 385.763 171.695 383.212 169.145 383.212 166.011 Z " fill="rgb(255,255,255)"/><path d=" M 403.423 157.168 L 399.001 157.168 L 399.001 161.59 L 396.476 161.59 L 396.476 157.168 L 392.054 157.168 L 392.054 154.643 L 396.476 154.643 L 396.476 150.221 L 399.001 150.221 L 399.001 154.643 L 403.423 154.643 L 403.423 157.168 Z  M 397.107 166.011 C 397.107 170.537 393.423 174.221 388.897 174.221 C 384.37 174.221 380.687 170.537 380.687 166.011 L 380.687 156.537 L 390.791 156.537 L 390.791 158.432 L 395.212 158.432 L 395.212 162.853 L 397.107 162.853 L 397.107 166.011 Z  M 388.897 137.59 C 393.423 137.59 397.107 141.273 397.107 145.801 L 397.107 148.958 L 395.212 148.958 L 395.212 153.379 L 390.791 153.379 L 390.791 155.273 L 380.687 155.273 L 380.687 145.801 C 380.687 141.273 384.37 137.59 388.897 137.59 Z  M 400.265 153.379 L 400.265 148.958 L 398.37 148.958 L 398.37 145.801 C 398.37 140.577 394.12 136.327 388.897 136.327 C 383.673 136.327 379.423 140.577 379.423 145.801 L 379.423 166.011 C 379.423 171.234 383.673 175.483 388.897 175.483 C 394.12 175.483 398.37 171.234 398.37 166.011 L 398.37 162.853 L 400.265 162.853 L 400.265 158.432 L 404.686 158.432 L 404.686 153.379 L 400.265 153.379 Z " fill="rgb(255,255,255)"/><path d=" M 403.423 157.168 L 399.001 157.168 L 399.001 161.59 L 396.476 161.59 L 396.476 157.168 L 392.054 157.168 L 392.054 154.643 L 396.476 154.643 L 396.476 150.221 L 399.001 150.221 L 399.001 154.643 L 403.423 154.643 L 403.423 157.168 Z  M 397.107 166.011 C 397.107 170.537 393.423 174.221 388.897 174.221 C 384.37 174.221 380.687 170.537 380.687 166.011 L 380.687 156.537 L 390.791 156.537 L 390.791 158.432 L 395.212 158.432 L 395.212 162.853 L 397.107 162.853 L 397.107 166.011 Z  M 388.897 137.59 C 393.423 137.59 397.107 141.273 397.107 145.801 L 397.107 148.958 L 395.212 148.958 L 395.212 153.379 L 390.791 153.379 L 390.791 155.273 L 380.687 155.273 L 380.687 145.801 C 380.687 141.273 384.37 137.59 388.897 137.59 Z  M 400.265 153.379 L 400.265 148.958 L 398.37 148.958 L 398.37 145.801 C 398.37 140.577 394.12 136.327 388.897 136.327 C 383.673 136.327 379.423 140.577 379.423 145.801 L 379.423 166.011 C 379.423 171.234 383.673 175.483 388.897 175.483 C 393.735 175.483 397.738 171.838 398.302 167.149 C 398.347 166.776 398.37 166.396 398.37 166.011 L 398.37 162.853 L 400.265 162.853 L 400.265 158.432 L 404.686 158.432 L 404.686 153.379 L 400.265 153.379 Z " fill-rule="evenodd" fill="none" vector-effect="non-scaling-stroke" stroke-width="0.65" stroke="rgb(255,255,255)" stroke-linejoin="miter" stroke-linecap="square" stroke-miterlimit="3"/></g></svg>