<?xml version="1.0" encoding="UTF-8" standalone="no"?><!-- Generator: Gravit.io --><svg xmlns="http://www.w3.org/2000/svg" xmlns:xlink="http://www.w3.org/1999/xlink" style="isolation:isolate" viewBox="107 52.64 37 24" width="37pt" height="24pt"><path d=" M 144 55.665 C 144 57.31 142.669 58.64 141.022 58.64 L 109.979 58.64 C 108.335 58.64 107 57.31 107 55.665 L 107 55.622 C 107 53.978 108.335 52.64 109.979 52.64 L 141.022 52.64 C 142.669 52.64 144 53.978 144 55.622 L 144 55.665 L 144 55.665 Z  M 144 64.665 C 144 66.31 142.669 67.64 141.022 67.64 L 109.979 67.64 C 108.335 67.64 107 66.31 107 64.665 L 107 64.622 C 107 62.978 108.335 61.64 109.979 61.64 L 141.022 61.64 C 142.669 61.64 144 62.978 144 64.622 L 144 64.665 L 144 64.665 Z  M 144 73.665 C 144 75.31 142.669 76.64 141.022 76.64 L 109.979 76.64 C 108.335 76.64 107 75.31 107 73.665 L 107 73.622 C 107 71.978 108.335 70.64 109.979 70.64 L 141.022 70.64 C 142.669 70.64 144 71.978 144 73.622 L 144 73.665 Z " fill-rule="evenodd" fill="rgb(239,64,96)"/></svg>