<svg xmlns="http://www.w3.org/2000/svg" viewBox="0 0 29.61 32.17"><defs><style>.cls-1{fill:#a0a1a4;}</style></defs><g id="Capa_2" data-name="Capa 2"><g id="Capa_1-2" data-name="Capa 1"><g id="YP6XNB"><path class="cls-1" d="M21,28a18.06,18.06,0,0,0-3.2-8.64c-2.16-3.09-4.28-3.66-7.72-2.14a7.86,7.86,0,0,0-1,.53c-2.92,1.8-5.62,3.85-7.17,7C1,26.54,1.44,28,3.3,28.65a11.8,11.8,0,0,0,4.34.81c2.72-.06,5.21.19,7.44,2,1.43,1.16,3.12.72,4.64-.16C21.06,30.54,20.9,29.2,21,28ZM26.23,7c0-1.56-.22-2.76-1.39-3.43a3.28,3.28,0,0,0-3.59.35,8.43,8.43,0,0,0-3.9,7.06,3,3,0,0,0,1.35,3,3.19,3.19,0,0,0,3.5-.3A8.66,8.66,0,0,0,26.23,7Zm-10-1.16.3-.11A25,25,0,0,0,15,1.46a2.58,2.58,0,0,0-4.41-.39A9.24,9.24,0,0,0,8.84,4.61a7.19,7.19,0,0,0,1,6.11,2.67,2.67,0,0,0,4.46.41A7.59,7.59,0,0,0,16.19,5.8ZM7.85,13.22A8.94,8.94,0,0,0,5.66,8.14a3,3,0,0,0-4.95.75,7.16,7.16,0,0,0,1.48,8.24,2.81,2.81,0,0,0,4.38-.53A19.5,19.5,0,0,0,7.85,13.22ZM29.61,18c0-2.51-1.78-3.83-4.2-3.06a7.19,7.19,0,0,0-4.63,6.19c-.07,2.65,1.8,4,4.29,3.15A7.37,7.37,0,0,0,29.61,18Z"/><path class="cls-1" d="M21,28c-.06,1.24.1,2.58-1.24,3.35-1.52.88-3.21,1.32-4.64.16-2.23-1.82-4.72-2.07-7.44-2a11.8,11.8,0,0,1-4.34-.81C1.44,28,1,26.54,1.88,24.74c1.55-3.18,4.25-5.23,7.17-7a7.86,7.86,0,0,1,1-.53c3.44-1.52,5.56-.95,7.72,2.14A18.06,18.06,0,0,1,21,28Z"/><path class="cls-1" d="M26.23,7a8.66,8.66,0,0,1-4,6.69,3.19,3.19,0,0,1-3.5.3,3,3,0,0,1-1.35-3,8.43,8.43,0,0,1,3.9-7.06,3.28,3.28,0,0,1,3.59-.35C26,4.2,26.22,5.4,26.23,7Z"/><path class="cls-1" d="M16.19,5.8a7.59,7.59,0,0,1-1.93,5.33,2.67,2.67,0,0,1-4.46-.41,7.19,7.19,0,0,1-1-6.11,9.24,9.24,0,0,1,1.74-3.54A2.58,2.58,0,0,1,15,1.46a25,25,0,0,1,1.5,4.23Z"/><path class="cls-1" d="M7.85,13.22A19.5,19.5,0,0,1,6.57,16.6a2.81,2.81,0,0,1-4.38.53A7.16,7.16,0,0,1,.71,8.89a3,3,0,0,1,5-.75A8.94,8.94,0,0,1,7.85,13.22Z"/><path class="cls-1" d="M29.61,18a7.37,7.37,0,0,1-4.54,6.28c-2.49.87-4.36-.5-4.29-3.15A7.19,7.19,0,0,1,25.41,15C27.83,14.19,29.64,15.51,29.61,18Z"/></g></g></g></svg>