<?xml version="1.0" encoding="UTF-8" standalone="no"?><!-- Generator: Gravit.io --><svg xmlns="http://www.w3.org/2000/svg" xmlns:xlink="http://www.w3.org/1999/xlink" style="isolation:isolate" viewBox="0 768.093 1280 236.759" width="1280pt" height="236.759pt"><g><path d=" M 0 1004.64 L 1280 1004.64 L 1280 768.639 L 0 768.639 L 0 1004.64 Z " fill="rgb(239,64,96)"/><path d=" M 22 1004.852 L 22 1004.64 L 42.864 1004.852 L 53.174 994.566 L 42.881 984.274 L 53.185 973.978 L 42.888 963.682 L 53.186 953.385 L 42.887 943.087 L 53.188 932.79 L 42.888 922.491 L 53.188 912.194 L 42.888 901.897 L 53.188 891.598 L 42.888 881.3 L 53.188 871.002 L 42.888 860.705 L 53.188 850.408 L 42.888 840.109 L 53.188 829.811 L 42.888 819.514 L 53.188 809.215 L 42.888 798.918 L 53.188 788.62 L 42.888 778.322 L 53.188 768.093 L 22 768.639 L 0 768.639 L 0 1004.852 L 22 1004.852 Z " fill="rgb(255,255,255)"/></g></svg>