<svg width="500" height="500" viewBox="0 0 500 500" fill="none" xmlns="http://www.w3.org/2000/svg">
<path d="M212.1 329.9L188.2 354C187.9 354.3 187.5 354.4 187.3 354.4C187.1 354.4 186.7 354.3 186.4 354L177.5 345.1C175 342.6 171 342.6 168.5 345.1C166 347.6 166 351.6 168.5 354.1L177.4 363C180.1 365.7 183.6 367.1 187.3 367.1C191.1 367.1 194.6 365.6 197.3 362.9L221.2 338.8C223.7 336.3 223.7 332.2 221.2 329.8C218.7 327.3 214.6 327.4 212.1 329.9ZM221.2 155.8C218.7 153.3 214.6 153.3 212.2 155.8L188.3 179.9C188 180.2 187.6 180.3 187.4 180.3C187.2 180.3 186.8 180.2 186.5 179.9L177.6 171C175.1 168.5 171.1 168.5 168.6 171C166.1 173.5 166.1 177.5 168.6 180L177.5 188.9C180.2 191.6 183.7 193 187.4 193C191.2 193 194.7 191.5 197.4 188.8L221.3 164.7C223.7 162.3 223.7 158.3 221.2 155.8ZM221.2 242.8C218.7 240.3 214.6 240.3 212.2 242.8L188.3 266.9C188 267.2 187.6 267.3 187.4 267.3C187.2 267.3 186.8 267.2 186.5 266.9L177.6 258C175.1 255.5 171.1 255.5 168.6 258C166.1 260.5 166.1 264.5 168.6 267L177.5 275.9C180.2 278.6 183.7 280 187.4 280C191.2 280 194.7 278.5 197.4 275.8L221.3 251.7C223.7 249.3 223.7 245.3 221.2 242.8ZM181.1 148.7H160.3C152.5 148.7 146.2 155 146.2 162.8V208.9C146.2 216.7 152.5 223 160.3 223H206.4C214.2 223 220.5 216.7 220.5 208.9V192.7C220.5 189.2 217.6 186.3 214.1 186.3C210.6 186.3 207.7 189.2 207.7 192.7V208.9C207.7 209.6 207.1 210.2 206.4 210.2H160.3C159.6 210.2 159 209.6 159 208.9V162.8C159 162.1 159.6 161.5 160.3 161.5H181.1C184.6 161.5 187.5 158.6 187.5 155.1C187.5 151.6 184.6 148.7 181.1 148.7ZM377.1 40.3H347.8C344.3 40.3 341.4 43.2 341.4 46.7C341.4 50.2 344.3 53.1 347.8 53.1H377.1C387.6 53.1 396.2 61.7 396.2 72.2V431.7C396.2 442.2 387.6 450.8 377.1 450.8H109.8C99.3 450.8 90.7 442.2 90.7 431.7V72.1C90.7 61.6 99.3 53 109.8 53H158.2V65.7H114C108.1 65.7 103.4 70.5 103.4 76.3V339.5C103.4 343 106.3 345.9 109.8 345.9C113.3 345.9 116.2 343 116.2 339.5V78.5H146.6C145.9 80.5 145.5 82.6 145.5 84.8V102.5C145.5 113 154.1 121.6 164.6 121.6H322.4C332.9 121.6 341.5 113 341.5 102.5V84.9C341.5 82.7 341.1 80.5 340.4 78.6H370.8V358.9H337.6C320 358.9 305.7 373.2 305.7 390.8V424H116.2V365.4C116.2 361.9 113.3 359 109.8 359C106.3 359 103.4 361.9 103.4 365.4V426C103.4 431.9 108.2 436.6 114 436.6H312.1C313.8 436.6 315.4 435.9 316.6 434.7L381.6 369.7C382.7 368.6 383.4 367.1 383.5 365.6C383.5 365.5 383.5 76.5 383.5 76.4C383.5 70.5 378.7 65.8 372.9 65.8H328.7V48C328.7 36.5 319.3 27.1 307.8 27.1H179C170.2 27.1 162.7 32.5 159.6 40.2H109.7C92.1 40.2 77.8 54.5 77.8 72.1V431.6C77.8 449.2 92.1 463.5 109.7 463.5H377.1C394.7 463.5 409 449.2 409 431.6V72.1C409 54.6 394.7 40.3 377.1 40.3ZM318.5 414.8V390.7C318.5 380.2 327.1 371.6 337.6 371.6H361.7L318.5 414.8ZM171 48C171 43.5 174.6 39.9 179.1 39.9H307.9C312.4 39.9 316 43.5 316 48V71.5C316 76 312.4 79.6 307.9 79.6H179C174.5 79.6 170.9 76 170.9 71.5L171 48ZM158.2 84.9C158.2 83.1 158.9 81.5 160.1 80.4C163.4 87.5 170.6 92.4 179 92.4H307.8C316.1 92.4 323.3 87.5 326.7 80.4C327.9 81.6 328.6 83.2 328.6 84.9V102.6C328.6 106.1 325.8 108.9 322.3 108.9H164.6C161.1 108.9 158.3 106.1 158.3 102.6L158.2 84.9ZM146.2 295.8C146.2 303.6 152.5 309.9 160.3 309.9H206.4C214.2 309.9 220.5 303.6 220.5 295.8V279.6C220.5 276.1 217.6 273.2 214.1 273.2C210.6 273.2 207.7 276.1 207.7 279.6V295.8C207.7 296.5 207.1 297.1 206.4 297.1H160.3C159.6 297.1 159 296.5 159 295.8V249.7C159 249 159.6 248.4 160.3 248.4H181.1C184.6 248.4 187.5 245.5 187.5 242C187.5 238.5 184.6 235.6 181.1 235.6H160.3C152.5 235.6 146.2 241.9 146.2 249.7V295.8V295.8ZM243.1 335.5H334.3C337.8 335.5 340.7 332.6 340.7 329.1C340.7 325.6 337.8 322.7 334.3 322.7H243.1C239.6 322.7 236.7 325.6 236.7 329.1C236.7 332.6 239.6 335.5 243.1 335.5ZM146.2 382.8C146.2 390.6 152.5 396.9 160.3 396.9H206.4C214.2 396.9 220.5 390.6 220.5 382.8V366.6C220.5 363.1 217.6 360.2 214.1 360.2C210.6 360.2 207.7 363.1 207.7 366.6V382.8C207.7 383.5 207.1 384.1 206.4 384.1H160.3C159.6 384.1 159 383.5 159 382.8V336.7C159 336 159.6 335.4 160.3 335.4H181.1C184.6 335.4 187.5 332.5 187.5 329C187.5 325.5 184.6 322.6 181.1 322.6H160.3C152.5 322.6 146.2 328.9 146.2 336.7V382.8V382.8ZM243.1 361H296C299.5 361 302.4 358.1 302.4 354.6C302.4 351.1 299.5 348.2 296 348.2H243.2C239.7 348.2 236.8 351.1 236.8 354.6C236.8 358.1 239.6 361 243.1 361ZM243.1 274H296C299.5 274 302.4 271.1 302.4 267.6C302.4 264.1 299.5 261.2 296 261.2H243.2C239.7 261.2 236.8 264.1 236.8 267.6C236.8 271.1 239.6 274 243.1 274ZM243.1 248.4H334.3C337.8 248.4 340.7 245.5 340.7 242C340.7 238.5 337.8 235.6 334.3 235.6H243.1C239.6 235.6 236.7 238.5 236.7 242C236.7 245.5 239.6 248.4 243.1 248.4ZM243.1 187H334.3C337.8 187 340.7 184.1 340.7 180.6C340.7 177.1 337.8 174.2 334.3 174.2H243.1C239.6 174.2 236.7 177.1 236.7 180.6C236.7 184.1 239.6 187 243.1 187ZM243.1 161.4H334.3C337.8 161.4 340.7 158.5 340.7 155C340.7 151.5 337.8 148.6 334.3 148.6H243.1C239.6 148.6 236.7 151.5 236.7 155C236.7 158.5 239.6 161.4 243.1 161.4Z" fill="#010101"/>
</svg>
