<svg xmlns="http://www.w3.org/2000/svg" viewBox="0 0 18.57 43.37"><defs><style>.cls-1{fill:#a0a1a4;}</style></defs><g id="Capa_2" data-name="Capa 2"><g id="Capa_1-2" data-name="Capa 1"><g id="pj8g3y"><path class="cls-1" d="M15.49,43.37H3.06c-.25-1.44-.5-2.87-.74-4.3-.38-2.26-.78-4.52-1.1-6.8-.36-2.5-.7-5-.91-7.52S0,20,0,17.54A25.86,25.86,0,0,1,1.67,8,14.76,14.76,0,0,1,9,.09a.65.65,0,0,1,.67,0,15.07,15.07,0,0,1,8,10,31.55,31.55,0,0,1,1,8,65,65,0,0,1-.66,9.86c-.62,4.32-1.33,8.62-2,12.94C15.78,41.7,15.63,42.52,15.49,43.37Zm-4.72-6.23a1.21,1.21,0,0,0,0-.14c0-2.18,0-4.36,0-6.54a6,6,0,0,0-.42-1.79,1.11,1.11,0,0,0-2.13,0,7,7,0,0,0-.47,1.94c0,2.14,0,4.28,0,6.43a1,1,0,0,0,0,.12Z"/></g></g></g></svg>