<svg width="500" height="500" viewBox="0 0 500 500" fill="none" xmlns="http://www.w3.org/2000/svg">
<path d="M221 161.9H206.4V175.6H221V161.9Z" fill="#010101"/>
<path d="M250.1 110.9H235.5V124.6H250.1V110.9Z" fill="#010101"/>
<path d="M308.5 456L312.1 440.5H357.5V426.8H315.2L318.8 411.3H328.3V397.6H322L326.7 377.3C340.7 316.6 340.3 252.6 325.4 192.1C310.5 131.6 281.2 74.7 240.7 27.4L235.2 21L230.1 27.7C193.8 75.3 168 131.4 155.4 190C142.8 248.5 143.2 310.3 156.7 368.6L163.4 397.7H156.3V411.4H166.6L170.2 426.9H135.4V440.6H173.3L176.9 456.1H85.2V469.8H400.3V456H308.5ZM164.1 218.4H170.8V204.7H166.3C166.7 202.3 167.2 199.8 167.7 197.4H185.4V183.7H170.8C171.5 181 172.2 178.2 172.9 175.5H199.1V161.8H176.7C189.6 119.2 209.7 78.7 235.8 42.8C248.2 57.9 259.4 74 269.3 90.8H250V104.5H277C278.1 106.6 279.3 108.7 280.4 110.9H257.3V124.6H287.1C288.4 127.3 289.6 130.1 290.8 132.8H271.9V146.5H296.5C300.7 157.1 304.4 167.9 307.6 178.9L159.9 272.9C160.1 254.5 161.5 236.3 164.1 218.4ZM160.1 288.8L311.4 192.5C311.6 193.5 311.9 194.4 312.1 195.4C312.6 197.3 313 199.2 313.5 201.2L160.6 300.9C160.4 296.9 160.2 292.9 160.1 288.8ZM163.2 327.8C162.7 324 162.3 320.2 161.9 316.4L316.5 215.6C317.1 218.6 317.6 221.6 318.1 224.6L163.2 327.8ZM250.1 456H234.6V419.2C234.6 415.1 238.1 411.7 242.3 411.7C246.5 411.7 250 415.1 250 419.2L250.1 456ZM263.7 456V419.2C263.7 409.9 257.6 402 249.1 399.1V355H235.4V399.3C226.9 402.1 220.8 410.1 220.8 419.4V456H190.7L170 365.5C168.3 357.9 166.7 350.3 165.4 342.6L320.2 239.4C325.8 284.3 323.5 330.2 313.3 374.3L294.5 456H263.7Z" fill="#010101"/>
</svg>
