<svg width="500" height="500" viewBox="0 0 500 500" fill="none" xmlns="http://www.w3.org/2000/svg">
<path d="M15.2998 192C36.4998 195.8 58.1998 195.9 79.6998 194.8C85.8998 194.5 92.0998 194.1 98.2998 193.6C125.1 191.6 152.5 188.8 176.2 205.2C189.4 214.4 199.1 227.6 208.4 240.9C182.4 241 156.3 242.1 130.3 241.4C105.8 240.7 81.7998 236.6 59.5998 225.2C45.0998 217.8 29.2998 210.1 18.4998 196.8" fill="#FEDD33"/>
<path d="M476.4 97.7C475.5 122.8 460.6 142.8 437 151.3C413.5 159.8 389.4 162.1 364.7 163C353.1 163.5 341.4 164.2 329.9 166C290.8 172.4 260.2 190.3 248.2 225.6C246.7 230 245.5 234.6 244.3 239.2C262.3 230.4 282.1 225.1 301.4 221.2C317.9 217.8 334.6 215.2 351.3 212.8C377.2 209 403.5 210.4 426.2 195.1C458.8 173.2 479.5 136.5 476.4 97.7Z" fill="#EF404F"/>
<path d="M183.1 342.4C183.3 366.5 190 390 204.3 409.6C208.3 415.1 213.3 420.3 218.6 424.6C237.8 440.2 263.8 448.1 288.3 449.3C291.9 449.5 298.1 451.1 299.8 449.2C300.6 448.4 300.5 446.9 299.1 444.4C296.4 439.7 292.6 435.8 289.7 431.2C284.2 422.7 279.1 413.9 274.4 405C257.8 373.4 245.1 339 240.5 303.4C237.8 282.5 239 260.4 244 239.6C235.5 243.8 227.4 248.7 220 254.6C195 274.9 182.8 310.6 183.1 342.4Z" fill="#39685F"/>
</svg>
