<?xml version="1.0" encoding="UTF-8" standalone="no"?><!-- Generator: Gravit.io --><svg xmlns="http://www.w3.org/2000/svg" xmlns:xlink="http://www.w3.org/1999/xlink" style="isolation:isolate" viewBox="266.422 140.165 35.005 35.005" width="35.005pt" height="35.005pt"><path d=" M 268.037 161.954 C 268.255 161.735 268.575 161.654 268.871 161.74 L 273.786 163.186 C 273.283 164.066 272.775 165.039 272.27 166.092 L 268.154 163.242 C 267.722 162.943 267.665 162.325 268.037 161.954 L 268.037 161.954 L 268.037 161.954 L 268.037 161.954 Z  M 282.915 157.711 C 282.647 157.978 282.647 158.41 282.915 158.678 C 283.183 158.945 283.614 158.945 283.882 158.678 C 284.149 158.41 284.149 157.978 283.882 157.711 C 283.614 157.444 283.183 157.444 282.915 157.711 L 282.915 157.711 L 282.915 157.711 Z  M 295.643 172.471 C 295.691 172.768 295.593 173.073 295.38 173.286 C 294.973 173.692 294.294 173.642 293.955 173.173 L 285.667 161.728 L 292.742 154.652 L 295.643 172.471 L 295.643 172.471 L 295.643 172.471 L 295.643 172.471 Z  M 296.452 155.777 C 296.718 155.511 297.151 155.511 297.418 155.777 C 297.685 156.045 297.685 156.477 297.418 156.745 L 294.88 159.281 L 294.611 157.619 L 296.452 155.777 L 296.452 155.777 L 296.452 155.777 L 296.452 155.777 Z  M 279.64 173.557 C 279.271 173.925 278.654 173.875 278.351 173.44 L 275.501 169.323 C 276.556 168.817 277.529 168.309 278.408 167.808 L 279.852 172.723 C 279.939 173.019 279.858 173.338 279.64 173.557 L 279.64 173.557 L 279.64 173.557 L 279.64 173.557 Z  M 299.393 145.328 C 299.174 144.574 298.787 143.903 298.239 143.354 C 297.691 142.807 297.019 142.419 296.265 142.2 C 297.255 141.699 298.921 141.138 299.689 141.904 C 300.295 142.511 300.145 143.846 299.393 145.328 L 299.393 145.328 L 299.393 145.328 L 299.393 145.328 Z  M 268.42 147.639 C 267.953 147.3 267.899 146.622 268.308 146.213 C 268.521 146.001 268.826 145.901 269.122 145.95 L 286.941 148.851 L 279.866 155.927 L 268.42 147.639 L 268.42 147.639 L 268.42 147.639 L 268.42 147.639 Z  M 284.849 144.176 C 285.117 143.908 285.548 143.908 285.816 144.176 C 286.083 144.443 286.083 144.875 285.816 145.142 L 283.974 146.982 L 282.312 146.713 L 284.849 144.176 L 284.849 144.176 L 284.849 144.176 L 284.849 144.176 Z  M 286.782 153.843 L 284.848 155.777 C 284.581 156.044 284.581 156.477 284.848 156.743 C 285.116 157.011 285.548 157.011 285.815 156.743 L 287.749 154.81 C 288.016 154.543 288.016 154.111 287.749 153.843 C 287.481 153.576 287.05 153.576 286.782 153.843 L 286.782 153.843 Z  M 281.611 163.85 C 280.859 164.602 279.757 165.415 278.338 166.265 C 276.494 167.37 274.31 168.416 272.341 169.253 C 273.201 167.229 274.267 165.012 275.396 163.145 C 276.22 161.779 277.011 160.715 277.744 159.982 C 294.445 143.322 293.455 144.182 294.468 143.371 C 295.593 143.299 296.582 143.633 297.272 144.321 C 297.96 145.011 298.294 146.001 298.223 147.125 C 297.411 148.141 298.259 147.16 281.611 163.85 L 281.611 163.85 L 281.611 163.85 L 281.611 163.85 Z  M 293.787 142.166 C 292.613 143.074 292.293 143.542 288.132 147.66 L 285.638 147.254 L 286.783 146.109 C 287.584 145.307 287.584 144.011 286.783 143.209 C 285.981 142.407 284.683 142.406 283.882 143.209 L 280.648 146.441 L 269.342 144.6 C 268.611 144.482 267.863 144.724 267.34 145.247 C 266.335 146.252 266.472 147.916 267.619 148.746 L 278.886 156.906 L 276.777 159.016 C 276.054 159.738 275.293 160.733 274.511 161.974 L 269.255 160.429 C 268.481 160.201 267.643 160.415 267.07 160.986 C 266.095 161.962 266.242 163.582 267.374 164.366 L 271.683 167.349 C 270.933 169.004 270.477 170.2 270.456 170.256 C 270.361 170.507 270.421 170.792 270.612 170.981 C 270.803 171.173 271.087 171.232 271.338 171.138 C 271.394 171.116 272.59 170.66 274.246 169.91 L 277.227 174.219 C 278.013 175.353 279.633 175.497 280.607 174.522 C 281.179 173.95 281.392 173.113 281.164 172.337 L 279.619 167.083 C 280.861 166.3 281.855 165.539 282.578 164.817 L 284.687 162.707 L 292.847 173.974 C 293.679 175.124 295.342 175.258 296.347 174.253 C 296.87 173.73 297.111 172.982 296.993 172.251 L 295.152 160.945 L 298.384 157.712 C 299.187 156.911 299.187 155.612 298.384 154.81 C 297.583 154.01 296.287 154.01 295.485 154.81 L 294.339 155.955 L 293.933 153.461 C 298.056 149.297 298.517 148.984 299.425 147.81 C 299.426 147.809 299.427 147.807 299.429 147.806 C 301.538 145.073 302.031 142.313 300.656 140.937 C 299.281 139.562 296.52 140.056 293.787 142.166 L 293.787 142.166 L 293.787 142.166 L 293.787 142.166 Z  M 290.649 149.976 L 288.715 151.91 C 288.448 152.177 288.448 152.611 288.715 152.876 C 288.983 153.144 289.415 153.144 289.682 152.876 L 291.616 150.943 C 291.883 150.676 291.883 150.244 291.616 149.976 C 291.349 149.709 290.917 149.709 290.649 149.976 Z " fill-rule="evenodd" fill="rgb(255,255,255)"/></svg>