<svg xmlns="http://www.w3.org/2000/svg" viewBox="0 0 15.07 16.43"><defs><style>.cls-1{fill:#fff;}</style></defs><g id="Capa_2" data-name="Capa 2"><g id="Capa_1-2" data-name="Capa 1"><g id="AJiv3t"><path d="M3.36,5.34V4.07a4.08,4.08,0,0,1,8.16,0c0,.41,0,.82,0,1.28h.86a1.3,1.3,0,0,1,1.41,1.21q.48,3.48.94,7c.1.77.19,1.54.3,2.31.08.59.08.61-.54.61H.4C.08,16.44,0,16.32,0,16c.42-3.14.83-6.27,1.25-9.41A1.29,1.29,0,0,1,2.63,5.34Zm8.82,5.89-3.68,1v.53c0,.79-.34,1.23-1,1.24s-1-.44-1-1.22v-.69A8.51,8.51,0,0,1,1.33,10L.55,15.91h14l-.81-6c-.36.32-.77.52-.88.83a1.78,1.78,0,0,0,.06,1.82.71.71,0,0,1,.1.58c-.25.64-.55,1.25-.84,1.88-.1.23-.25.3-.51.18-.42-.21-.85-.4-1.29-.59s-.38-.29-.23-.6c.24-.49.47-1,.68-1.49a.9.9,0,0,1,.77-.67C12,11.84,12.23,11.61,12.18,11.23ZM9.79,5.92H5.07V8.33c0,.35-.06.72-.4.86a1.07,1.07,0,0,1-.84,0,1.08,1.08,0,0,1-.45-.76c0-.84,0-1.69,0-2.57H2.67c-.56,0-.83.21-.91.75C1.64,7.41,1.53,8.2,1.47,9a.83.83,0,0,0,.26.6,7.34,7.34,0,0,0,4.74,2,9.73,9.73,0,0,0,5-.72c1.07-.55.89-.29.86-1.47a2.83,2.83,0,0,0-.81-2,5.23,5.23,0,0,1,0,1.06,1.33,1.33,0,0,1-.44.74c-.57.38-1.26-.07-1.27-.82S9.79,6.76,9.79,5.92ZM5.08,5.31H9.79c0-.44,0-.85,0-1.26A2.34,2.34,0,0,0,8.15,1.87a2.36,2.36,0,0,0-2.61.85A3.91,3.91,0,0,0,5.08,5.31ZM11,6.09h0c0-.75,0-1.5,0-2.25A3.54,3.54,0,0,0,7.7.5,3.38,3.38,0,0,0,4,3.2a42.33,42.33,0,0,0-.15,5.29c0,.11.23.21.36.32a2.85,2.85,0,0,0,.31-.38.84.84,0,0,0,0-.32c0-1.37,0-2.74,0-4.11a2.88,2.88,0,0,1,5.75.15c0,1.39,0,2.78,0,4.17,0,.24,0,.48.33.49s.35-.24.35-.48Zm2,3.78.12.09c.18-.31.51-.62.5-.91a23.22,23.22,0,0,0-.32-2.49.69.69,0,0,0-.6-.66,8.08,8.08,0,0,0-1.1,0,1.13,1.13,0,0,0,.35,1.19,2.31,2.31,0,0,1,.64,1A15,15,0,0,1,13,9.87Zm-1.21,4.84a13.09,13.09,0,0,0,.7-1.61.85.85,0,0,0-.32-.75.79.79,0,0,0-.73.25,13.1,13.1,0,0,0-.76,1.6ZM7.11,12.13a4.3,4.3,0,0,0,0,1c0,.16.27.39.39.38A.64.64,0,0,0,8,13.08a4.27,4.27,0,0,0,0-.95Z"/><path class="cls-1" d="M5.08,5.31a3.91,3.91,0,0,1,.46-2.59,2.36,2.36,0,0,1,2.61-.85A2.34,2.34,0,0,1,9.79,4.05c0,.41,0,.82,0,1.26Z"/><path class="cls-1" d="M11,3.84c0,.75,0,1.5,0,2.25h0V8.33c0,.24,0,.48-.35.48s-.33-.25-.33-.49c0-1.39,0-2.78,0-4.17A2.88,2.88,0,0,0,4.57,4c0,1.37,0,2.74,0,4.11a.84.84,0,0,1,0,.32,2.85,2.85,0,0,1-.31.38c-.13-.11-.36-.21-.36-.32A42.33,42.33,0,0,1,4,3.2,3.38,3.38,0,0,1,7.7.5"/><path class="cls-1" d="M13,9.87a15,15,0,0,0-.41-1.76,2.31,2.31,0,0,0-.64-1,1.13,1.13,0,0,1-.35-1.19,8.08,8.08,0,0,1,1.1,0,.69.69,0,0,1,.6.66,23.22,23.22,0,0,1,.32,2.49c0,.29-.32.6-.5.91Z"/><path class="cls-1" d="M7.11,12.13H8a4.27,4.27,0,0,1,0,.95.64.64,0,0,1-.43.39"/></g></g></g></svg>