<svg xmlns="http://www.w3.org/2000/svg" viewBox="0 0 35.59 35.59"><defs><style>.cls-1{fill:#2d73b5;}</style></defs><g id="Capa_2" data-name="Capa 2"><g id="Capa_1-2" data-name="Capa 1"><path class="cls-1" d="M17.83,0A17.8,17.8,0,1,0,35.59,17.78,17.82,17.82,0,0,0,17.83,0Zm9.76,10.85-10,8.55-10-8.55Zm.06,13.8h-.33q-9.57,0-19.15,0A1.85,1.85,0,0,1,7,24.28a1.29,1.29,0,0,1-.51-1V12.29a3.35,3.35,0,0,1,.07-.45l1.72,1.47,8.69,7.45a.92.92,0,0,0,1.4,0l8.84-7.58c.58-.51,1.17-1,1.82-1.55a4.63,4.63,0,0,1,.09.64V23.19A1.49,1.49,0,0,1,27.65,24.65Z"/></g></g></svg>