<svg xmlns="http://www.w3.org/2000/svg" viewBox="0 0 18.28 14.7"><g id="Capa_2" data-name="Capa 2"><g id="Capa_1-2" data-name="Capa 1"><path d="M6.31,2.46a5.47,5.47,0,0,1,0-.59A2.08,2.08,0,0,1,8.36,0h1.75a2.1,2.1,0,0,1,2,2.08c0,.12,0,.24,0,.37h4.63A1.47,1.47,0,0,1,18.28,4c0,1.83,0,3.66,0,5.48,0,1.26,0,2.51,0,3.76a1.42,1.42,0,0,1-1.09,1.45,1.49,1.49,0,0,1-.43,0H7.47c-2,0-4,0-6,0A1.44,1.44,0,0,1,0,13.23C0,10.82,0,8.42,0,6c0-.68,0-1.36,0-2A1.48,1.48,0,0,1,1.53,2.46c1.53,0,3.07,0,4.61,0Zm6,11.5V3.21H6V14Zm-9,0V3.21H2.92A2.32,2.32,0,0,1,.75,5.38v6.41A2.32,2.32,0,0,1,2.92,14h.37ZM17.52,5.38A2.33,2.33,0,0,1,15.35,3.2H15V14h.37a2.32,2.32,0,0,1,2.16-2.17ZM14.24,14V3.21H13.07V14Zm-9,0V3.21H4V14Zm6.19-11.5V2.05A1.33,1.33,0,0,0,10.28.78c-.67-.05-1.36,0-2,0H8.16A1.41,1.41,0,0,0,7.09,2.46ZM.75,4.61A1.48,1.48,0,0,0,2.15,3.2H1.57l-.23,0a.7.7,0,0,0-.59.62C.73,4.1.75,4.35.75,4.61Zm16.77,0s0,0,0,0V3.9A.67.67,0,0,0,17,3.23a6.32,6.32,0,0,0-.87,0A1.5,1.5,0,0,0,17.52,4.61ZM2.16,14a1.51,1.51,0,0,0-1.42-1.4c0,.22,0,.44,0,.65a.66.66,0,0,0,0,.14.71.71,0,0,0,.62.61C1.63,14,1.89,14,2.16,14Zm15.36-1.41A1.51,1.51,0,0,0,16.12,14a7.09,7.09,0,0,0,.8,0,.67.67,0,0,0,.6-.59C17.54,13.1,17.52,12.83,17.52,12.55Z"/></g></g></svg>