<svg xmlns="http://www.w3.org/2000/svg" viewBox="0 0 9.49 20.46"><g id="Capa_2" data-name="Capa 2"><g id="Capa_1-2" data-name="Capa 1"><path d="M1.9,6.67V1.85A1.29,1.29,0,0,1,3,.54.21.21,0,0,0,3.08.47.91.91,0,0,1,3.89,0H5.61a.91.91,0,0,1,.8.47.18.18,0,0,0,.1.07A1.29,1.29,0,0,1,7.59,1.85V6.67c.17,0,.33,0,.49,0A1.57,1.57,0,0,1,9.49,8.29v9.77a1.59,1.59,0,0,1-1.28,1.59.08.08,0,0,0-.08.11v.38a.31.31,0,0,1-.31.32.3.3,0,0,1-.3-.32v-.38c0-.06,0-.08-.07-.08H2.17c0,.16,0,.32,0,.47a.28.28,0,0,1-.26.3.29.29,0,0,1-.34-.29,2.41,2.41,0,0,1,0-.38c0-.07,0-.1-.1-.11A1.59,1.59,0,0,1,0,18c0-3.24,0-6.48,0-9.72a1.58,1.58,0,0,1,1.31-1.6A5.47,5.47,0,0,1,1.9,6.67Zm7,6.52c0-1.61,0-3.22,0-4.82a1.56,1.56,0,0,0,0-.31,1,1,0,0,0-1-.76h-6a2.54,2.54,0,0,0-.48,0,1,1,0,0,0-.79,1v9.76a1,1,0,0,0,1,1H8.07a1,1,0,0,0,.81-1C8.87,16.42,8.87,14.8,8.87,13.19ZM7,5.76a.56.56,0,0,0,0-.07V2.21c0-.16,0-.31,0-.46a.62.62,0,0,0-.46-.57s0,0,0,0a.93.93,0,0,1-1,.66H3.93a1.09,1.09,0,0,1-.26,0A.93.93,0,0,1,3,1.18a.64.64,0,0,0-.47.66V5.73s0,0,0,.09A1.62,1.62,0,0,1,3.6,5.54H6.12a.78.78,0,0,1,.22,0Zm-.07.91,0-.06a.79.79,0,0,0-.74-.46c-.91,0-1.83,0-2.74,0a.75.75,0,0,0-.21,0,.81.81,0,0,0-.58.5ZM4.74,1.26h.83A.32.32,0,0,0,5.92.94.32.32,0,0,0,5.57.61H3.93a.34.34,0,0,0-.37.32.33.33,0,0,0,.36.33Z"/><path d="M3.56,15.1V12.46c0-.26,0-.52,0-.78,0-.92,0-1.85,0-2.77V8.78a.3.3,0,0,1,.32-.29.29.29,0,0,1,.29.3c0,.13,0,.25,0,.37v8.6a.31.31,0,1,1-.61,0V15.1Z"/><path d="M2.37,13.3v4.42a.62.62,0,0,1,0,.19.29.29,0,0,1-.31.2.31.31,0,0,1-.27-.26v-9c0-.2.07-.31.22-.35a.3.3,0,0,1,.38.27.66.66,0,0,1,0,.14Z"/><path d="M5.36,14.47V8.84c0-.22.12-.35.3-.35s.3.14.3.36v8.87a.91.91,0,0,1,0,.17.3.3,0,0,1-.59-.08V14.47Z"/><path d="M7.15,13.66v-4c0-.29,0-.57,0-.86a.3.3,0,0,1,.42-.28.36.36,0,0,1,.19.35c0,.12,0,.24,0,.37v8.45a.49.49,0,0,1,0,.12.29.29,0,0,1-.3.31.3.3,0,0,1-.3-.32V13.66Z"/></g></g></svg>