<svg xmlns="http://www.w3.org/2000/svg" viewBox="0 0 44.87 34.96"><defs><style>.cls-1{fill:#e0455e;}</style></defs><g id="Capa_2" data-name="Capa 2"><g id="Capa_1-2" data-name="Capa 1"><g id="fIeFxt"><path class="cls-1" d="M44.87,11.06c-.22,0-.43,0-.65,0H0a29.12,29.12,0,0,1,0-3.24A2.41,2.41,0,0,1,2.63,6.12H14V5.53c0-1.29,0-2.59,0-3.88A1.52,1.52,0,0,1,15.62,0H29.75A1.49,1.49,0,0,1,31.33,1.6c0,1.27,0,2.55,0,3.83v.69H32c3.16,0,6.32,0,9.48,0A3.16,3.16,0,0,1,44.87,8Zm-27.78-5H28.24V3.13H17.09Z"/><path class="cls-1" d="M44.72,12.75V32.5c0,1.7-.75,2.46-2.43,2.46H2.43C.83,35,.14,34.3.14,32.73q0-9.78,0-19.55c0-.13,0-.27,0-.43Zm-22.35,19a7.91,7.91,0,1,0-7.86-8A7.9,7.9,0,0,0,22.37,31.7Z"/><path class="cls-1" d="M17.24,25.57V22.15H20.7V18.66h3.41v3.47h3.51v3.4H24.15V29H20.76V25.57Z"/></g></g></g></svg>