<svg xmlns="http://www.w3.org/2000/svg" width="32.211" height="27.651" viewBox="0 0 32.211 27.651">
  <path id="Asistencia-02" d="M-.011,25.72V6.657C0,6.643.021,6.629.026,6.611a2.344,2.344,0,0,1,2.549-1.9H9.73V1.945A1.824,1.824,0,0,1,11.68,0h8.709a1.815,1.815,0,0,1,1.959,1.964c0,.8,0,1.6,0,2.388,0,.111.009.221.018.35h7.418a2.317,2.317,0,0,1,2.406,2.4V25.245a2.535,2.535,0,0,1-.106.742,2.338,2.338,0,0,1-2.42,1.664H2.336a2.343,2.343,0,0,1-2.291-1.8.931.931,0,0,0-.065-.138Zm17.565-8h3.683a1.983,1.983,0,0,0,.618-.088,1.46,1.46,0,0,0-.461-2.844c-1.162-.009-2.328,0-3.49,0-.111,0-.221-.009-.346-.018V11.152a2.282,2.282,0,0,0-.046-.562,1.456,1.456,0,0,0-2.867.323c-.014,1.176,0,2.347,0,3.522v.35h-3.79A1.418,1.418,0,0,0,9.5,15.6a1.466,1.466,0,0,0,1.374,2.125c1.134.009,2.264,0,3.4,0h.369V18.1c0,1.1.023,2.2-.009,3.3a1.475,1.475,0,1,0,2.937-.014c-.023-.521,0-1.046,0-1.572V17.721Zm-5.288-15.2V4.688h7.561V2.517Z" transform="translate(0.02)" fill="#ccc"/>
</svg>
