<svg xmlns="http://www.w3.org/2000/svg" width="28.001" height="28" viewBox="0 0 28.001 28">
  <g id="avion_2-02" data-name="avion 2-02" transform="translate(-3.69)">
    <path id="Trazado_2258" data-name="Trazado 2258" d="M31.762,0A7.3,7.3,0,0,1,30.11,4.941c-.175.211-.367.4-.561.6q-8,8.006-16.012,16.008a.661.661,0,0,0-.213.5c-.027,1.577-.065,3.154-.1,4.728a.345.345,0,0,1-.058.225c-.311.33-.634.647-.987,1-.065-.152-.115-.265-.161-.378-.726-1.787-1.456-3.573-2.175-5.362a.566.566,0,0,0-.346-.344Q6.773,20.821,4.057,19.71c-.083-.033-.163-.071-.277-.119.346-.35.674-.688,1.012-1.014.042-.042.136-.038.206-.038,1.577-.035,3.151-.073,4.728-.1a.631.631,0,0,0,.478-.2Q18.163,10.272,26.126,2.3A7.332,7.332,0,0,1,30.758.044.568.568,0,0,0,30.886,0h.876Z" transform="translate(-0.071)" fill="#fff"/>
    <path id="Trazado_2259" data-name="Trazado 2259" d="M3.69,46.589c.325-.315.655-.626.976-.945.53-.526,1.055-1.055,1.566-1.564q.585.588,1.126,1.137c-.811.811-1.656,1.652-2.515,2.511L3.69,46.645v-.054Z" transform="translate(0 -34.886)" fill="#fff"/>
    <path id="Trazado_2260" data-name="Trazado 2260" d="M22.194,8.588c-1.548,1.548-3.072,3.072-4.624,4.622L5.88,6.321c.169-.154.317-.282.455-.419.48-.476.962-.947,1.427-1.433a.412.412,0,0,1,.492-.129c1.082.344,2.173.665,3.26,1a.374.374,0,0,0,.451-.113c.263-.29.544-.563.83-.83a1.827,1.827,0,0,1,2.353-.2,1.852,1.852,0,0,1,.619,2.284c-.015.033-.025.067-.048.131q3.238.989,6.474,1.973Z" transform="translate(-1.733 -3.057)" fill="#fff"/>
    <path id="Trazado_2261" data-name="Trazado 2261" d="M89.24,58.452l4.622-4.622q.989,3.238,1.975,6.476a1.866,1.866,0,0,1,2.257.382,1.817,1.817,0,0,1,.035,2.461c-.286.319-.588.622-.9.914a.373.373,0,0,0-.117.448c.344,1.093.67,2.192,1.014,3.285a.38.38,0,0,1-.115.448c-.628.609-1.241,1.233-1.888,1.879L89.244,58.452Z" transform="translate(-67.707 -42.603)" fill="#fff"/>
    <path id="Trazado_2262" data-name="Trazado 2262" d="M77.51,120.187l-1.07-1.07,2.517-2.517c.352.352.724.726,1.072,1.072C79.2,118.5,78.353,119.345,77.51,120.187Z" transform="translate(-57.577 -92.281)" fill="#fff"/>
    <path id="Trazado_2263" data-name="Trazado 2263" d="M25.9,54.38c.361.361.738.736,1.1,1.1l-1.9,1.908-1.1-1.1c.615-.617,1.266-1.27,1.9-1.906Z" transform="translate(-16.074 -43.038)" fill="#fff"/>
    <path id="Trazado_2264" data-name="Trazado 2264" d="M71.09,99.66l1.07,1.07L70.2,102.649c-.334-.334-.7-.707-1.053-1.053.644-.644,1.3-1.3,1.94-1.933Z" transform="translate(-51.807 -78.874)" fill="#fff"/>
  </g>
</svg>
