<svg xmlns="http://www.w3.org/2000/svg" width="39.768" height="21.251" viewBox="0 0 39.768 21.251">
  <path id="Carro-02" d="M1.58,14.877a2.512,2.512,0,0,0,.076-.312A9.574,9.574,0,0,1,5.405,7.808a9.484,9.484,0,0,0,2.073-2.1A13.065,13.065,0,0,1,17.869.04a46.3,46.3,0,0,1,6.972.287A6.022,6.022,0,0,1,28.1,1.514a11.923,11.923,0,0,1,3.521,4.362,1.944,1.944,0,0,0,1.448,1.2c1.868.5,3.723,1.049,5.574,1.6a3.471,3.471,0,0,1,2.628,3.218,21.323,21.323,0,0,1,.007,3.529,2.655,2.655,0,0,1-1.911,2.456.569.569,0,0,0-.4.429,4,4,0,0,1-6.341,2.059,4.514,4.514,0,0,1-1.494-2.328c-.116-.007-.218-.018-.321-.018q-8.733,0-17.466-.007c-.274,0-.367.106-.453.361a4.147,4.147,0,0,1-3.736,2.881,4.014,4.014,0,0,1-3.828-2.594A.836.836,0,0,0,4.383,18,2.71,2.71,0,0,1,1.689,15.88c-.03-.117-.073-.23-.109-.344V14.87ZM20.732,6.614H30.61a11.629,11.629,0,0,0-2.6-3.494A4.666,4.666,0,0,0,25.38,1.734c-.641-.082-1.283-.174-1.927-.227-.889-.074-1.779-.113-2.721-.174v5.28Zm-7.161-.935a2.737,2.737,0,0,0,2.119.964c1.25.011,2.5,0,3.775,0v-5.3a12.064,12.064,0,0,0-7.716,2c.615.8,1.184,1.6,1.822,2.339Zm21.545,14.27a3.01,3.01,0,0,0,2.87-3.111,2.888,2.888,0,1,0-5.762.032A2.986,2.986,0,0,0,35.116,19.948ZM9.052,13.761a3,3,0,0,0-2.889,3.086,3.012,3.012,0,0,0,2.886,3.1,2.993,2.993,0,0,0,2.88-3.094,2.978,2.978,0,0,0-2.876-3.09Z" transform="translate(-1.58 -0.007)" fill="#ccc"/>
</svg>
