<svg xmlns="http://www.w3.org/2000/svg" width="38.846" height="23.316" viewBox="0 0 38.846 23.316">
  <path id="Icon_awesome-handshake" data-name="Icon awesome-handshake" d="M26.385,4.5H21.171a1.942,1.942,0,0,0-1.311.51l-5.967,5.463c-.006.006-.012.018-.018.024a2.414,2.414,0,0,0-.127,3.4,2.532,2.532,0,0,0,3.405.164c.006-.006.018-.006.024-.012L22.027,9.6a.971.971,0,1,1,1.311,1.432l-1.584,1.451,8.838,7.174a4.373,4.373,0,0,1,.48.467V8.385L27.757,5.071A1.928,1.928,0,0,0,26.385,4.5Zm6.634,3.9v13.59a1.94,1.94,0,0,0,1.942,1.942h3.885V8.4Zm2.913,13.59a.971.971,0,1,1,.971-.971A.974.974,0,0,1,35.933,21.987ZM0,23.923H3.885a1.94,1.94,0,0,0,1.942-1.942V8.4H0Zm2.913-3.879a.971.971,0,1,1-.971.971A.974.974,0,0,1,2.913,20.045Zm26.458,1.129-9.062-7.357-1.821,1.669a4.369,4.369,0,0,1-5.906-6.44L17.548,4.5H12.461a1.939,1.939,0,0,0-1.372.571L7.769,8.385v13.59H8.88l5.493,4.971a3.884,3.884,0,0,0,5.463-.564l.012-.012,1.086.941a2.256,2.256,0,0,0,3.174-.328l1.906-2.343.328.267a1.939,1.939,0,0,0,2.731-.285l.577-.71a1.946,1.946,0,0,0-.279-2.737Z" transform="translate(0 -4.5)" fill="#ccc"/>
</svg>
