<svg xmlns="http://www.w3.org/2000/svg" xmlns:xlink="http://www.w3.org/1999/xlink" width="58" height="58" viewBox="0 0 58 58">
  <defs>
    <filter id="Trazado_2270" x="0" y="0" width="58" height="58" filterUnits="userSpaceOnUse">
      <feOffset dy="1" input="SourceAlpha"/>
      <feGaussianBlur stdDeviation="3" result="blur"/>
      <feFlood flood-color="#acacac"/>
      <feComposite operator="in" in2="blur"/>
      <feComposite in="SourceGraphic"/>
    </filter>
  </defs>
  <g id="Grupo_1704" data-name="Grupo 1704" transform="translate(9 8)">
    <g transform="matrix(1, 0, 0, 1, -9, -8)" filter="url(#Trazado_2270)">
      <path id="Trazado_2270-2" data-name="Trazado 2270" d="M20,0A20,20,0,1,0,40,20,20,20,0,0,0,20,0Z" transform="translate(9 8)" fill="#fff"/>
    </g>
    <path id="Icon_ionic-ios-arrow-forward" data-name="Icon ionic-ios-arrow-forward" d="M14.349,15.193,21.16,8.387a1.281,1.281,0,0,0,0-1.817,1.3,1.3,0,0,0-1.822,0l-7.717,7.712a1.284,1.284,0,0,0-.038,1.774l7.749,7.765A1.287,1.287,0,1,0,21.155,22Z" transform="translate(3.608 4.804)" fill="#323237"/>
  </g>
</svg>
