<svg xmlns="http://www.w3.org/2000/svg" width="28.628" height="28.797" viewBox="0 0 28.628 28.797">
  <path id="Hotel-02" d="M1.177,26.766V7.929A2.363,2.363,0,0,1,3.758,5.36H5.194V26.773H6.533V2.562A2.342,2.342,0,0,1,7.968.2,2.544,2.544,0,0,1,8.94.013q5.31-.021,10.617,0a2.318,2.318,0,0,1,2.4,2.4c.014.994,0,1.99,0,2.983V26.768h1.322V5.308a16.294,16.294,0,0,1,2.384.183,2.22,2.22,0,0,1,1.649,2.286q0,4.993,0,9.985v9.029c.136,0,.242-.007.343,0a1,1,0,0,1,.989,1.043.979.979,0,0,1-1.029.961c-1.642.007-3.286,0-4.928,0H5.762c-1.569,0-3.141,0-4.71,0A.988.988,0,0,1,.047,27.557a.946.946,0,0,1,.709-.723c.129-.035.265-.047.423-.073Zm14.754-7.329v7.338h1.98a1.776,1.776,0,0,0,.023-.2c0-2.481.009-4.961,0-7.442a1.665,1.665,0,0,0-1.769-1.715c-1.245,0-2.492,0-3.737,0a1.7,1.7,0,0,0-1.872,1.867v7.481h2.022V19.439h3.354ZM11.59,5a3.065,3.065,0,0,0-.672.117c-.322.136-.373.446-.366.768.012.39-.092.848.359,1.052a1.553,1.553,0,0,0,1.308,0c.484-.228.319-.716.343-1.118a.639.639,0,0,0-.359-.7A2.983,2.983,0,0,0,11.59,5Zm5.365-.016a2.684,2.684,0,0,0-.731.169,1.343,1.343,0,0,0-.009,1.766,1.907,1.907,0,0,0,1.426-.007,1.332,1.332,0,0,0,0-1.748,2.455,2.455,0,0,0-.684-.181ZM11.581,9.017a2.561,2.561,0,0,0-.667.122c-.418.2-.355.615-.362.989,0,.336.007.735.366.82a2.7,2.7,0,0,0,1.278,0c.449-.12.362-.594.369-.968.007-.345.007-.7-.369-.855a2.825,2.825,0,0,0-.618-.11ZM15.9,10.048a2.563,2.563,0,0,0,.113.637c.193.425.6.371.982.376.348,0,.752,0,.843-.378a2.886,2.886,0,0,0,.007-1.252c-.08-.369-.465-.395-.806-.381-.39.014-.832-.089-1.036.381a2.554,2.554,0,0,0-.1.62Zm-4.327,3a2.812,2.812,0,0,0-.59.075.688.688,0,0,0-.425.761c.012.42-.11.944.411,1.106a2.2,2.2,0,0,0,1.2,0c.517-.15.392-.662.406-1.071.014-.348-.049-.665-.411-.8a2.64,2.64,0,0,0-.585-.078Zm5.363-.009a2.84,2.84,0,0,0-.639.11c-.362.148-.378.486-.369.822.012.381-.1.867.369,1a2.653,2.653,0,0,0,1.252.012c.362-.078.4-.463.392-.8-.009-.392.07-.829-.39-1.036a2.426,2.426,0,0,0-.618-.106Z" transform="translate(-0.015 -0.002)" fill="#ccc"/>
</svg>
