<svg xmlns="http://www.w3.org/2000/svg" width="80" height="80" viewBox="0 0 80 80">
  <g id="Grupo_1741" data-name="Grupo 1741" transform="translate(-926 -2337)">
    <path id="Trazado_2271" data-name="Trazado 2271" d="M40,0A40,40,0,1,1,0,40,40,40,0,0,1,40,0Z" transform="translate(926 2337)" fill="#ffead6"/>
    <path id="Icon_material-shopping-cart" data-name="Icon material-shopping-cart" d="M11.409,29.424a3.3,3.3,0,1,0,3.3,3.3A3.3,3.3,0,0,0,11.409,29.424ZM1.5,3V6.3H4.8l5.945,12.535-2.23,4.046a3.193,3.193,0,0,0-.413,1.585,3.313,3.313,0,0,0,3.3,3.3H31.227v-3.3H12.1a.409.409,0,0,1-.413-.413l.05-.2,1.486-2.692h12.3a3.287,3.287,0,0,0,2.89-1.7L34.332,8.747a1.614,1.614,0,0,0,.2-.793A1.656,1.656,0,0,0,32.879,6.3H8.453L6.9,3ZM27.924,29.424a3.3,3.3,0,1,0,3.3,3.3A3.3,3.3,0,0,0,27.924,29.424Z" transform="translate(947.5 2357)" fill="#ff7d01"/>
  </g>
</svg>
