<svg xmlns="http://www.w3.org/2000/svg" width="80" height="80" viewBox="0 0 80 80">
  <g id="Grupo_1376" data-name="Grupo 1376" transform="translate(-457 -2316)">
    <circle id="Elipse_25" data-name="Elipse 25" cx="40" cy="40" r="40" transform="translate(457 2316)" fill="#ffead6"/>
    <path id="ic_contacts_24px" d="M32.186,0H5.354V3.354H32.186ZM5.354,40.248H32.186V36.894H5.354ZM32.186,6.708H5.354A3.364,3.364,0,0,0,2,10.062V30.186A3.364,3.364,0,0,0,5.354,33.54H32.186a3.364,3.364,0,0,0,3.354-3.354V10.062A3.364,3.364,0,0,0,32.186,6.708ZM18.77,11.32A3.773,3.773,0,1,1,15,15.093,3.779,3.779,0,0,1,18.77,11.32Zm8.385,17.189H10.385V25.994c0-2.8,5.584-4.193,8.385-4.193s8.385,1.392,8.385,4.193Z" transform="translate(478 2336)" fill="#ff7d01"/>
  </g>
</svg>
