<svg xmlns="http://www.w3.org/2000/svg" width="32.637" height="30.178" viewBox="0 0 32.637 30.178">
  <g id="avion_2-02-02" data-name="avion 2-02-02" transform="translate(-1.719 0.003)">
    <path id="Trazado_2268" data-name="Trazado 2268" d="M70.656,51.7c-.081-3.069-.02-6.146-.025-9.217a3.672,3.672,0,0,0-.066-.856,3.148,3.148,0,0,0-2.478-2.387,9.44,9.44,0,0,0-1.89-.153c-.559-.022-1.12,0-1.7,0V38.072a2.679,2.679,0,0,0-2.825-2.823c-.935,0-1.873,0-2.808,0a3.288,3.288,0,0,0-.679.054,2.651,2.651,0,0,0-2.126,2.56c-.012.4,0,.8,0,1.223-1.144,0-2.225-.007-3.305,0a2.817,2.817,0,0,0-2.872,2.894c.049,3.48.015,6.96.015,10.44a2.6,2.6,0,0,0,1.969,2.638,7.522,7.522,0,0,0,1.494.155c.377.022.756,0,1.125,0,.074,1.012.4,1.494,1.063,1.511a1.533,1.533,0,0,0,.775-.2,1.262,1.262,0,0,0,.492-1.29h6.882c.14,1.078.46,1.491,1.154,1.509.719.017,1.036-.372,1.228-1.533.384,0,.778.015,1.169,0A3.429,3.429,0,0,0,70.661,51.7ZM58.382,37.855a.489.489,0,0,1,.372-.29c1.007-.025,2.016-.015,3.025-.012a.372.372,0,0,1,.409.4c.007.359,0,.716,0,1.112H58.365a10.458,10.458,0,0,1,.017-1.213Z" transform="translate(-36.306 -26.573)" fill="#ccc"/>
    <path id="Trazado_2269" data-name="Trazado 2269" d="M16.039,11.738a24.781,24.781,0,0,1,2.872-.1c.153,0,.3,0,.458,0a4.165,4.165,0,0,0-.635-2.973,3.7,3.7,0,0,0-3.18-1.491V3.025a5.3,5.3,0,0,0-.052-.763A2.659,2.659,0,0,0,12.834,0C11.3.032,9.763.008,8.224.005A2.438,2.438,0,0,0,5.869,1.482a3.431,3.431,0,0,0-.3,1.376c-.032,1.878-.012,2.033-.012,3.911v.4c-.32.025-.586.027-.844.071a3.492,3.492,0,0,0-2.99,3.52c-.01,2.944,0,5.89,0,8.833,0,2.075-.007,4.15,0,6.224a2.788,2.788,0,0,0,2.122,2.774c.3.081.608.1.913.155.118.994.438,1.427,1.117,1.423a1.558,1.558,0,0,0,.765-.226c.448-.273.468-.746.45-1.245h6.33a4.134,4.134,0,0,1-.948-3.138c0-3.246.03-6.493-.01-9.737a4.126,4.126,0,0,1,3.576-4.081ZM13.248,6.926c0,.069-.01.135-.02.246H7.885c-.007-.118-.02-.229-.02-.34V2.922c0-.625.069-.687.721-.687h4.105c.4,0,.5.089.551.47a1.364,1.364,0,0,1,.007.175V6.929Z" fill="#ccc"/>
  </g>
</svg>
