<svg width="244" height="174" viewBox="0 0 244 174" fill="none" xmlns="http://www.w3.org/2000/svg">
<mask id="mask0" mask-type="alpha" maskUnits="userSpaceOnUse" x="0" y="0" width="244" height="174">
<rect width="244" height="174" rx="10" fill="#9A9797"/>
</mask>
<g mask="url(#mask0)">
<path fill-rule="evenodd" clip-rule="evenodd" d="M160.499 0H83.501C83.501 0.159332 83.49 0.319855 83.4675 0.480591C83.4648 0.500702 83.4619 0.520813 83.4585 0.540924L83.4517 0.582947C83.4375 0.666992 83.4199 0.751038 83.3992 0.83493C83.3792 0.916138 83.356 0.997223 83.3298 1.07806L70.5 40.7063V58V116V133.294L83.3298 172.922C83.4458 173.28 83.501 173.643 83.501 174H160.499C160.499 173.8 160.516 173.599 160.552 173.397C160.58 173.238 160.619 173.08 160.67 172.922L173.5 133.294V116V58V40.7063L160.67 1.07806C160.554 0.720093 160.499 0.357025 160.499 0ZM180.5 119.5V133.846C180.5 134.212 180.443 134.576 180.33 134.924L167.679 174H234C239.523 174 244 169.523 244 164V119.5H180.5ZM244 112.5H180.5V61.5H244V112.5ZM180.5 54.5H244V10C244 4.47714 239.523 0 234 0H167.679L180.33 39.0758C180.443 39.424 180.5 39.7878 180.5 40.1538V54.5ZM63.5 112.5V61.5H0V112.5H63.5ZM0 119.5H63.5V133.846V134.399L63.6702 134.924L76.321 174H10C4.47705 174 0 169.523 0 164V119.5ZM63.5 40.1538V54.5H0V10C0 4.47714 4.47705 0 10 0H76.321L63.6702 39.0758L63.5 39.6014V40.1538Z" fill="#ECC663"/>
</g>
</svg>
