<svg width="46" height="46" viewBox="0 0 46 46" fill="none" xmlns="http://www.w3.org/2000/svg">
<path d="M24 29C24 29.5523 23.5523 30 23 30C22.4477 30 22 29.5523 22 29C22 28.4477 22.4477 28 23 28C23.5523 28 24 28.4477 24 29Z" fill="#ECEFF1"/>
<path d="M24.7588 24.4276C24.3656 24.6054 24.111 24.9949 24.111 25.4194V25.9092C24.111 26.5112 23.6144 27 23 27C22.3856 27 21.889 26.5112 21.889 25.9092V25.4194C21.889 24.1462 22.6511 22.979 23.8278 22.4455C24.96 21.9339 25.7777 20.5756 25.7777 19.9091C25.7777 18.4059 24.5322 17.1819 23 17.1819C21.4678 17.1819 20.2223 18.4059 20.2223 19.9091C20.2223 20.5113 19.7255 21.0001 19.111 21.0001C18.4966 21.0001 18 20.5113 18 19.9091C18 17.2026 20.2432 15 23 15C25.7568 15 28 17.2026 28 19.9091C28 21.383 26.6977 23.5495 24.7588 24.4276V24.4276Z" fill="#FAFAFA"/>
</svg>
