<svg id="Layer_1" data-name="Layer 1" xmlns="http://www.w3.org/2000/svg" viewBox="0 0 638 410.99"><defs><style>.cls-1{fill:#2c4aff;fill-rule:evenodd;}</style></defs><title>International Air Transport Association (IATA) Logo Vector</title><path class="cls-1" d="M271.7,705.5l25.91-130.61h42.5L314.2,705.5Zm128-42.5h27l-7.25-48.2L399.71,663Zm-59.6,42.5,64.27-130.61h42L472.27,705.5H433.4L430.81,690H389.35l-6.74,15.55Zm171,0,15-98H488.86l6.22-33.17h114l-6.22,33.17H567.64l-14.52,98ZM653.67,663h27l-6.74-48.2L653.67,663Zm-59.08,42.5,63.74-130.61h42L726.75,705.5H686.84L685.28,690h-42l-6.73,15.55ZM819,427.18H620c-7.25,36.8-32.65,67.38-83.44,88.63,5.7,17.62,25.39,33.69,45.61,33.69H690.47c16.58,0,29.54-14,34.72-25.4H615.32c-6.74-1-6.74-6.22-.52-7.26H723.12c14,0,26.43-11.92,33.69-24.87H631.38c-6.73-1-6.73-6.22,0-7.26H757.84c13,0,24.36-15,29-24.88H648c-6.74-1-6.74-7.25,0-7.77H789.46c11.4,0,21.77-11.92,29.54-24.88Zm-638,0H380c7.25,36.8,32.65,67.38,83.44,88.63-5.7,17.62-25.39,33.69-45.61,33.69H309.53c-16.58,0-29.54-14-34.72-25.4H384.68c6.74-1,6.74-6.22.52-7.26H276.88c-14,0-26.43-11.92-33.69-24.87H368.62c6.73-1,6.73-6.22,0-7.26H242.16c-13,0-24.36-15-29-24.88H352c6.74-1,6.74-7.25,0-7.77H210.54c-11.4,0-21.77-11.92-29.54-24.88ZM435.47,317.31c7.26,6.22,15.55,11.92,24.36,15.55,7.26-15,18.14-27.47,30.06-38.36a100.28,100.28,0,0,0-54.42,22.81Zm-35.24,73.07H444.8c.52-18.65,4.67-34.72,11.92-51.31a111,111,0,0,1-27-16.58,100.82,100.82,0,0,0-29.54,67.89Zm96.4-42v42H452.06a124.13,124.13,0,0,1,11.4-48.71,102.19,102.19,0,0,0,33.17,6.73Zm67.9-31.09c-7.26,6.22-15.55,11.92-24.36,15.55-7.78-15-17.62-27-30.06-38.36a100.28,100.28,0,0,1,54.42,22.81Zm35.24,73.07H555.2c-.52-18.14-4.67-34.72-11.41-51.31a118.56,118.56,0,0,0,26.44-16.58c18.65,19.18,28.5,42.5,29.54,67.89Zm-95.88-42v42h44.05c0-17.1-4.15-33.17-11.4-48.71a102,102,0,0,1-32.65,6.73ZM435.47,470.2c7.26-5.7,15.55-11.92,24.36-15a128.25,128.25,0,0,0,30.06,38.35c-20.21-2.59-38.87-9.85-54.42-23.32Zm-35.24-72.56H444.8c.52,18.14,4.67,34.21,11.92,51.31a111.64,111.64,0,0,0-27,16.58,103.26,103.26,0,0,1-29.54-67.89Zm96.4,42v-42H452.06c.52,16.58,4.15,33.69,11.4,48.2,10.37-3.63,21.77-6.22,33.17-6.22Zm67.9,30.58a96.38,96.38,0,0,0-24.36-15,128.25,128.25,0,0,1-30.06,38.35c20.21-2.59,38.87-9.85,54.42-23.32Zm35.24-72.56H555.2A134.47,134.47,0,0,1,543.79,449a119.29,119.29,0,0,1,26.44,16.58,104.35,104.35,0,0,0,29.54-67.89Zm-95.88,42v-42h44.05a111.71,111.71,0,0,1-11.4,48.2c-9.85-3.63-21.77-6.22-32.65-6.22Zm-7.26-141c-11.92,9.33-22.8,22.8-30.06,36.8,9.85,3.11,19.7,5.7,30.06,5.7v-42.5Zm7.26,0a121.78,121.78,0,0,1,29.54,36.8,85.57,85.57,0,0,1-29.54,5.7v-42.5Zm-7.26,190.73c-11.92-9.33-22.8-22.81-30.06-36.8a85.91,85.91,0,0,1,30.06-5.7v42.5Zm7.26.51a130.74,130.74,0,0,0,29.54-37.31c-9.85-3.11-19.7-5.7-29.54-5.7v43Z" transform="translate(-181 -294.5)"/></svg>