<svg id="Grupo_1372" data-name="Grupo 1372" xmlns="http://www.w3.org/2000/svg" xmlns:xlink="http://www.w3.org/1999/xlink" width="574.565" height="436" viewBox="0 0 574.565 436">
  <defs>
    <clipPath id="clip-path">
      <rect id="Rectángulo_1329" data-name="Rectángulo 1329" width="574.565" height="436" fill="none"/>
    </clipPath>
    <clipPath id="clip-path-3">
      <rect id="Rectángulo_1312" data-name="Rectángulo 1312" width="12.061" height="12.061" fill="none"/>
    </clipPath>
    <clipPath id="clip-path-5">
      <rect id="Rectángulo_1314" data-name="Rectángulo 1314" width="19.588" height="148.39" fill="none"/>
    </clipPath>
    <clipPath id="clip-path-6">
      <rect id="Rectángulo_1315" data-name="Rectángulo 1315" width="41.487" height="133.353" fill="none"/>
    </clipPath>
    <clipPath id="clip-path-7">
      <rect id="Rectángulo_1316" data-name="Rectángulo 1316" width="13.35" height="140.685" fill="none"/>
    </clipPath>
    <clipPath id="clip-path-8">
      <rect id="Rectángulo_1317" data-name="Rectángulo 1317" width="25.381" height="7.779" fill="none"/>
    </clipPath>
    <clipPath id="clip-path-9">
      <rect id="Rectángulo_1318" data-name="Rectángulo 1318" width="7.586" height="7.779" fill="none"/>
    </clipPath>
    <clipPath id="clip-path-10">
      <rect id="Rectángulo_1319" data-name="Rectángulo 1319" width="28.004" height="59.119" fill="none"/>
    </clipPath>
    <clipPath id="clip-path-11">
      <rect id="Rectángulo_1320" data-name="Rectángulo 1320" width="45.853" height="103.255" fill="none"/>
    </clipPath>
    <clipPath id="clip-path-12">
      <rect id="Rectángulo_1321" data-name="Rectángulo 1321" width="33.067" height="101.139" fill="none"/>
    </clipPath>
    <clipPath id="clip-path-13">
      <rect id="Rectángulo_1322" data-name="Rectángulo 1322" width="13.701" height="36.36" fill="none"/>
    </clipPath>
    <clipPath id="clip-path-14">
      <rect id="Rectángulo_1323" data-name="Rectángulo 1323" width="5.81" height="18.21" fill="none"/>
    </clipPath>
    <clipPath id="clip-path-15">
      <rect id="Rectángulo_1324" data-name="Rectángulo 1324" width="14.18" height="13.009" fill="none"/>
    </clipPath>
    <clipPath id="clip-path-16">
      <rect id="Rectángulo_1325" data-name="Rectángulo 1325" width="17.921" height="29.637" fill="none"/>
    </clipPath>
    <clipPath id="clip-path-17">
      <rect id="Rectángulo_1326" data-name="Rectángulo 1326" width="4.801" height="4.801" fill="none"/>
    </clipPath>
    <clipPath id="clip-path-18">
      <rect id="Rectángulo_1327" data-name="Rectángulo 1327" width="17.505" height="45.932" fill="none"/>
    </clipPath>
  </defs>
  <g id="Grupo_1371" data-name="Grupo 1371" clip-path="url(#clip-path)">
    <g id="Grupo_1370" data-name="Grupo 1370">
      <g id="Grupo_1369" data-name="Grupo 1369" clip-path="url(#clip-path)">
        <path id="Trazado_2022" data-name="Trazado 2022" d="M287.283,271.621c158.661,0,287.283,7.509,287.283,16.773s-128.622,16.773-287.283,16.773S0,297.657,0,288.394s128.622-16.773,287.283-16.773" transform="translate(0 130.834)" fill="#f2f2f2"/>
        <rect id="Rectángulo_1311" data-name="Rectángulo 1311" width="18.654" height="69.268" transform="translate(473.604 211.215)" fill="none" stroke="#263238" stroke-width="3"/>
        <path id="Trazado_2023" data-name="Trazado 2023" d="M325.12,275.7h-2.963a5.927,5.927,0,0,0,0,11.853h2.963a5.927,5.927,0,1,0,0-11.853" transform="translate(152.321 132.799)" fill="#263238"/>
        <g id="Grupo_1323" data-name="Grupo 1323" transform="translate(471.411 408.278)" opacity="0.1" style="mix-blend-mode: normal;isolation: isolate">
          <g id="Grupo_1322" data-name="Grupo 1322">
            <g id="Grupo_1321" data-name="Grupo 1321" clip-path="url(#clip-path-3)">
              <path id="Trazado_2024" data-name="Trazado 2024" d="M330.221,281.6a6.038,6.038,0,1,1,0-.015Z" transform="translate(-318.16 -275.551)" fill="#fff"/>
            </g>
          </g>
        </g>
        <path id="Trazado_2025" data-name="Trazado 2025" d="M336.12,275.7h-2.963a5.927,5.927,0,0,0,0,11.853h2.963a5.927,5.927,0,1,0,0-11.853" transform="translate(157.62 132.799)" fill="#263238"/>
        <g id="Grupo_1326" data-name="Grupo 1326" transform="translate(487.709 408.278)" opacity="0.2" style="mix-blend-mode: normal;isolation: isolate">
          <g id="Grupo_1325" data-name="Grupo 1325">
            <g id="Grupo_1324" data-name="Grupo 1324" clip-path="url(#clip-path-3)">
              <path id="Trazado_2026" data-name="Trazado 2026" d="M341.221,281.6a6.038,6.038,0,1,1,0-.015Z" transform="translate(-329.16 -275.551)" fill="#fff"/>
            </g>
          </g>
        </g>
        <path id="Trazado_2027" data-name="Trazado 2027" d="M393.011,197.741V302.569c0,10.372-8.46,19.854-18.891,19.854H321.89V178.7h52.229a18.98,18.98,0,0,1,18.891,19.04" transform="translate(155.047 86.076)" fill="#298787"/>
        <path id="Trazado_2028" data-name="Trazado 2028" d="M320.656,176.891h23.129a3.985,3.985,0,0,1,3.986,3.986V321.3a3.985,3.985,0,0,1-3.986,3.986H320.656a3.985,3.985,0,0,1-3.986-3.986V180.877a3.985,3.985,0,0,1,3.986-3.986" transform="translate(152.533 85.205)" fill="#263238"/>
        <g id="Grupo_1329" data-name="Grupo 1329" transform="translate(469.203 262.096)" opacity="0.2" style="mix-blend-mode: normal;isolation: isolate">
          <g id="Grupo_1328" data-name="Grupo 1328">
            <g id="Grupo_1327" data-name="Grupo 1327" clip-path="url(#clip-path-5)">
              <path id="Trazado_2029" data-name="Trazado 2029" d="M320.656,176.891h11.616a3.985,3.985,0,0,1,3.986,3.986V321.3a3.985,3.985,0,0,1-3.986,3.986H320.656a3.985,3.985,0,0,1-3.986-3.986V180.877a3.985,3.985,0,0,1,3.986-3.986" transform="translate(-316.67 -176.891)" fill="#fff"/>
            </g>
          </g>
        </g>
        <g id="Grupo_1332" data-name="Grupo 1332" transform="translate(506.571 275.148)" opacity="0.2" style="mix-blend-mode: normal;isolation: isolate">
          <g id="Grupo_1331" data-name="Grupo 1331">
            <g id="Grupo_1330" data-name="Grupo 1330" clip-path="url(#clip-path-6)">
              <path id="Trazado_2030" data-name="Trazado 2030" d="M383.377,194.369V299.2c0,10.372-8.46,19.854-18.891,19.854H343.505a14.973,14.973,0,0,1-1.615-5.927V196.073A10.727,10.727,0,0,1,352.78,185.7H381.2a19.271,19.271,0,0,1,2.178,8.668" transform="translate(-341.89 -185.7)"/>
            </g>
          </g>
        </g>
        <g id="Grupo_1335" data-name="Grupo 1335" transform="translate(471.411 266.037)" opacity="0.2" style="mix-blend-mode: normal;isolation: isolate">
          <g id="Grupo_1334" data-name="Grupo 1334">
            <g id="Grupo_1333" data-name="Grupo 1333" clip-path="url(#clip-path-7)">
              <path id="Trazado_2031" data-name="Trazado 2031" d="M320.931,179.551h7.808a2.77,2.77,0,0,1,2.771,2.771V317.466a2.77,2.77,0,0,1-2.771,2.771h-7.808a2.77,2.77,0,0,1-2.771-2.771V182.322a2.77,2.77,0,0,1,2.771-2.771" transform="translate(-318.16 -179.551)"/>
            </g>
          </g>
        </g>
        <path id="Trazado_2032" data-name="Trazado 2032" d="M320.233,139.181h19.454a2.963,2.963,0,0,1,2.963,2.963V144a2.963,2.963,0,0,1-2.963,2.963H320.233A2.963,2.963,0,0,1,317.27,144v-1.852a2.963,2.963,0,0,1,2.963-2.963" transform="translate(152.822 67.04)" fill="#263238"/>
        <g id="Grupo_1338" data-name="Grupo 1338" transform="translate(470.092 206.221)" opacity="0.2" style="mix-blend-mode: normal;isolation: isolate">
          <g id="Grupo_1337" data-name="Grupo 1337">
            <g id="Grupo_1336" data-name="Grupo 1336" clip-path="url(#clip-path-8)">
              <path id="Trazado_2033" data-name="Trazado 2033" d="M320.233,139.181h19.454a2.963,2.963,0,0,1,2.963,2.963V144a2.963,2.963,0,0,1-2.963,2.963H320.233A2.963,2.963,0,0,1,317.27,144v-1.852a2.963,2.963,0,0,1,2.963-2.963" transform="translate(-317.27 -139.181)" fill="#fff"/>
            </g>
          </g>
        </g>
        <g id="Grupo_1341" data-name="Grupo 1341" transform="translate(487.872 206.221)" opacity="0.2" style="mix-blend-mode: normal;isolation: isolate">
          <g id="Grupo_1340" data-name="Grupo 1340">
            <g id="Grupo_1339" data-name="Grupo 1339" clip-path="url(#clip-path-9)">
              <path id="Trazado_2034" data-name="Trazado 2034" d="M332.233,139.181h1.66a2.963,2.963,0,0,1,2.963,2.963V144a2.963,2.963,0,0,1-2.963,2.963h-1.66A2.963,2.963,0,0,1,329.27,144v-1.852a2.963,2.963,0,0,1,2.963-2.963" transform="translate(-329.27 -139.181)"/>
            </g>
          </g>
        </g>
        <path id="Trazado_2035" data-name="Trazado 2035" d="M307.27,134.878l12.772,12.416a9.958,9.958,0,0,0,8.89,2.03c5.838-1.111,12.253-4.993,13.9-4.993s4.623,2.963,4.623,2.963-.1-8.342-3.2-11.305-20.847,2.593-20.847,2.593l-8.89-9.631Z" transform="translate(148.005 62.113)" fill="#f2afa5"/>
        <path id="Trazado_2036" data-name="Trazado 2036" d="M310.7,328.776l-7.156,4.208a136.989,136.989,0,0,0-10.876-12.891c-2.074-2.193-4.252-4.623-6.519-7.231-4.534-5.2-9.438-11.142-14.58-17.528l-4.608-5.764c-17.914-22.536-37.279-49.029-44.45-66.942-2.252-5.571-3.349-10.3-2.86-13.839,1.482-10.7,5.63-26.8,10.372-42.361,7.231-23.781,15.365-46.317,15.365-46.317l19.988,33.856s-6.134,14.624-11.72,30.2c-5.5,15.291-10.461,31.515-8.623,35.738.178.415.4.9.652,1.482,3.319,6.875,12.505,22.447,22.936,39.65l3.186,5.23c5.6,9.186,11.424,18.625,16.817,27.293,2.1,3.408,4.149,6.7,6.09,9.809,9.127,14.683,15.987,25.411,15.987,25.411" transform="translate(105.744 57.855)" fill="#f2afa5"/>
        <g id="Grupo_1344" data-name="Grupo 1344" transform="translate(372.301 318.814)" opacity="0.2" style="mix-blend-mode: normal;isolation: isolate">
          <g id="Grupo_1343" data-name="Grupo 1343">
            <g id="Grupo_1342" data-name="Grupo 1342" clip-path="url(#clip-path-10)">
              <path id="Trazado_2037" data-name="Trazado 2037" d="M251.27,243.767c9.453,11.853,18.536,22.67,25.292,30.523.963-4.83,1.941-10.55,2.711-16.787-7.808-12.535-17.365-28-26.048-42.332a163.927,163.927,0,0,1-1.956,28.6" transform="translate(-251.27 -215.171)"/>
            </g>
          </g>
        </g>
        <path id="Trazado_2038" data-name="Trazado 2038" d="M285.412,187.835c-2.474,16.876-6,32.167-8.3,41.28-1.378,5.467-2.311,8.7-2.311,8.7a457.09,457.09,0,0,1-3.052,51.859c-.756,6.786-1.571,13.335-2.415,19.366-3.111,22.433-6.386,38.524-6.386,38.524l-8.52-1.111.326-54.955.178-29.13.237-39.635.089-6.9.415-30.137.607-44.45L285.916,127.9c3.971,16.965,2.489,39.605-.5,59.934" transform="translate(122.553 61.607)" fill="#f2afa5"/>
        <g id="Grupo_1347" data-name="Grupo 1347" transform="translate(325.203 177.951)" opacity="0.2" style="mix-blend-mode: normal;isolation: isolate">
          <g id="Grupo_1346" data-name="Grupo 1346">
            <g id="Grupo_1345" data-name="Grupo 1345" clip-path="url(#clip-path-11)">
              <path id="Trazado_2039" data-name="Trazado 2039" d="M245.349,120.1l19.988,33.856s-6.134,14.624-11.72,30.2c-5.5,15.291-10.461,31.515-8.623,35.738.178.415.4.9.652,1.482-7.408,2.519-16.135,2.252-23.188,1.3-2.252-5.571-3.349-10.3-2.86-13.839,1.482-10.7,5.63-26.8,10.372-42.361,7.245-23.84,15.38-46.377,15.38-46.377" transform="translate(-219.483 -120.101)"/>
            </g>
          </g>
        </g>
        <g id="Grupo_1350" data-name="Grupo 1350" transform="translate(377.813 189.582)" opacity="0.2" style="mix-blend-mode: normal;isolation: isolate">
          <g id="Grupo_1349" data-name="Grupo 1349">
            <g id="Grupo_1348" data-name="Grupo 1348" clip-path="url(#clip-path-12)">
              <path id="Trazado_2040" data-name="Trazado 2040" d="M285.142,187.811c-2.474,16.876-6,32.167-8.3,41.28-9.735-3.112-16.3-8.89-21.855-13.217l.415-30.137.607-44.45,29.634-13.335c3.971,16.891,2.489,39.531-.5,59.86" transform="translate(-254.99 -127.951)"/>
            </g>
          </g>
        </g>
        <path id="Trazado_2041" data-name="Trazado 2041" d="M255.7,45.031c-5.616.252-28.152,32.849-28.152,32.849l-8.742-11.364s-13.483,26.2-6.816,38.657S253.8,83.555,253.8,83.555Z" transform="translate(101.22 21.69)" fill="#407bff"/>
        <path id="Trazado_2042" data-name="Trazado 2042" d="M255.7,45.031l-1.3,26.181L253.8,83.54s-5.779,5.6-13.083,11.424c-10.727,8.564-24.759,17.6-28.73,10.194C205.324,92.7,218.808,66.5,218.808,66.5l8.742,11.364v-.089c1.393-1.9,22.655-32.508,28.152-32.745" transform="translate(101.22 21.69)" fill="#ffeec0"/>
        <g id="Grupo_1353" data-name="Grupo 1353" transform="translate(341.916 80.294)" opacity="0.2" style="mix-blend-mode: normal;isolation: isolate">
          <g id="Grupo_1352" data-name="Grupo 1352">
            <g id="Grupo_1351" data-name="Grupo 1351" clip-path="url(#clip-path-13)">
              <path id="Trazado_2043" data-name="Trazado 2043" d="M244.464,66.8l-.593,12.328s-5.779,5.6-13.083,11.424c-.7-14.817,13.083-36.36,13.083-36.36Z" transform="translate(-230.763 -54.191)"/>
            </g>
          </g>
        </g>
        <g id="Grupo_1356" data-name="Grupo 1356" transform="translate(326.369 98.029)" opacity="0.2" style="mix-blend-mode: normal;isolation: isolate">
          <g id="Grupo_1355" data-name="Grupo 1355">
            <g id="Grupo_1354" data-name="Grupo 1354" clip-path="url(#clip-path-14)">
              <path id="Trazado_2044" data-name="Trazado 2044" d="M222.67,67.7l1.259,2.415-3.66,14.254s10.105-9.2,3.66-18.21Z" transform="translate(-220.27 -66.161)"/>
            </g>
          </g>
        </g>
        <path id="Trazado_2045" data-name="Trazado 2045" d="M254.649,42.613c2.963-2.889,20.329-2.652,25.752.37L276.563,57.8l-25.011,1.482s-1.971-11.794,3.1-16.669" transform="translate(120.986 19.544)" fill="#ffcd31"/>
        <path id="Trazado_2046" data-name="Trazado 2046" d="M284.149,257.8c-.874-.637-8.253,10.372-8.253,10.372s1.645,11.513-1.689,18.951,3.141,6.8,8.52-.252,9.483-12.4,13.335-17.41-2.86-5.082-11.913-11.661" transform="translate(131.64 124.164)" fill="#263238"/>
        <path id="Trazado_2047" data-name="Trazado 2047" d="M274.224,272.765a1.56,1.56,0,0,1-1.363-1.748,5.534,5.534,0,0,1,1.482-2.563c-1.111.519-2.237.845-2.815.444s-.489-.711-.356-1.363a2.045,2.045,0,0,1,1.008-1.393c1.674-.978,4.8,0,4.949,0a.209.209,0,0,1,.119.074.131.131,0,0,1,0,.089.14.14,0,0,1,0,.1.206.206,0,0,1,0,.133c-.193.963-1.289,5.734-2.963,6.134Zm2.282-5.334c-1.156.978-2.815,2.593-2.963,3.675a.8.8,0,0,0,.133.593c.341.415.548.37.607.356C275.084,271.862,275.988,269.491,276.506,267.431Zm-2.326-1.022a3.27,3.27,0,0,0-1.6.341,1.366,1.366,0,0,0-.667.933c0,.193-.089.533,0,.637.5.341,2.474-.548,4.252-1.645A8.883,8.883,0,0,0,274.18,266.409Z" transform="translate(130.57 127.986)" fill="#ffcd31"/>
        <path id="Trazado_2048" data-name="Trazado 2048" d="M273.128,272.71c0-1.082-13.335-.237-13.335-.237s-8.164,8.3-16.091,10.164-3.5,6.623,5.364,6.623h21.914c6.342,0,2.4-5.364,2.148-16.55" transform="translate(115.398 131.093)" fill="#263238"/>
        <path id="Trazado_2049" data-name="Trazado 2049" d="M249.061,276.742a1.864,1.864,0,0,1-1.171-.311,1.3,1.3,0,0,1-.326-1.482,1.48,1.48,0,0,1,.711-.889,5.533,5.533,0,0,1,2.963-.326c-1.082-.578-2.03-1.274-2.074-1.971,0-.459.281-.83.874-1.111a2.06,2.06,0,0,1,1.719,0c1.793.756,2.963,3.823,2.963,3.986a.4.4,0,0,1,0,.133.4.4,0,0,1,0,.118v.089a.191.191,0,0,1-.1.089,16.8,16.8,0,0,1-5.556,1.674m1.126-2.311a3.271,3.271,0,0,0-1.556.3.727.727,0,0,0-.385.459c-.133.519,0,.652.089.7.622.519,3.052-.207,5.008-1.037a15.457,15.457,0,0,0-3.156-.474Zm.785-3.245a1.492,1.492,0,0,0-.608.148c-.193.089-.489.267-.474.445,0,.593,1.926,1.63,3.882,2.371a5.784,5.784,0,0,0-2.267-2.845,1.394,1.394,0,0,0-.533-.178Z" transform="translate(119.196 130.277)" fill="#ffcd31"/>
        <path id="Trazado_2050" data-name="Trazado 2050" d="M253.655,99.051l-5.186,24.418s-24.077,38.7-34.079,85.078c0,0-.37,12.224,11.853,10.372s17.676,11.113,29.767,11.113,24.24-8.89,34.642,0,30.048,0,30.048,0-.741-91.657-19.632-127.321Z" transform="translate(103.267 47.711)" fill="#ffcd31"/>
        <path id="Trazado_2051" data-name="Trazado 2051" d="M241.505,125.053l47.414,3.66s.652-28.33,4.445-43.072c1.23-4.771,2.771-10.135,4.727-16.3.83-2.637,1.734-5.423,2.726-8.4s1.9-5.719,2.963-8.816a142.072,142.072,0,0,0-19.825-4.786A153.1,153.1,0,0,0,262.5,45.072c-9.29-.074-19.973.978-19.973.978s-1.482.37-2.474,10.209c-.874,9.2-.474,35.145,1.452,68.794" transform="translate(115.416 21.709)" fill="#263238"/>
        <path id="Trazado_2052" data-name="Trazado 2052" d="M259,60.552C270.783,59.07,274.325,54,274.325,54c-4.815-4.534-3.941-11.231-2.711-15.409a23.875,23.875,0,0,1,1.482-3.852l-14.18,2.652a40.755,40.755,0,0,1,.548,5.927,17.857,17.857,0,0,1-.4,4.445c-.963,4.238-3.378,4.3-3.378,4.3C253.166,56.7,259,60.552,259,60.552" transform="translate(122.854 16.734)" fill="#f2afa5"/>
        <g id="Grupo_1359" data-name="Grupo 1359" transform="translate(381.769 51.534)" opacity="0.2" style="mix-blend-mode: normal;isolation: isolate">
          <g id="Grupo_1358" data-name="Grupo 1358">
            <g id="Grupo_1357" data-name="Grupo 1357" clip-path="url(#clip-path-15)">
              <path id="Trazado_2053" data-name="Trazado 2053" d="M258.179,43.345a17.855,17.855,0,0,1-.4,4.445c5.63-.741,9.9-5.245,12.579-9.157a23.875,23.875,0,0,1,1.482-3.852l-14.18,2.652a40.955,40.955,0,0,1,.519,5.912" transform="translate(-257.66 -34.781)"/>
            </g>
          </g>
        </g>
        <path id="Trazado_2054" data-name="Trazado 2054" d="M263.89,15.307S267.594-3.214,286.678.49s10.179,29.737,6.3,37.916-4.445,14.817.178,18.565c0,0-6.3,1.808-9.631-2.519,0,0,.193,4,2.415,5.66,0,0-19.188-6.845-14.313-29.248s-7.734-15.558-7.734-15.558" transform="translate(127.11 0)" fill="#263238"/>
        <path id="Trazado_2055" data-name="Trazado 2055" d="M254.411,10.454s-9.616.37-12.209,8.52-.548,17.247,13.809,26.967,26.389.178,31.945-6.46S290.727,10.409,274.8,7.742s-20.388,2.711-20.388,2.711" transform="translate(116.201 3.372)" fill="#263238"/>
        <path id="Trazado_2056" data-name="Trazado 2056" d="M261.034,11.164c-12.224,1.763-15.2,8.89-14.283,21.573,1.156,15.9,6.253,26.566,21.04,21,20.077-7.616,13.513-45.5-6.756-42.569" transform="translate(118.78 5.299)" fill="#f2afa5"/>
        <path id="Trazado_2057" data-name="Trazado 2057" d="M252.875,24.441a26.267,26.267,0,0,1-2.815,5.586,3.411,3.411,0,0,0,3.423.919Z" transform="translate(120.448 11.773)" fill="#e19489"/>
        <path id="Trazado_2058" data-name="Trazado 2058" d="M256.894,23.683c.119,1.008.771,1.763,1.482,1.674s1.111-.963.993-1.971-.77-1.748-1.482-1.674-1.082.963-.993,1.971" transform="translate(123.734 10.456)" fill="#263238"/>
        <path id="Trazado_2059" data-name="Trazado 2059" d="M258.512,21.894,256.23,21.3s1.3,1.734,2.282.593" transform="translate(123.42 10.26)" fill="#263238"/>
        <path id="Trazado_2060" data-name="Trazado 2060" d="M248.457,24.564c.119,1.008.756,1.748,1.482,1.674s1.111-.963.993-1.971-.77-1.763-1.482-1.674-1.111.963-.993,1.971" transform="translate(119.666 10.879)" fill="#263238"/>
        <path id="Trazado_2061" data-name="Trazado 2061" d="M250.057,22.794l-2.3-.593s1.319,1.7,2.3.593" transform="translate(119.341 10.694)" fill="#263238"/>
        <path id="Trazado_2062" data-name="Trazado 2062" d="M256.17,17.415a6.415,6.415,0,0,1,5.571,1.082" transform="translate(123.391 8.279)" fill="none" stroke="#263238" stroke-linecap="round" stroke-linejoin="round" stroke-width="0.708"/>
        <path id="Trazado_2063" data-name="Trazado 2063" d="M251.667,17.86a5.806,5.806,0,0,0-4.727,1.719" transform="translate(118.946 8.589)" fill="none" stroke="#263238" stroke-linecap="round" stroke-linejoin="round" stroke-width="0.708"/>
        <path id="Trazado_2064" data-name="Trazado 2064" d="M277.539,31.5s-7.157-9.216-7.408-17.084c0,0-25.633-6.386-23.277,18.343,0,0-5.512-21.47,15.409-24.981s25.263,27.2,15.75,37.916c0,0,3.971-8.431-.474-14.194" transform="translate(118.588 3.614)" fill="#263238"/>
        <path id="Trazado_2065" data-name="Trazado 2065" d="M266.253,27.5a5.438,5.438,0,0,1,5.067-5.734c3.838-.133,6.771,7.408-2.371,10.609-1.319.459-2.267-.741-2.7-4.875" transform="translate(128.244 10.481)" fill="#f2afa5"/>
        <path id="Trazado_2066" data-name="Trazado 2066" d="M254.12,34.576s5.275.43,6.742-4.445" transform="translate(122.404 14.513)" fill="none" stroke="#263238" stroke-linecap="round" stroke-linejoin="round" stroke-width="0.708"/>
        <path id="Trazado_2067" data-name="Trazado 2067" d="M253.646,7.314s-7.823-3.1-7.483,3.941,29.974,24.433,44.984,23.322c0,0-4.075-1.052-5.378-2.83A17.528,17.528,0,0,0,280.3,9.521c-15.6-12.342-26.655-2.208-26.655-2.208" transform="translate(118.566 1.637)" fill="#263238"/>
        <path id="Trazado_2068" data-name="Trazado 2068" d="M247.76,9.761s1.215,14.713,21.721,21.751" transform="translate(119.341 4.702)" fill="none" stroke="#263238" stroke-linecap="round" stroke-linejoin="round" stroke-width="0.488"/>
        <path id="Trazado_2069" data-name="Trazado 2069" d="M242.039,68.933a1.215,1.215,0,0,1-1.058,1.354,1.1,1.1,0,0,1-.172.009H227.267a1.556,1.556,0,0,1-1.482-1.363l-2.963-26.67a1.379,1.379,0,0,1,1.23-1.482h13.543a1.751,1.751,0,0,1,1.482,1.482Z" transform="translate(107.326 19.643)" fill="#263238"/>
        <g id="Grupo_1362" data-name="Grupo 1362" transform="translate(330.01 60.306)" opacity="0.5" style="mix-blend-mode: normal;isolation: isolate">
          <g id="Grupo_1361" data-name="Grupo 1361">
            <g id="Grupo_1360" data-name="Grupo 1360" clip-path="url(#clip-path-16)">
              <path id="Trazado_2070" data-name="Trazado 2070" d="M237.548,42.064l3.067,27a1.022,1.022,0,0,1-.735,1.245,1,1,0,0,1-.332.03H228.065c-.77,0-2.178-.43-2.267-1.185l-3.067-27.085c-.089-.756,1.23-1.363,2-1.363h11.483a1.393,1.393,0,0,1,1.333,1.363" transform="translate(-222.727 -40.701)" fill="#fff"/>
            </g>
          </g>
        </g>
        <path id="Trazado_2071" data-name="Trazado 2071" d="M274.262,42.2,263.89,47.639l2.963,7.157s-4.238,30.374,0,61.49l27.2-1.734s3.289-48.629-1.926-61.1l-15.943-5.571Z" transform="translate(127.11 20.327)" fill="#407bff"/>
        <path id="Trazado_2072" data-name="Trazado 2072" d="M295.029,85.11c0,15.1-1.022,29.441-1.022,29.441l-15.913,1.008-11.29.726c-4.223-31.115,0-61.49,0-61.49l-2.963-7.157L274.212,42.2l1.867,5.675,15.987,5.571c2.43,5.7,3.037,18.951,2.963,31.663" transform="translate(127.086 20.327)" fill="#ffeec0"/>
        <path id="Trazado_2073" data-name="Trazado 2073" d="M262.532,41.951l-.933,5.556-2.578,4.134s-13.72,32.419-11.5,62.053L234.81,111.96s.089-51.385,8.89-65.446l15.35-.667Z" transform="translate(113.103 20.207)" fill="#407bff"/>
        <path id="Trazado_2074" data-name="Trazado 2074" d="M262.532,41.951l-.933,5.556-2.578,4.134s-13.72,32.419-11.5,62.053L234.81,111.96s.089-51.385,8.89-65.446l15.35-.667Z" transform="translate(113.103 20.207)" fill="#ffeec0"/>
        <g id="Grupo_1365" data-name="Grupo 1365" transform="translate(370.834 150.421)" opacity="0.6" style="mix-blend-mode: normal;isolation: isolate">
          <g id="Grupo_1364" data-name="Grupo 1364">
            <g id="Grupo_1363" data-name="Grupo 1363" clip-path="url(#clip-path-17)">
              <path id="Trazado_2075" data-name="Trazado 2075" d="M255.081,103.921a2.4,2.4,0,1,1-2.4-2.4,2.4,2.4,0,0,1,2.4,2.4" transform="translate(-250.28 -101.521)" fill="#fff"/>
            </g>
          </g>
        </g>
        <path id="Trazado_2076" data-name="Trazado 2076" d="M216.64,69.125l7.053-11.972s0-6.3.608-7.779,7.527-4.83,8.89-4.326,1.852,12.846.607,14.52-5.556,3.512-5.556,3.512l.3,2.341L224.419,77.9Z" transform="translate(104.351 21.674)" fill="#f2afa5"/>
        <path id="Trazado_2077" data-name="Trazado 2077" d="M214.72,61.137l2.356-2.356,11.113,12.476L226.6,76.191Z" transform="translate(103.426 28.314)" fill="#ffcd31"/>
        <g id="Grupo_1368" data-name="Grupo 1368" transform="translate(404.611 89.954)" opacity="0.2" style="mix-blend-mode: normal;isolation: isolate">
          <g id="Grupo_1367" data-name="Grupo 1367">
            <g id="Grupo_1366" data-name="Grupo 1366" clip-path="url(#clip-path-18)">
              <path id="Trazado_2078" data-name="Trazado 2078" d="M290.58,76.195c0,15.1-1.022,29.441-1.022,29.441l-15.913,1.008c-2.8-22.121,5.66-45.932,5.66-45.932Z" transform="translate(-273.076 -60.711)"/>
            </g>
          </g>
        </g>
        <path id="Trazado_2079" data-name="Trazado 2079" d="M285.991,49.791s4.889,9.838,6.371,15.972,4.949,46.258,6.43,51.859,37.042,54.822,37.042,54.822l-10.876,8.609s-35.56-40.88-41.724-51.073S277.427,83.4,276.509,72.7s9.483-22.907,9.483-22.907" transform="translate(133.16 23.983)" fill="#407bff"/>
        <path id="Trazado_2080" data-name="Trazado 2080" d="M285.991,49.791s4.889,9.838,6.371,15.972,4.949,46.258,6.43,51.859,37.042,54.822,37.042,54.822l-10.876,8.609s-35.56-40.88-41.724-51.073S277.427,83.4,276.509,72.7s9.483-22.907,9.483-22.907" transform="translate(133.16 23.983)" fill="#ffeec0"/>
        <path id="Trazado_2081" data-name="Trazado 2081" d="M307.27,142.247,321.2,130.2l2.208,3.9-11.513,12.031Z" transform="translate(148.005 62.715)" fill="#ffcd31"/>
      </g>
    </g>
  </g>
</svg>
