<svg width="506" height="506" viewBox="0 0 506 506" fill="none" xmlns="http://www.w3.org/2000/svg">
<g clip-path="url(#clip0)">
<path d="M427.554 71.862C328.348 -23.954 171.068 -23.954 71.862 71.862C-26.36 173.559 -23.543 335.624 78.154 433.846C177.36 529.662 334.64 529.662 433.846 433.846C532.068 332.15 529.251 170.084 427.554 71.862ZM421.814 421.814L421.729 421.729C328.377 514.996 177.093 514.927 83.826 421.575C-9.44099 328.223 -9.37198 176.94 83.98 83.673C177.332 -9.594 328.616 -9.525 421.883 83.826C466.682 128.666 491.829 189.469 491.788 252.854C491.792 316.225 466.622 377.002 421.814 421.814Z" fill="white"/>
<path d="M396.641 325.729L348.684 277.942C337.8 267.032 320.132 267.011 309.222 277.895C309.206 277.911 309.191 277.926 309.175 277.942L281.698 305.419C279.619 307.503 276.343 307.791 273.933 306.102C258.894 295.592 244.816 283.769 231.864 270.774C220.264 259.2 209.593 246.732 199.949 233.483C198.201 231.103 198.455 227.803 200.546 225.718L228.706 197.558C239.578 186.665 239.578 169.027 228.706 158.134L180.749 110.177C169.698 99.612 152.291 99.612 141.24 110.177L126.051 125.366C103.112 148.047 94.923 181.725 104.888 212.406C112.324 234.853 122.835 256.161 136.12 275.723C148.08 293.657 161.801 310.351 177.08 325.558C193.691 342.288 212.091 357.139 231.949 369.846C253.779 384.091 277.748 394.75 302.946 401.419C309.424 403.016 316.072 403.818 322.743 403.808C345.614 403.668 367.495 394.462 383.586 378.208L396.642 365.152C407.513 354.26 407.513 336.622 396.641 325.729ZM384.557 353.514C384.546 353.525 384.535 353.537 384.523 353.548L384.608 353.292L371.552 366.348C354.777 383.335 330.346 390.324 307.125 384.78C283.73 378.518 261.49 368.55 241.248 355.255C222.442 343.236 205.014 329.186 189.28 313.356C174.803 298.985 161.797 283.205 150.453 266.252C138.045 248.01 128.224 228.138 121.269 207.201C113.296 182.605 119.903 155.616 138.336 137.484L153.525 122.295C157.748 118.053 164.61 118.038 168.851 122.261C168.862 122.272 168.874 122.283 168.885 122.295L216.842 170.252C221.084 174.475 221.099 181.337 216.876 185.578C216.865 185.589 216.854 185.6 216.842 185.612L188.682 213.772C180.602 221.764 179.586 234.464 186.293 243.639C196.478 257.617 207.749 270.77 220 282.978C233.659 296.696 248.508 309.175 264.373 320.269C273.54 326.663 285.968 325.585 293.898 317.709L321.119 290.061C325.342 285.819 332.204 285.804 336.445 290.027C336.456 290.038 336.467 290.049 336.479 290.061L384.522 338.189C388.765 342.411 388.78 349.272 384.557 353.514Z" fill="white"/>
<path d="M217.5 171L168.5 122.5C162.034 116.1 155.139 120.5 152.5 123.5L136.5 139.5C118.9 159.9 116.833 181.333 118 189.5C120 222.3 153.167 271.5 169.5 292C193.9 325.6 244.667 358 267 370C307.8 391.6 336.667 387.333 346 382.5C356.4 381.7 374.667 363.5 382.5 354.5C391.3 348.5 386.167 339.667 382.5 336L339.5 293.5C330.7 281.9 321.5 288.667 318 293.5L290.5 320.5C280.1 327.7 268.833 323.5 264.5 320.5C232.9 300.5 197.667 258.167 184 239.5C179.2 227.1 184.333 218 187.5 215C195.5 207.5 212.7 191.1 217.5 185.5C222.3 179.9 219.5 173.5 217.5 171Z" fill="white"/>
<path d="M325.516 276L399.102 346.751L350.586 397.211L294 388.5L194.5 330.5L121.5 228.5L111 161L158 113L226 166.5L215 185L161.5 166.5L223.5 282L277 326.46L325.516 276Z" fill="white"/>
</g>
<defs>
<clipPath id="clip0">
<rect width="505.709" height="505.709" fill="white"/>
</clipPath>
</defs>
</svg>
