<svg width="512" height="512" viewBox="0 0 512 512" fill="none" xmlns="http://www.w3.org/2000/svg">
<path d="M408 153.241C397.29 158.2 385.878 161.487 373.98 163.083C386.22 155.369 395.562 143.247 399.954 128.636C388.542 135.818 375.942 140.891 362.514 143.722C351.678 131.543 336.234 124 319.386 124C286.698 124 260.382 152.006 260.382 186.339C260.382 191.279 260.778 196.029 261.75 200.551C212.664 198.024 169.23 173.191 140.052 135.362C134.958 144.691 131.97 155.369 131.97 166.864C131.97 188.448 142.5 207.581 158.196 218.658C148.71 218.468 139.404 215.561 131.52 210.982C131.52 211.172 131.52 211.419 131.52 211.666C131.52 241.952 151.986 267.108 178.824 272.903C174.018 274.29 168.78 274.955 163.344 274.955C159.564 274.955 155.748 274.727 152.166 273.891C159.816 298.572 181.524 316.717 207.336 317.306C187.248 333.893 161.742 343.887 134.13 343.887C129.288 343.887 124.644 343.659 120 343.032C146.154 360.835 177.15 371 210.576 371C319.224 371 378.624 276 378.624 193.654C378.624 190.899 378.534 188.239 378.408 185.598C390.126 176.82 399.972 165.857 408 153.241Z" fill="white"/>
<path d="M435.346 74.3092C338.045 -17.5358 183.784 -17.5358 86.4829 74.3092C-9.85339 171.792 -7.09048 327.14 92.6541 421.291C189.955 513.136 344.216 513.136 441.517 421.291C537.853 323.81 535.09 168.461 435.346 74.3092ZM429.716 409.758L429.633 409.676C338.073 499.078 189.694 499.012 98.2172 409.529C6.74078 320.046 6.80846 175.032 98.3682 85.6307C189.928 -3.77091 338.307 -3.70477 429.784 85.7774C473.723 128.759 498.387 187.042 498.347 247.8C498.351 308.545 473.664 366.803 429.716 409.758Z" fill="white"/>
</svg>
